<svg width="209" height="70" viewBox="0 0 209 70" fill="none" xmlns="http://www.w3.org/2000/svg">
<path d="M30.7724 42.1949C32.3648 42.2651 33.8882 42.0778 35.3426 41.6329C36.8228 41.181 38.3501 40.6476 39.9246 40.0324C40.4879 38.5287 41.0804 37.031 41.7022 35.5392C42.3497 34.0406 42.9809 32.5325 43.5958 31.015C44.2037 29.4717 44.7661 27.913 45.283 26.339C45.8257 24.758 46.2703 23.1204 46.617 21.4263C44.6846 21.53 42.7604 21.9213 40.8442 22.6004C38.9468 23.2468 37.0884 24.0899 35.2688 25.1296C33.4492 26.1693 31.7062 27.3403 30.0398 28.6427C28.3735 29.945 26.811 31.2747 25.3526 32.6318C25.1999 32.7831 24.9648 33.0393 24.6475 33.4004C24.3232 33.7358 23.987 34.1296 23.6389 34.5817C23.3096 35.0013 22.9906 35.4594 22.682 35.9562C22.3923 36.4204 22.1927 36.8604 22.0832 37.2762C21.9995 37.6851 22.0506 38.0303 22.2365 38.3118C22.4223 38.5933 22.8262 38.7612 23.4481 38.8154L25.9784 40.9948C25.3823 40.9336 24.7174 40.8219 23.9837 40.6596C23.2758 40.4904 22.5763 40.2499 21.8854 39.9381C21.1945 39.6263 20.58 39.2388 20.0418 38.7757C19.5224 38.2798 19.1695 37.6842 18.9832 36.9887C18.7899 36.2675 18.8586 35.5451 19.1893 34.8215C19.5388 34.0653 20.0052 33.333 20.5884 32.6246C21.1716 31.9162 21.7978 31.2652 22.467 30.6718C23.1293 30.0526 23.6929 29.5289 24.1579 29.1006C25.2802 28.1373 26.4901 27.192 27.7876 26.2646C29.0782 25.3114 30.4153 24.4286 31.7988 23.6161C33.2012 22.771 34.6278 22.0161 36.0785 21.3513C37.5549 20.6796 39.053 20.1402 40.5728 19.733C41.7834 19.4086 42.9874 19.2654 44.1847 19.3035C45.4009 19.3089 46.5651 19.6871 47.6774 20.4382C48.3839 20.9114 48.8929 21.3686 49.2044 21.8097C49.5089 22.225 49.6718 22.6783 49.693 23.1696C49.7331 23.6282 49.6676 24.1565 49.4965 24.7544C49.3185 25.3267 49.084 25.9969 48.7929 26.7651C47.8939 29.0765 47.0555 31.1508 46.2778 32.9881C45.5002 34.8253 44.7568 36.5843 44.0476 38.2651C45.852 37.4779 47.6213 36.714 49.3553 35.9733C51.0825 35.2068 52.9239 34.5063 54.8797 33.8718C55.0356 33.5264 55.1915 33.1809 55.3474 32.8355C55.5291 32.4831 55.6884 32.1505 55.8255 31.8378C56.3189 30.7945 56.814 29.6542 57.3107 28.4168C57.8262 27.1467 58.2437 25.8201 58.5633 24.437C58.8829 23.0538 59.0658 21.6244 59.1121 20.1488C59.1842 18.6663 59.033 17.1746 58.6584 15.6737L61.8966 17.2493C62.2555 18.5887 62.4039 19.9155 62.3419 21.2297C62.2988 22.5112 62.1165 23.7886 61.7951 25.0618C61.4737 26.335 61.0587 27.6196 60.5501 28.9153C60.0346 30.1854 59.4967 31.4752 58.9366 32.7848C59.1942 32.7158 59.4423 32.6631 59.681 32.6267C59.9386 32.5577 60.1962 32.4887 60.4538 32.4197L63.3987 34.4465C62.3546 34.6711 61.3526 34.8982 60.3926 35.1278C59.4584 35.3505 58.5406 35.5826 57.639 35.8242C57.341 36.5666 56.9934 37.4328 56.596 38.4227C56.2175 39.3799 55.9173 40.3715 55.6952 41.3972C55.4662 42.3972 55.3729 43.3885 55.4153 44.371C55.4577 45.3535 55.7473 46.2283 56.2842 46.9955C56.298 47.0471 56.3488 47.1853 56.4367 47.4102C56.5315 47.6609 56.6944 48.1142 56.9253 48.7701C56.5215 48.6022 56.1072 48.3957 55.6827 48.1506C55.2581 47.9055 54.8524 47.6277 54.4655 47.3172C54.0855 47.0325 53.7407 46.7246 53.4312 46.3934C53.1473 46.0554 52.915 45.7035 52.7342 45.3379C52.3137 44.1806 52.2177 42.895 52.4462 41.481C52.6677 40.0412 53.025 38.5927 53.518 37.1355C51.8078 37.7594 50.0892 38.4545 48.3621 39.221C46.6607 39.9806 44.767 40.8469 42.6811 41.8199C42.6554 41.8268 42.6459 41.8431 42.6528 41.8689C42.5535 42.1164 42.4576 42.3767 42.3652 42.65C42.2728 42.9232 42.1897 43.1801 42.1162 43.4207C41.7414 44.5978 41.4662 45.7344 41.2906 46.8305C41.115 47.9267 41.1307 48.8611 41.3377 49.6339C41.3653 49.7369 41.4058 49.8365 41.4592 49.9326C41.5126 50.0287 41.6149 50.1532 41.7663 50.3059C41.9176 50.4586 42.1437 50.6326 42.4445 50.8281C42.7523 51.0493 43.1546 51.3142 43.6514 51.6228L42.9622 52.76C42.0615 52.2835 41.3034 51.824 40.6879 51.3816C40.0794 50.9649 39.5773 50.5335 39.1816 50.0874C38.8049 49.6086 38.5346 49.115 38.3708 48.6068C38.2259 48.0658 38.1736 47.4587 38.214 46.7853C38.2632 46.2476 38.3287 45.7193 38.4105 45.2004C38.5181 44.6746 38.6446 44.1162 38.7899 43.5251C37.0609 44.1817 35.2189 44.4682 33.264 44.3846L30.7724 42.1949Z" fill="#8BB7AF"/>
<path d="M108.448 37.24C108.213 39.2667 107.499 41.0587 106.304 42.616C105.131 44.152 103.573 45.3467 101.632 46.2C99.712 47.0533 97.5147 47.48 95.04 47.48C92.3093 47.48 89.9093 46.9573 87.84 45.912C85.792 44.8667 84.192 43.416 83.04 41.56C81.888 39.6827 81.312 37.496 81.312 35C81.312 32.504 81.888 30.328 83.04 28.472C84.192 26.5947 85.792 25.1333 87.84 24.088C89.9093 23.0427 92.3093 22.52 95.04 22.52C97.5147 22.52 99.712 22.9467 101.632 23.8C103.573 24.6533 105.131 25.848 106.304 27.384C107.499 28.92 108.213 30.712 108.448 32.76H102.976C102.763 31.6293 102.304 30.6587 101.6 29.848C100.896 29.016 99.9893 28.376 98.88 27.928C97.7707 27.48 96.48 27.256 95.008 27.256C93.3227 27.256 91.8613 27.576 90.624 28.216C89.408 28.8347 88.4693 29.7307 87.808 30.904C87.1467 32.056 86.816 33.4213 86.816 35C86.816 36.5787 87.1467 37.9547 87.808 39.128C88.4693 40.28 89.408 41.176 90.624 41.816C91.8613 42.4347 93.3227 42.744 95.008 42.744C96.48 42.744 97.7707 42.5307 98.88 42.104C99.9893 41.656 100.896 41.0267 101.6 40.216C102.304 39.384 102.763 38.392 102.976 37.24H108.448ZM111.485 22.36H116.829V47H111.485V22.36ZM131.292 47.48C129.03 47.48 127.046 47.0853 125.34 46.296C123.633 45.4853 122.3 44.3653 121.34 42.936C120.38 41.4853 119.9 39.8107 119.9 37.912C119.9 35.992 120.38 34.3173 121.34 32.888C122.3 31.4373 123.633 30.3173 125.34 29.528C127.046 28.7173 129.03 28.312 131.292 28.312C133.553 28.312 135.537 28.7173 137.244 29.528C138.95 30.3173 140.273 31.4373 141.212 32.888C142.172 34.3173 142.652 35.992 142.652 37.912C142.652 39.8107 142.172 41.4853 141.212 42.936C140.273 44.3653 138.95 45.4853 137.244 46.296C135.537 47.0853 133.553 47.48 131.292 47.48ZM131.292 43.416C132.529 43.416 133.585 43.192 134.46 42.744C135.356 42.296 136.038 41.6667 136.508 40.856C136.998 40.024 137.244 39.0427 137.244 37.912C137.244 36.76 136.998 35.7787 136.508 34.968C136.038 34.136 135.356 33.496 134.46 33.048C133.585 32.6 132.529 32.376 131.292 32.376C130.076 32.376 129.02 32.6 128.124 33.048C127.228 33.496 126.534 34.136 126.044 34.968C125.574 35.7787 125.34 36.76 125.34 37.912C125.34 39.0427 125.574 40.024 126.044 40.856C126.534 41.6667 127.228 42.296 128.124 42.744C129.02 43.192 130.076 43.416 131.292 43.416ZM153.478 47.48C151.793 47.48 150.353 47.1387 149.158 46.456C147.985 45.752 147.078 44.76 146.438 43.48C145.819 42.2 145.51 40.6853 145.51 38.936V28.792H150.854V38.136C150.854 39.7573 151.238 40.9947 152.006 41.848C152.774 42.68 153.862 43.096 155.27 43.096C156.315 43.096 157.201 42.8827 157.926 42.456C158.673 42.008 159.249 41.368 159.654 40.536C160.059 39.704 160.262 38.7333 160.262 37.624L161.99 38.552C161.777 40.4293 161.275 42.04 160.486 43.384C159.697 44.7067 158.694 45.72 157.478 46.424C156.283 47.128 154.95 47.48 153.478 47.48ZM161.382 47L160.262 40.088V28.792H165.606V40.888L166.726 47H161.382ZM186.597 47L185.829 40.12L186.853 37.944L185.861 35.288L187.301 22.36H192.837L191.077 37.528L192.133 47H186.597ZM187.909 37.912C187.567 39.832 186.938 41.5173 186.021 42.968C185.125 44.3973 183.983 45.5067 182.597 46.296C181.231 47.0853 179.695 47.48 177.989 47.48C176.218 47.48 174.65 47.0853 173.285 46.296C171.919 45.4853 170.853 44.3653 170.085 42.936C169.338 41.4853 168.965 39.8107 168.965 37.912C168.965 35.992 169.338 34.3173 170.085 32.888C170.853 31.4373 171.919 30.3173 173.285 29.528C174.65 28.7173 176.218 28.312 177.989 28.312C179.695 28.312 181.231 28.7067 182.597 29.496C183.983 30.2853 185.135 31.4053 186.053 32.856C186.97 34.2853 187.589 35.9707 187.909 37.912ZM174.373 37.912C174.373 38.9787 174.586 39.9173 175.013 40.728C175.461 41.5387 176.069 42.1787 176.837 42.648C177.605 43.096 178.49 43.32 179.493 43.32C180.495 43.32 181.434 43.096 182.309 42.648C183.205 42.1787 183.994 41.5387 184.677 40.728C185.359 39.9173 185.893 38.9787 186.277 37.912C185.893 36.8453 185.359 35.9067 184.677 35.096C183.994 34.264 183.205 33.624 182.309 33.176C181.434 32.7067 180.495 32.472 179.493 32.472C178.49 32.472 177.605 32.7067 176.837 33.176C176.069 33.624 175.461 34.264 175.013 35.096C174.586 35.9067 174.373 36.8453 174.373 37.912Z" fill="#8BB7AF"/>
</svg>
