<svg width="398" height="134" viewBox="0 0 398 134" fill="none" xmlns="http://www.w3.org/2000/svg">
<path d="M97.4531 41.2656H102.628V60.0156H97.4531V41.2656ZM112.203 41.2656H117.403V60.0156H112.203V41.2656ZM100.353 48.1906H114.353V52.7906H100.353V48.1906ZM126.544 60.4156C125.211 60.4156 124.069 60.1406 123.119 59.5906C122.186 59.0406 121.469 58.2656 120.969 57.2656C120.469 56.249 120.219 55.0656 120.219 53.7156V45.7406H125.319V52.9906C125.319 54.0406 125.577 54.849 126.094 55.4156C126.611 55.9823 127.352 56.2656 128.319 56.2656C129.036 56.2656 129.636 56.124 130.119 55.8406C130.602 55.5406 130.977 55.1156 131.244 54.5656C131.511 54.0156 131.644 53.3573 131.644 52.5906L133.219 53.4156C133.036 54.9323 132.619 56.2156 131.969 57.2656C131.336 58.299 130.552 59.0823 129.619 59.6156C128.686 60.149 127.661 60.4156 126.544 60.4156ZM132.569 60.0156L131.644 54.2906V45.7406H136.744V55.0906L137.669 60.0156H132.569ZM145.929 60.4156C144.596 60.4156 143.454 60.1406 142.504 59.5906C141.571 59.0406 140.854 58.2656 140.354 57.2656C139.854 56.249 139.604 55.0656 139.604 53.7156V45.7406H144.704V52.9906C144.704 54.0406 144.962 54.849 145.479 55.4156C145.996 55.9823 146.737 56.2656 147.704 56.2656C148.421 56.2656 149.021 56.124 149.504 55.8406C149.987 55.5406 150.362 55.1156 150.629 54.5656C150.896 54.0156 151.029 53.3573 151.029 52.5906L152.604 53.4156C152.421 54.9323 152.004 56.2156 151.354 57.2656C150.721 58.299 149.937 59.0823 149.004 59.6156C148.071 60.149 147.046 60.4156 145.929 60.4156ZM151.954 60.0156L151.029 54.2906V45.7406H156.129V55.0906L157.054 60.0156H151.954ZM171.614 56.4156V53.9906L171.789 53.3906V49.8906L171.614 49.3656V45.7406H176.714V56.2156C176.714 57.9656 176.306 59.4656 175.489 60.7156C174.673 61.9656 173.531 62.9156 172.064 63.5656C170.614 64.2156 168.898 64.5406 166.914 64.5406C165.598 64.5406 164.373 64.3656 163.239 64.0156C162.123 63.6823 161.006 63.1823 159.889 62.5156V58.6656C160.923 59.4323 162.006 59.9823 163.139 60.3156C164.289 60.6656 165.439 60.8406 166.589 60.8406C168.223 60.8406 169.464 60.4906 170.314 59.7906C171.181 59.0906 171.614 57.9656 171.614 56.4156ZM165.489 58.5156C164.139 58.5156 162.939 58.2406 161.889 57.6906C160.839 57.1406 160.006 56.374 159.389 55.3906C158.789 54.3906 158.489 53.2323 158.489 51.9156C158.489 50.5823 158.789 49.424 159.389 48.4406C160.006 47.4573 160.839 46.6906 161.889 46.1406C162.939 45.5906 164.139 45.3156 165.489 45.3156C166.489 45.3156 167.406 45.474 168.239 45.7906C169.073 46.0906 169.814 46.499 170.464 47.0156C171.114 47.5156 171.656 48.0656 172.089 48.6656C172.539 49.249 172.881 49.8323 173.114 50.4156C173.348 50.999 173.464 51.5156 173.464 51.9656C173.464 52.5823 173.281 53.2656 172.914 54.0156C172.564 54.7656 172.048 55.4823 171.364 56.1656C170.681 56.849 169.839 57.4156 168.839 57.8656C167.856 58.299 166.739 58.5156 165.489 58.5156ZM167.214 55.0406C168.198 55.0406 169.073 54.7823 169.839 54.2656C170.606 53.749 171.256 52.9656 171.789 51.9156C171.239 50.849 170.581 50.0656 169.814 49.5656C169.048 49.049 168.181 48.7906 167.214 48.7906C166.481 48.7906 165.839 48.9156 165.289 49.1656C164.756 49.4156 164.348 49.7823 164.064 50.2656C163.781 50.7323 163.639 51.2823 163.639 51.9156C163.639 52.5323 163.781 53.0823 164.064 53.5656C164.348 54.0323 164.756 54.399 165.289 54.6656C165.823 54.9156 166.464 55.0406 167.214 55.0406ZM187.976 60.4156C186.143 60.4156 184.543 60.1073 183.176 59.4906C181.81 58.8573 180.743 57.974 179.976 56.8406C179.21 55.6906 178.826 54.374 178.826 52.8906C178.826 51.374 179.21 50.049 179.976 48.9156C180.743 47.7823 181.81 46.899 183.176 46.2656C184.543 45.6323 186.143 45.3156 187.976 45.3156C189.793 45.3156 191.385 45.6323 192.751 46.2656C194.135 46.899 195.21 47.7823 195.976 48.9156C196.743 50.049 197.126 51.374 197.126 52.8906C197.126 54.374 196.743 55.6906 195.976 56.8406C195.21 57.974 194.135 58.8573 192.751 59.4906C191.385 60.1073 189.793 60.4156 187.976 60.4156ZM187.976 56.6406C188.81 56.6406 189.518 56.4906 190.101 56.1906C190.701 55.8906 191.16 55.4573 191.476 54.8906C191.793 54.324 191.951 53.6573 191.951 52.8906C191.951 52.0906 191.793 51.4156 191.476 50.8656C191.16 50.299 190.701 49.8656 190.101 49.5656C189.518 49.2656 188.81 49.1156 187.976 49.1156C187.143 49.1156 186.426 49.2656 185.826 49.5656C185.226 49.8656 184.768 50.299 184.451 50.8656C184.135 51.4156 183.976 52.0823 183.976 52.8656C183.976 53.649 184.135 54.324 184.451 54.8906C184.768 55.4573 185.226 55.8906 185.826 56.1906C186.426 56.4906 187.143 56.6406 187.976 56.6406ZM228.692 57.8156H227.067L231.742 41.2656H237.217L231.517 60.0156H224.842L219.417 44.0156H221.542L216.092 60.0156H209.442L203.717 41.2656H209.217L213.892 57.8156L212.292 57.7906L217.742 41.2656H223.217L228.692 57.8156ZM250.311 60.0156L249.661 54.8656L250.336 52.8906L249.661 50.9156L250.311 45.7406H255.611L254.711 52.8656L255.611 60.0156H250.311ZM251.511 52.8906C251.277 54.3906 250.811 55.7073 250.111 56.8406C249.427 57.974 248.552 58.8573 247.486 59.4906C246.436 60.1073 245.236 60.4156 243.886 60.4156C242.486 60.4156 241.252 60.1073 240.186 59.4906C239.136 58.8573 238.311 57.974 237.711 56.8406C237.111 55.6906 236.811 54.374 236.811 52.8906C236.811 51.374 237.111 50.049 237.711 48.9156C238.311 47.7823 239.136 46.899 240.186 46.2656C241.252 45.6323 242.486 45.3156 243.886 45.3156C245.236 45.3156 246.436 45.6323 247.486 46.2656C248.552 46.8823 249.436 47.7573 250.136 48.8906C250.836 50.0073 251.294 51.3406 251.511 52.8906ZM241.986 52.8906C241.986 53.5906 242.127 54.2156 242.411 54.7656C242.711 55.3156 243.119 55.749 243.636 56.0656C244.152 56.3656 244.744 56.5156 245.411 56.5156C246.111 56.5156 246.769 56.3656 247.386 56.0656C248.002 55.749 248.544 55.3156 249.011 54.7656C249.477 54.2156 249.827 53.5906 250.061 52.8906C249.827 52.174 249.477 51.5406 249.011 50.9906C248.544 50.4406 248.002 50.0073 247.386 49.6906C246.769 49.374 246.111 49.2156 245.411 49.2156C244.744 49.2156 244.152 49.374 243.636 49.6906C243.119 50.0073 242.711 50.4406 242.411 50.9906C242.127 51.5406 241.986 52.174 241.986 52.8906ZM258.065 40.7656H263.19V60.0156H258.065V40.7656ZM268.415 45.3156C269.798 45.3156 270.965 45.5906 271.915 46.1406C272.882 46.6906 273.623 47.4656 274.14 48.4656C274.657 49.4656 274.915 50.649 274.915 52.0156V60.0156H269.79V52.7656C269.79 51.699 269.515 50.8823 268.965 50.3156C268.432 49.749 267.657 49.4656 266.64 49.4656C265.94 49.4656 265.323 49.6156 264.79 49.9156C264.273 50.2156 263.873 50.6406 263.59 51.1906C263.323 51.7406 263.19 52.3906 263.19 53.1406L261.59 52.3156C261.79 50.799 262.215 49.524 262.865 48.4906C263.515 47.4406 264.315 46.649 265.265 46.1156C266.232 45.5823 267.282 45.3156 268.415 45.3156ZM290.447 60.0156L289.797 54.8656L290.472 52.8906L289.797 50.9156L290.447 45.7406H295.747L294.847 52.8656L295.747 60.0156H290.447ZM291.647 52.8906C291.414 54.3906 290.947 55.7073 290.247 56.8406C289.564 57.974 288.689 58.8573 287.622 59.4906C286.572 60.1073 285.372 60.4156 284.022 60.4156C282.622 60.4156 281.389 60.1073 280.322 59.4906C279.272 58.8573 278.447 57.974 277.847 56.8406C277.247 55.6906 276.947 54.374 276.947 52.8906C276.947 51.374 277.247 50.049 277.847 48.9156C278.447 47.7823 279.272 46.899 280.322 46.2656C281.389 45.6323 282.622 45.3156 284.022 45.3156C285.372 45.3156 286.572 45.6323 287.622 46.2656C288.689 46.8823 289.572 47.7573 290.272 48.8906C290.972 50.0073 291.431 51.3406 291.647 52.8906ZM282.122 52.8906C282.122 53.5906 282.264 54.2156 282.547 54.7656C282.847 55.3156 283.256 55.749 283.772 56.0656C284.289 56.3656 284.881 56.5156 285.547 56.5156C286.247 56.5156 286.906 56.3656 287.522 56.0656C288.139 55.749 288.681 55.3156 289.147 54.7656C289.614 54.2156 289.964 53.5906 290.197 52.8906C289.964 52.174 289.614 51.5406 289.147 50.9906C288.681 50.4406 288.139 50.0073 287.522 49.6906C286.906 49.374 286.247 49.2156 285.547 49.2156C284.881 49.2156 284.289 49.374 283.772 49.6906C283.256 50.0073 282.847 50.4406 282.547 50.9906C282.264 51.5406 282.122 52.174 282.122 52.8906ZM298.202 40.7656H303.327V60.0156H298.202V40.7656ZM319.036 60.0156L318.386 54.8656L319.061 52.8906L318.386 50.9156L319.036 45.7406H324.336L323.436 52.8656L324.336 60.0156H319.036ZM320.236 52.8906C320.003 54.3906 319.536 55.7073 318.836 56.8406C318.153 57.974 317.278 58.8573 316.211 59.4906C315.161 60.1073 313.961 60.4156 312.611 60.4156C311.211 60.4156 309.978 60.1073 308.911 59.4906C307.861 58.8573 307.036 57.974 306.436 56.8406C305.836 55.6906 305.536 54.374 305.536 52.8906C305.536 51.374 305.836 50.049 306.436 48.9156C307.036 47.7823 307.861 46.899 308.911 46.2656C309.978 45.6323 311.211 45.3156 312.611 45.3156C313.961 45.3156 315.161 45.6323 316.211 46.2656C317.278 46.8823 318.161 47.7573 318.861 48.8906C319.561 50.0073 320.02 51.3406 320.236 52.8906ZM310.711 52.8906C310.711 53.5906 310.853 54.2156 311.136 54.7656C311.436 55.3156 311.845 55.749 312.361 56.0656C312.878 56.3656 313.47 56.5156 314.136 56.5156C314.836 56.5156 315.495 56.3656 316.111 56.0656C316.728 55.749 317.27 55.3156 317.736 54.7656C318.203 54.2156 318.553 53.5906 318.786 52.8906C318.553 52.174 318.203 51.5406 317.736 50.9906C317.27 50.4406 316.728 50.0073 316.111 49.6906C315.495 49.374 314.836 49.2156 314.136 49.2156C313.47 49.2156 312.878 49.374 312.361 49.6906C311.845 50.0073 311.436 50.4406 311.136 50.9906C310.853 51.5406 310.711 52.174 310.711 52.8906ZM326.791 40.7656H331.916V60.0156H326.791V40.7656ZM337.141 45.3156C338.524 45.3156 339.691 45.5906 340.641 46.1406C341.607 46.6906 342.349 47.4656 342.866 48.4656C343.382 49.4656 343.641 50.649 343.641 52.0156V60.0156H338.516V52.7656C338.516 51.699 338.241 50.8823 337.691 50.3156C337.157 49.749 336.382 49.4656 335.366 49.4656C334.666 49.4656 334.049 49.6156 333.516 49.9156C332.999 50.2156 332.599 50.6406 332.316 51.1906C332.049 51.7406 331.916 52.3906 331.916 53.1406L330.316 52.3156C330.516 50.799 330.941 49.524 331.591 48.4906C332.241 47.4406 333.041 46.649 333.991 46.1156C334.957 45.5823 336.007 45.3156 337.141 45.3156ZM344.803 49.5156V47.2906L347.703 46.1156L349.903 41.8906H352.803V45.7406H358.803V49.5156H352.803V53.7156C352.803 54.749 353.012 55.474 353.428 55.8906C353.845 56.3073 354.603 56.5156 355.703 56.5156C356.403 56.5156 357.02 56.4573 357.553 56.3406C358.103 56.2073 358.603 56.0406 359.053 55.8406V59.6906C358.553 59.874 357.895 60.0406 357.078 60.1906C356.262 60.3406 355.42 60.4156 354.553 60.4156C352.97 60.4156 351.67 60.174 350.653 59.6906C349.653 59.2073 348.912 58.5156 348.428 57.6156C347.945 56.699 347.703 55.6323 347.703 54.4156V49.5156H344.803ZM361.117 45.5156L363.692 46.0156L366.242 45.5156V60.0156H361.117V45.5156ZM363.667 44.3406C362.783 44.3406 362.067 44.124 361.517 43.6906C360.967 43.2406 360.692 42.6323 360.692 41.8656C360.692 41.1156 360.967 40.5156 361.517 40.0656C362.067 39.6156 362.783 39.3906 363.667 39.3906C364.583 39.3906 365.308 39.6156 365.842 40.0656C366.392 40.5156 366.667 41.1156 366.667 41.8656C366.667 42.6323 366.392 43.2406 365.842 43.6906C365.308 44.124 364.583 44.3406 363.667 44.3406ZM98.7406 66.4687V76.1859L97.9109 75.3844H105.856V77.0156H96.8844V66.4687H98.7406ZM107.056 69L107.97 69.1687L108.884 69V77.0156H107.056V69ZM107.97 68.0016C107.623 68.0016 107.337 67.9078 107.112 67.7203C106.887 67.5234 106.774 67.2703 106.774 66.9609C106.774 66.6516 106.887 66.4031 107.112 66.2156C107.337 66.0187 107.623 65.9203 107.97 65.9203C108.326 65.9203 108.612 66.0187 108.827 66.2156C109.052 66.4031 109.165 66.6516 109.165 66.9609C109.165 67.2703 109.052 67.5234 108.827 67.7203C108.612 67.9078 108.326 68.0016 107.97 68.0016ZM115.642 67.4109C114.957 67.4109 114.446 67.5562 114.109 67.8469C113.781 68.1375 113.617 68.6109 113.617 69.2672V77.0156H111.789V69.4359C111.789 68.7516 111.915 68.1516 112.168 67.6359C112.431 67.1203 112.829 66.7172 113.364 66.4266C113.907 66.1359 114.596 65.9906 115.431 65.9906C115.834 65.9906 116.19 66.0234 116.5 66.0891C116.809 66.1547 117.114 66.2391 117.414 66.3422V67.7766C117.142 67.6453 116.861 67.5516 116.57 67.4953C116.279 67.4391 115.97 67.4109 115.642 67.4109ZM110.087 71.0109V69.6047H117.259V71.0109H110.087ZM122.346 77.2125C121.418 77.2125 120.593 77.0391 119.871 76.6922C119.149 76.3359 118.582 75.8437 118.169 75.2156C117.757 74.5875 117.551 73.8562 117.551 73.0219C117.551 72.1969 117.743 71.475 118.127 70.8562C118.521 70.2281 119.06 69.7406 119.744 69.3937C120.438 69.0375 121.23 68.8594 122.121 68.8594C123.012 68.8594 123.78 69.0609 124.427 69.4641C125.083 69.8578 125.59 70.4156 125.946 71.1375C126.302 71.8594 126.48 72.7078 126.48 73.6828H118.985V72.2906H125.566L124.652 72.8109C124.624 72.2859 124.498 71.8359 124.273 71.4609C124.057 71.0859 123.762 70.8 123.387 70.6031C123.021 70.3969 122.585 70.2937 122.079 70.2937C121.544 70.2937 121.076 70.4016 120.673 70.6172C120.279 70.8328 119.969 71.1375 119.744 71.5312C119.519 71.9156 119.407 72.375 119.407 72.9094C119.407 73.5 119.538 74.0109 119.801 74.4422C120.073 74.8734 120.452 75.2062 120.94 75.4406C121.437 75.6656 122.023 75.7781 122.698 75.7781C123.307 75.7781 123.93 75.6844 124.568 75.4969C125.205 75.3 125.768 75.0281 126.255 74.6812V76.0031C125.768 76.3781 125.173 76.6734 124.469 76.8891C123.776 77.1047 123.068 77.2125 122.346 77.2125ZM131.706 69L132.62 69.1687L133.534 69V77.0156H131.706V69ZM132.62 68.0016C132.273 68.0016 131.987 67.9078 131.762 67.7203C131.537 67.5234 131.425 67.2703 131.425 66.9609C131.425 66.6516 131.537 66.4031 131.762 66.2156C131.987 66.0187 132.273 65.9203 132.62 65.9203C132.976 65.9203 133.262 66.0187 133.478 66.2156C133.703 66.4031 133.815 66.6516 133.815 66.9609C133.815 67.2703 133.703 67.5234 133.478 67.7203C133.262 67.9078 132.976 68.0016 132.62 68.0016ZM143.71 74.5969C143.71 75.1312 143.56 75.5953 143.26 75.9891C142.96 76.3828 142.505 76.6875 141.895 76.9031C141.286 77.1094 140.522 77.2125 139.603 77.2125C138.656 77.2125 137.836 77.0953 137.142 76.8609C136.449 76.6172 135.91 76.2797 135.525 75.8484C135.15 75.4078 134.949 74.9016 134.92 74.3297H136.777C136.833 74.6297 136.983 74.8969 137.227 75.1312C137.48 75.3562 137.808 75.5297 138.211 75.6516C138.624 75.7734 139.092 75.8344 139.617 75.8344C140.377 75.8344 140.949 75.7453 141.333 75.5672C141.717 75.3797 141.91 75.0984 141.91 74.7234C141.91 74.4703 141.778 74.2781 141.516 74.1469C141.263 74.0156 140.78 73.9172 140.067 73.8516L138.506 73.7109C137.663 73.6359 136.997 73.4859 136.51 73.2609C136.022 73.0266 135.675 72.7453 135.469 72.4172C135.263 72.0797 135.16 71.7234 135.16 71.3484C135.16 70.8047 135.328 70.35 135.666 69.9844C136.003 69.6187 136.472 69.3422 137.072 69.1547C137.672 68.9578 138.37 68.8594 139.167 68.8594C139.992 68.8594 140.728 68.9766 141.375 69.2109C142.022 69.4359 142.538 69.7547 142.922 70.1672C143.306 70.5703 143.522 71.0391 143.569 71.5734H141.713C141.675 71.3578 141.563 71.1516 141.375 70.9547C141.197 70.7484 140.92 70.5797 140.545 70.4484C140.18 70.3078 139.688 70.2375 139.069 70.2375C138.413 70.2375 137.897 70.3219 137.522 70.4906C137.156 70.6594 136.974 70.9078 136.974 71.2359C136.974 71.4422 137.086 71.6203 137.311 71.7703C137.536 71.9109 137.953 72.0094 138.563 72.0656L140.574 72.2484C141.38 72.3234 142.008 72.4687 142.458 72.6844C142.917 72.8906 143.241 73.1578 143.428 73.4859C143.616 73.8141 143.71 74.1844 143.71 74.5969ZM156.338 77.0156L156.029 74.0625L156.395 73.0359L156.029 72.0234L156.338 69.0562H158.223L157.801 73.0359L158.223 77.0156H156.338ZM156.901 73.0359C156.723 73.8703 156.427 74.6016 156.015 75.2297C155.602 75.8578 155.092 76.3453 154.482 76.6922C153.882 77.0391 153.212 77.2125 152.471 77.2125C151.693 77.2125 151.004 77.0391 150.404 76.6922C149.804 76.3359 149.335 75.8437 148.998 75.2156C148.66 74.5875 148.492 73.8609 148.492 73.0359C148.492 72.2016 148.66 71.475 148.998 70.8562C149.335 70.2281 149.804 69.7406 150.404 69.3937C151.004 69.0375 151.693 68.8594 152.471 68.8594C153.212 68.8594 153.882 69.0328 154.482 69.3797C155.092 69.7266 155.602 70.2141 156.015 70.8422C156.437 71.4609 156.732 72.1922 156.901 73.0359ZM150.348 73.0359C150.348 73.5703 150.456 74.0437 150.671 74.4562C150.896 74.8594 151.201 75.1781 151.585 75.4125C151.97 75.6375 152.41 75.75 152.907 75.75C153.413 75.75 153.882 75.6375 154.313 75.4125C154.745 75.1781 155.124 74.8594 155.452 74.4562C155.79 74.0437 156.057 73.5703 156.254 73.0359C156.057 72.5016 155.79 72.0328 155.452 71.6297C155.124 71.2172 154.745 70.8984 154.313 70.6734C153.882 70.4391 153.413 70.3219 152.907 70.3219C152.41 70.3219 151.97 70.4391 151.585 70.6734C151.201 70.8984 150.896 71.2172 150.671 71.6297C150.456 72.0328 150.348 72.5016 150.348 73.0359ZM159.602 69.0562H161.431L161.909 71.925V77.0156H160.081V71.6578L159.602 69.0562ZM165.073 68.8594C165.823 68.8594 166.46 69.0094 166.985 69.3094C167.51 69.6094 167.909 70.0406 168.181 70.6031C168.462 71.1562 168.602 71.8266 168.602 72.6141V77.0156H166.774V72.9094C166.774 72.075 166.577 71.4469 166.184 71.025C165.799 70.5937 165.232 70.3781 164.482 70.3781C163.967 70.3781 163.512 70.4953 163.118 70.7297C162.734 70.9547 162.434 71.2734 162.218 71.6859C162.012 72.0984 161.909 72.5812 161.909 73.1344L161.262 72.7828C161.346 71.9578 161.562 71.2547 161.909 70.6734C162.256 70.0922 162.701 69.6469 163.245 69.3375C163.788 69.0187 164.398 68.8594 165.073 68.8594ZM181.58 77.0156L181.27 74.0625L181.636 73.0359L181.27 72.0234L181.58 69.0562H183.464L183.042 73.0359L183.464 77.0156H181.58ZM182.142 73.0359C181.964 73.8703 181.669 74.6016 181.256 75.2297C180.844 75.8578 180.333 76.3453 179.723 76.6922C179.123 77.0391 178.453 77.2125 177.712 77.2125C176.934 77.2125 176.245 77.0391 175.645 76.6922C175.045 76.3359 174.576 75.8437 174.239 75.2156C173.901 74.5875 173.733 73.8609 173.733 73.0359C173.733 72.2016 173.901 71.475 174.239 70.8562C174.576 70.2281 175.045 69.7406 175.645 69.3937C176.245 69.0375 176.934 68.8594 177.712 68.8594C178.453 68.8594 179.123 69.0328 179.723 69.3797C180.333 69.7266 180.844 70.2141 181.256 70.8422C181.678 71.4609 181.973 72.1922 182.142 73.0359ZM175.589 73.0359C175.589 73.5703 175.697 74.0437 175.912 74.4562C176.137 74.8594 176.442 75.1781 176.826 75.4125C177.211 75.6375 177.651 75.75 178.148 75.75C178.655 75.75 179.123 75.6375 179.555 75.4125C179.986 75.1781 180.365 74.8594 180.694 74.4562C181.031 74.0437 181.298 73.5703 181.495 73.0359C181.298 72.5016 181.031 72.0328 180.694 71.6297C180.365 71.2172 179.986 70.8984 179.555 70.6734C179.123 70.4391 178.655 70.3219 178.148 70.3219C177.651 70.3219 177.211 70.4391 176.826 70.6734C176.442 70.8984 176.137 71.2172 175.912 71.6297C175.697 72.0328 175.589 72.5016 175.589 73.0359ZM192.676 77.0156L192.367 73.9922L192.775 73.05L192.381 71.9672L192.972 66.1875H194.856L194.139 72.9234L194.547 77.0156H192.676ZM193.211 73.0359C193.033 73.8703 192.737 74.6016 192.325 75.2297C191.912 75.8578 191.401 76.3453 190.792 76.6922C190.192 77.0391 189.522 77.2125 188.781 77.2125C188.003 77.2125 187.314 77.0391 186.714 76.6922C186.114 76.3359 185.645 75.8437 185.308 75.2156C184.97 74.5875 184.801 73.8609 184.801 73.0359C184.801 72.2016 184.97 71.475 185.308 70.8562C185.645 70.2281 186.114 69.7406 186.714 69.3937C187.314 69.0375 188.003 68.8594 188.781 68.8594C189.522 68.8594 190.192 69.0328 190.792 69.3797C191.401 69.7266 191.912 70.2141 192.325 70.8422C192.747 71.4609 193.042 72.1922 193.211 73.0359ZM186.658 73.0359C186.658 73.5703 186.765 74.0437 186.981 74.4562C187.206 74.8594 187.511 75.1781 187.895 75.4125C188.279 75.6375 188.72 75.75 189.217 75.75C189.723 75.75 190.192 75.6375 190.623 75.4125C191.054 75.1781 191.434 74.8594 191.762 74.4562C192.1 74.0437 192.367 73.5703 192.564 73.0359C192.367 72.5016 192.1 72.0328 191.762 71.6297C191.434 71.2172 191.054 70.8984 190.623 70.6734C190.192 70.4391 189.723 70.3219 189.217 70.3219C188.72 70.3219 188.279 70.4391 187.895 70.6734C187.511 70.8984 187.206 71.2172 186.981 71.6297C186.765 72.0328 186.658 72.5016 186.658 73.0359ZM200.749 76.2H200.046L203.309 69.0562H205.264L201.382 77.0156H199.329L195.448 69.0562H197.459L200.749 76.2ZM210.264 77.2125C209.336 77.2125 208.511 77.0391 207.789 76.6922C207.067 76.3359 206.5 75.8437 206.087 75.2156C205.675 74.5875 205.469 73.8562 205.469 73.0219C205.469 72.1969 205.661 71.475 206.045 70.8562C206.439 70.2281 206.978 69.7406 207.662 69.3937C208.356 69.0375 209.148 68.8594 210.039 68.8594C210.93 68.8594 211.698 69.0609 212.345 69.4641C213.002 69.8578 213.508 70.4156 213.864 71.1375C214.22 71.8594 214.398 72.7078 214.398 73.6828H206.903V72.2906H213.484L212.57 72.8109C212.542 72.2859 212.416 71.8359 212.191 71.4609C211.975 71.0859 211.68 70.8 211.305 70.6031C210.939 70.3969 210.503 70.2937 209.997 70.2937C209.462 70.2937 208.994 70.4016 208.591 70.6172C208.197 70.8328 207.887 71.1375 207.662 71.5312C207.437 71.9156 207.325 72.375 207.325 72.9094C207.325 73.5 207.456 74.0109 207.719 74.4422C207.991 74.8734 208.37 75.2062 208.858 75.4406C209.355 75.6656 209.941 75.7781 210.616 75.7781C211.225 75.7781 211.848 75.6844 212.486 75.4969C213.123 75.3 213.686 75.0281 214.173 74.6812V76.0031C213.686 76.3781 213.091 76.6734 212.387 76.8891C211.694 77.1047 210.986 77.2125 210.264 77.2125ZM215.523 69.0562H217.351L217.829 71.925V77.0156H216.001V71.6578L215.523 69.0562ZM220.993 68.8594C221.743 68.8594 222.381 69.0094 222.906 69.3094C223.431 69.6094 223.829 70.0406 224.101 70.6031C224.382 71.1562 224.523 71.8266 224.523 72.6141V77.0156H222.695V72.9094C222.695 72.075 222.498 71.4469 222.104 71.025C221.72 70.5937 221.153 70.3781 220.403 70.3781C219.887 70.3781 219.432 70.4953 219.039 70.7297C218.654 70.9547 218.354 71.2734 218.139 71.6859C217.932 72.0984 217.829 72.5812 217.829 73.1344L217.182 72.7828C217.267 71.9578 217.482 71.2547 217.829 70.6734C218.176 70.0922 218.621 69.6469 219.165 69.3375C219.709 69.0187 220.318 68.8594 220.993 68.8594ZM225.343 70.4625V69.6328L227.045 69.1969L227.804 66.975H228.873V69.0562H232.572V70.4625H228.873V73.9078C228.873 74.5734 229.014 75.0422 229.295 75.3141C229.586 75.5766 230.054 75.7078 230.701 75.7078C231.114 75.7078 231.479 75.6656 231.798 75.5812C232.117 75.4875 232.422 75.3562 232.712 75.1875V76.6922C232.468 76.8141 232.122 76.9312 231.672 77.0438C231.231 77.1563 230.776 77.2125 230.308 77.2125C229.529 77.2125 228.901 77.0859 228.423 76.8328C227.945 76.5703 227.593 76.2141 227.368 75.7641C227.153 75.3047 227.045 74.7797 227.045 74.1891V70.4625H225.343ZM237.377 77.2125C236.645 77.2125 236.022 77.0625 235.506 76.7625C235 76.4625 234.611 76.0312 234.339 75.4687C234.067 74.9062 233.931 74.2359 233.931 73.4578V69.0562H235.759V73.1766C235.759 74.0016 235.947 74.6297 236.322 75.0609C236.706 75.4828 237.255 75.6937 237.967 75.6937C238.483 75.6937 238.923 75.5812 239.289 75.3562C239.664 75.1312 239.955 74.8125 240.161 74.4C240.367 73.9781 240.47 73.4906 240.47 72.9375L241.103 73.2891C241.028 74.1047 240.822 74.8078 240.484 75.3984C240.147 75.9797 239.711 76.4297 239.177 76.7484C238.642 77.0578 238.042 77.2125 237.377 77.2125ZM240.934 77.0156L240.47 74.1469V69.0562H242.298V74.4281L242.762 77.0156H240.934ZM243.964 69.0562H245.792L246.27 71.9531V77.0156H244.442V71.6016L243.964 69.0562ZM250.306 69V70.6031C250.1 70.5469 249.875 70.5047 249.631 70.4766C249.387 70.4484 249.157 70.4344 248.942 70.4344C248.426 70.4344 247.967 70.5469 247.564 70.7719C247.161 70.9969 246.842 71.3344 246.607 71.7844C246.382 72.225 246.27 72.7687 246.27 73.4156L245.848 72.8953C245.886 72.3328 245.979 71.8078 246.129 71.3203C246.289 70.8234 246.504 70.3922 246.776 70.0266C247.057 69.6609 247.4 69.375 247.803 69.1687C248.206 68.9625 248.675 68.8594 249.209 68.8594C249.397 68.8594 249.589 68.8734 249.786 68.9016C249.982 68.9203 250.156 68.9531 250.306 69ZM255.487 77.2125C254.558 77.2125 253.733 77.0391 253.012 76.6922C252.29 76.3359 251.722 75.8437 251.31 75.2156C250.897 74.5875 250.691 73.8562 250.691 73.0219C250.691 72.1969 250.883 71.475 251.268 70.8562C251.662 70.2281 252.201 69.7406 252.885 69.3937C253.579 69.0375 254.371 68.8594 255.262 68.8594C256.152 68.8594 256.921 69.0609 257.568 69.4641C258.224 69.8578 258.73 70.4156 259.087 71.1375C259.443 71.8594 259.621 72.7078 259.621 73.6828H252.126V72.2906H258.707L257.793 72.8109C257.765 72.2859 257.638 71.8359 257.413 71.4609C257.197 71.0859 256.902 70.8 256.527 70.6031C256.162 70.3969 255.726 70.2937 255.219 70.2937C254.685 70.2937 254.216 70.4016 253.813 70.6172C253.419 70.8328 253.11 71.1375 252.885 71.5312C252.66 71.9156 252.547 72.375 252.547 72.9094C252.547 73.5 252.679 74.0109 252.941 74.4422C253.213 74.8734 253.593 75.2062 254.08 75.4406C254.577 75.6656 255.163 75.7781 255.838 75.7781C256.447 75.7781 257.071 75.6844 257.708 75.4969C258.346 75.3 258.908 75.0281 259.396 74.6812V76.0031C258.908 76.3781 258.313 76.6734 257.61 76.8891C256.916 77.1047 256.208 77.2125 255.487 77.2125ZM261.969 77.1281C261.753 77.1281 261.556 77.0766 261.378 76.9734C261.209 76.8703 261.073 76.7344 260.97 76.5656C260.867 76.3875 260.816 76.1906 260.816 75.975C260.816 75.7594 260.867 75.5672 260.97 75.3984C261.073 75.2203 261.209 75.0797 261.378 74.9766C261.556 74.8734 261.753 74.8219 261.969 74.8219C262.184 74.8219 262.377 74.8734 262.545 74.9766C262.723 75.0797 262.864 75.2203 262.967 75.3984C263.07 75.5672 263.122 75.7594 263.122 75.975C263.122 76.1906 263.07 76.3875 262.967 76.5656C262.864 76.7344 262.723 76.8703 262.545 76.9734C262.377 77.0766 262.184 77.1281 261.969 77.1281ZM100.288 84.3266H102.144V94.0156H100.288V84.3266ZM95.9281 83.4687H106.503V85.1H95.9281V83.4687ZM107.701 83.1875H109.529V94.0156H107.701V83.1875ZM112.693 85.8594C113.443 85.8594 114.081 86.0094 114.606 86.3094C115.131 86.6094 115.529 87.0406 115.801 87.6031C116.082 88.1562 116.223 88.8266 116.223 89.6141V94.0156H114.395V89.9094C114.395 89.075 114.198 88.4469 113.804 88.025C113.42 87.5937 112.853 87.3781 112.103 87.3781C111.587 87.3781 111.132 87.4953 110.738 87.7297C110.354 87.9547 110.054 88.2734 109.838 88.6859C109.632 89.0984 109.529 89.5812 109.529 90.1344L108.882 89.7828C108.967 88.9578 109.182 88.2547 109.529 87.6734C109.876 87.0922 110.321 86.6469 110.865 86.3375C111.409 86.0187 112.018 85.8594 112.693 85.8594ZM121.388 94.2125C120.657 94.2125 120.034 94.0625 119.518 93.7625C119.012 93.4625 118.623 93.0312 118.351 92.4687C118.079 91.9062 117.943 91.2359 117.943 90.4578V86.0562H119.771V90.1766C119.771 91.0016 119.959 91.6297 120.334 92.0609C120.718 92.4828 121.267 92.6937 121.979 92.6937C122.495 92.6937 122.935 92.5812 123.301 92.3562C123.676 92.1312 123.967 91.8125 124.173 91.4C124.379 90.9781 124.482 90.4906 124.482 89.9375L125.115 90.2891C125.04 91.1047 124.834 91.8078 124.496 92.3984C124.159 92.9797 123.723 93.4297 123.188 93.7484C122.654 94.0578 122.054 94.2125 121.388 94.2125ZM124.946 94.0156L124.482 91.1469V86.0562H126.31V91.4281L126.774 94.0156H124.946ZM136.596 91.5969C136.596 92.1312 136.446 92.5953 136.146 92.9891C135.846 93.3828 135.391 93.6875 134.782 93.9031C134.172 94.1094 133.408 94.2125 132.49 94.2125C131.543 94.2125 130.722 94.0953 130.029 93.8609C129.335 93.6172 128.796 93.2797 128.412 92.8484C128.037 92.4078 127.835 91.9016 127.807 91.3297H129.663C129.719 91.6297 129.869 91.8969 130.113 92.1312C130.366 92.3562 130.694 92.5297 131.097 92.6516C131.51 92.7734 131.979 92.8344 132.504 92.8344C133.263 92.8344 133.835 92.7453 134.219 92.5672C134.604 92.3797 134.796 92.0984 134.796 91.7234C134.796 91.4703 134.665 91.2781 134.402 91.1469C134.149 91.0156 133.666 90.9172 132.954 90.8516L131.393 90.7109C130.549 90.6359 129.883 90.4859 129.396 90.2609C128.908 90.0266 128.562 89.7453 128.355 89.4172C128.149 89.0797 128.046 88.7234 128.046 88.3484C128.046 87.8047 128.215 87.35 128.552 86.9844C128.89 86.6187 129.358 86.3422 129.958 86.1547C130.558 85.9578 131.257 85.8594 132.054 85.8594C132.879 85.8594 133.615 85.9766 134.262 86.2109C134.908 86.4359 135.424 86.7547 135.808 87.1672C136.193 87.5703 136.408 88.0391 136.455 88.5734H134.599C134.562 88.3578 134.449 88.1516 134.262 87.9547C134.083 87.7484 133.807 87.5797 133.432 87.4484C133.066 87.3078 132.574 87.2375 131.955 87.2375C131.299 87.2375 130.783 87.3219 130.408 87.4906C130.043 87.6594 129.86 87.9078 129.86 88.2359C129.86 88.4422 129.972 88.6203 130.197 88.7703C130.422 88.9109 130.84 89.0094 131.449 89.0656L133.46 89.2484C134.266 89.3234 134.894 89.4687 135.344 89.6844C135.804 89.8906 136.127 90.1578 136.315 90.4859C136.502 90.8141 136.596 91.1844 136.596 91.5969ZM137.67 95.9563L138.838 93.4391L138.936 94.1C138.72 94.1 138.523 94.0484 138.345 93.9453C138.177 93.8422 138.041 93.7062 137.938 93.5375C137.834 93.3594 137.783 93.1672 137.783 92.9609C137.783 92.7453 137.834 92.5531 137.938 92.3844C138.041 92.2156 138.177 92.0844 138.345 91.9906C138.523 91.8875 138.72 91.8359 138.936 91.8359C139.161 91.8359 139.358 91.8875 139.527 91.9906C139.705 92.0937 139.841 92.2344 139.934 92.4125C140.038 92.5906 140.089 92.7922 140.089 93.0172C140.089 93.2328 140.042 93.4625 139.948 93.7062C139.855 93.9406 139.691 94.25 139.456 94.6344L138.683 95.9563H137.67ZM152.425 94.0156L152.115 91.0625L152.481 90.0359L152.115 89.0234L152.425 86.0562H154.309L153.887 90.0359L154.309 94.0156H152.425ZM152.987 90.0359C152.809 90.8703 152.514 91.6016 152.101 92.2297C151.689 92.8578 151.178 93.3453 150.568 93.6922C149.968 94.0391 149.298 94.2125 148.557 94.2125C147.779 94.2125 147.09 94.0391 146.49 93.6922C145.89 93.3359 145.421 92.8437 145.084 92.2156C144.746 91.5875 144.578 90.8609 144.578 90.0359C144.578 89.2016 144.746 88.475 145.084 87.8562C145.421 87.2281 145.89 86.7406 146.49 86.3937C147.09 86.0375 147.779 85.8594 148.557 85.8594C149.298 85.8594 149.968 86.0328 150.568 86.3797C151.178 86.7266 151.689 87.2141 152.101 87.8422C152.523 88.4609 152.818 89.1922 152.987 90.0359ZM146.434 90.0359C146.434 90.5703 146.542 91.0437 146.757 91.4562C146.982 91.8594 147.287 92.1781 147.671 92.4125C148.056 92.6375 148.496 92.75 148.993 92.75C149.5 92.75 149.968 92.6375 150.4 92.4125C150.831 92.1781 151.21 91.8594 151.539 91.4562C151.876 91.0437 152.143 90.5703 152.34 90.0359C152.143 89.5016 151.876 89.0328 151.539 88.6297C151.21 88.2172 150.831 87.8984 150.4 87.6734C149.968 87.4391 149.5 87.3219 148.993 87.3219C148.496 87.3219 148.056 87.4391 147.671 87.6734C147.287 87.8984 146.982 88.2172 146.757 88.6297C146.542 89.0328 146.434 89.5016 146.434 90.0359ZM163.521 94.0156L163.212 90.9922L163.62 90.05L163.226 88.9672L163.817 83.1875H165.701L164.984 89.9234L165.392 94.0156H163.521ZM164.056 90.0359C163.878 90.8703 163.582 91.6016 163.17 92.2297C162.757 92.8578 162.246 93.3453 161.637 93.6922C161.037 94.0391 160.367 94.2125 159.626 94.2125C158.848 94.2125 158.159 94.0391 157.559 93.6922C156.959 93.3359 156.49 92.8437 156.153 92.2156C155.815 91.5875 155.646 90.8609 155.646 90.0359C155.646 89.2016 155.815 88.475 156.153 87.8562C156.49 87.2281 156.959 86.7406 157.559 86.3937C158.159 86.0375 158.848 85.8594 159.626 85.8594C160.367 85.8594 161.037 86.0328 161.637 86.3797C162.246 86.7266 162.757 87.2141 163.17 87.8422C163.592 88.4609 163.887 89.1922 164.056 90.0359ZM157.503 90.0359C157.503 90.5703 157.61 91.0437 157.826 91.4562C158.051 91.8594 158.356 92.1781 158.74 92.4125C159.125 92.6375 159.565 92.75 160.062 92.75C160.568 92.75 161.037 92.6375 161.468 92.4125C161.9 92.1781 162.279 91.8594 162.607 91.4562C162.945 91.0437 163.212 90.5703 163.409 90.0359C163.212 89.5016 162.945 89.0328 162.607 88.6297C162.279 88.2172 161.9 87.8984 161.468 87.6734C161.037 87.4391 160.568 87.3219 160.062 87.3219C159.565 87.3219 159.125 87.4391 158.74 87.6734C158.356 87.8984 158.051 88.2172 157.826 88.6297C157.61 89.0328 157.503 89.5016 157.503 90.0359ZM171.594 93.2H170.891L174.154 86.0562H176.109L172.227 94.0156H170.174L166.293 86.0562H168.304L171.594 93.2ZM181.109 94.2125C180.181 94.2125 179.356 94.0391 178.634 93.6922C177.912 93.3359 177.345 92.8437 176.933 92.2156C176.52 91.5875 176.314 90.8562 176.314 90.0219C176.314 89.1969 176.506 88.475 176.89 87.8562C177.284 87.2281 177.823 86.7406 178.508 86.3937C179.201 86.0375 179.993 85.8594 180.884 85.8594C181.775 85.8594 182.543 86.0609 183.19 86.4641C183.847 86.8578 184.353 87.4156 184.709 88.1375C185.065 88.8594 185.243 89.7078 185.243 90.6828H177.748V89.2906H184.329L183.415 89.8109C183.387 89.2859 183.261 88.8359 183.036 88.4609C182.82 88.0859 182.525 87.8 182.15 87.6031C181.784 87.3969 181.348 87.2937 180.842 87.2937C180.308 87.2937 179.839 87.4016 179.436 87.6172C179.042 87.8328 178.733 88.1375 178.508 88.5312C178.283 88.9156 178.17 89.375 178.17 89.9094C178.17 90.5 178.301 91.0109 178.564 91.4422C178.836 91.8734 179.215 92.2062 179.703 92.4406C180.2 92.6656 180.786 92.7781 181.461 92.7781C182.07 92.7781 182.693 92.6844 183.331 92.4969C183.968 92.3 184.531 92.0281 185.018 91.6812V93.0031C184.531 93.3781 183.936 93.6734 183.233 93.8891C182.539 94.1047 181.831 94.2125 181.109 94.2125ZM186.368 86.0562H188.196L188.674 88.925V94.0156H186.846V88.6578L186.368 86.0562ZM191.838 85.8594C192.588 85.8594 193.226 86.0094 193.751 86.3094C194.276 86.6094 194.674 87.0406 194.946 87.6031C195.227 88.1562 195.368 88.8266 195.368 89.6141V94.0156H193.54V89.9094C193.54 89.075 193.343 88.4469 192.949 88.025C192.565 87.5937 191.998 87.3781 191.248 87.3781C190.732 87.3781 190.277 87.4953 189.884 87.7297C189.499 87.9547 189.199 88.2734 188.984 88.6859C188.777 89.0984 188.674 89.5812 188.674 90.1344L188.027 89.7828C188.112 88.9578 188.327 88.2547 188.674 87.6734C189.021 87.0922 189.466 86.6469 190.01 86.3375C190.554 86.0187 191.163 85.8594 191.838 85.8594ZM196.188 87.4625V86.6328L197.89 86.1969L198.649 83.975H199.718V86.0562H203.417V87.4625H199.718V90.9078C199.718 91.5734 199.859 92.0422 200.14 92.3141C200.431 92.5766 200.899 92.7078 201.546 92.7078C201.959 92.7078 202.324 92.6656 202.643 92.5812C202.962 92.4875 203.267 92.3562 203.557 92.1875V93.6922C203.313 93.8141 202.967 93.9312 202.517 94.0438C202.076 94.1563 201.621 94.2125 201.153 94.2125C200.374 94.2125 199.746 94.0859 199.268 93.8328C198.79 93.5703 198.438 93.2141 198.213 92.7641C197.998 92.3047 197.89 91.7797 197.89 91.1891V87.4625H196.188ZM208.222 94.2125C207.49 94.2125 206.867 94.0625 206.351 93.7625C205.845 93.4625 205.456 93.0312 205.184 92.4687C204.912 91.9062 204.776 91.2359 204.776 90.4578V86.0562H206.604V90.1766C206.604 91.0016 206.792 91.6297 207.167 92.0609C207.551 92.4828 208.1 92.6937 208.812 92.6937C209.328 92.6937 209.768 92.5812 210.134 92.3562C210.509 92.1312 210.8 91.8125 211.006 91.4C211.212 90.9781 211.315 90.4906 211.315 89.9375L211.948 90.2891C211.873 91.1047 211.667 91.8078 211.329 92.3984C210.992 92.9797 210.556 93.4297 210.022 93.7484C209.487 94.0578 208.887 94.2125 208.222 94.2125ZM211.779 94.0156L211.315 91.1469V86.0562H213.143V91.4281L213.608 94.0156H211.779ZM214.809 86.0562H216.637L217.115 88.9531V94.0156H215.287V88.6016L214.809 86.0562ZM221.151 86V87.6031C220.945 87.5469 220.72 87.5047 220.476 87.4766C220.232 87.4484 220.003 87.4344 219.787 87.4344C219.271 87.4344 218.812 87.5469 218.409 87.7719C218.006 87.9969 217.687 88.3344 217.453 88.7844C217.228 89.225 217.115 89.7687 217.115 90.4156L216.693 89.8953C216.731 89.3328 216.824 88.8078 216.974 88.3203C217.134 87.8234 217.349 87.3922 217.621 87.0266C217.903 86.6609 218.245 86.375 218.648 86.1687C219.051 85.9625 219.52 85.8594 220.054 85.8594C220.242 85.8594 220.434 85.8734 220.631 85.9016C220.828 85.9203 221.001 85.9531 221.151 86ZM226.332 94.2125C225.403 94.2125 224.578 94.0391 223.857 93.6922C223.135 93.3359 222.567 92.8437 222.155 92.2156C221.742 91.5875 221.536 90.8562 221.536 90.0219C221.536 89.1969 221.728 88.475 222.113 87.8562C222.507 87.2281 223.046 86.7406 223.73 86.3937C224.424 86.0375 225.216 85.8594 226.107 85.8594C226.997 85.8594 227.766 86.0609 228.413 86.4641C229.069 86.8578 229.575 87.4156 229.932 88.1375C230.288 88.8594 230.466 89.7078 230.466 90.6828H222.971V89.2906H229.552L228.638 89.8109C228.61 89.2859 228.483 88.8359 228.258 88.4609C228.042 88.0859 227.747 87.8 227.372 87.6031C227.007 87.3969 226.571 87.2937 226.064 87.2937C225.53 87.2937 225.061 87.4016 224.658 87.6172C224.264 87.8328 223.955 88.1375 223.73 88.5312C223.505 88.9156 223.392 89.375 223.392 89.9094C223.392 90.5 223.524 91.0109 223.786 91.4422C224.058 91.8734 224.438 92.2062 224.925 92.4406C225.422 92.6656 226.008 92.7781 226.683 92.7781C227.292 92.7781 227.916 92.6844 228.553 92.4969C229.191 92.3 229.753 92.0281 230.241 91.6812V93.0031C229.753 93.3781 229.158 93.6734 228.455 93.8891C227.761 94.1047 227.053 94.2125 226.332 94.2125ZM232.814 94.1281C232.598 94.1281 232.401 94.0766 232.223 93.9734C232.054 93.8703 231.919 93.7344 231.815 93.5656C231.712 93.3875 231.661 93.1906 231.661 92.975C231.661 92.7594 231.712 92.5672 231.815 92.3984C231.919 92.2203 232.054 92.0797 232.223 91.9766C232.401 91.8734 232.598 91.8219 232.814 91.8219C233.029 91.8219 233.222 91.8734 233.39 91.9766C233.569 92.0797 233.709 92.2203 233.812 92.3984C233.915 92.5672 233.967 92.7594 233.967 92.975C233.967 93.1906 233.915 93.3875 233.812 93.5656C233.709 93.7344 233.569 93.8703 233.39 93.9734C233.222 94.0766 233.029 94.1281 232.814 94.1281Z" fill="#141414"/>
<g clip-path="url(#clip0_609_11)">
<path d="M70.1419 22.5696C72.9332 22.5696 75.5445 24.9108 76.8052 27.2519C79.3264 31.8442 77.7957 38.8677 72.393 48.0523C67.7106 55.7961 62.0378 62.1893 56.0949 67.682C56.0949 68.1323 56.0949 68.6725 56.1849 69.1228C56.455 73.8951 56.9953 78.2173 57.6256 81.8191C57.9858 84.6105 58.436 87.0417 58.7962 88.9326C59.5166 91.8141 60.2369 94.5154 61.0473 97.0366C61.0473 97.1267 60.9573 97.3068 60.8672 97.3068C60.7772 97.3068 60.5971 97.3068 60.5971 97.1267C59.7867 94.4254 59.0663 91.8141 58.436 89.2028C57.8958 87.3118 57.2654 84.8806 56.5451 81.9992C55.7347 78.3974 54.9243 74.0752 54.384 69.3028C54.384 69.2128 54.384 69.2128 54.384 69.2128C52.0428 71.3739 49.6116 73.3549 47.1804 75.2458C47.1804 75.5159 47.1804 75.7861 47.0904 76.1463C46.9103 78.5775 46.5501 81.0087 46.0098 83.2598C45.4696 85.601 44.7492 87.762 43.9388 89.743C43.7587 90.1932 43.4886 90.7335 43.3085 91.1837C43.0384 91.634 42.8583 92.1742 42.5881 92.6245C42.1379 93.5249 41.6877 94.3353 41.2375 95.2358C40.337 96.8566 39.3465 98.3873 38.4461 99.738C36.9153 101.899 35.4746 103.61 34.1239 104.781C32.323 106.581 30.3421 107.842 28.271 107.842C28.0909 107.842 27.9108 107.842 27.7308 107.842C24.7593 107.482 21.6977 104.33 21.0674 101.089C19.8969 94.8756 27.2805 89.4729 37.5456 81.9091C39.9768 80.1983 42.4081 78.3073 45.0194 76.3263C45.0194 76.2363 45.0194 76.0562 45.0194 75.9662C45.4696 71.1938 45.1994 66.6015 44.7492 62.3694C44.5691 60.2984 44.299 58.3174 43.9388 56.5165C43.6687 54.6255 43.3085 53.0047 42.9483 51.3839C42.4081 48.8627 41.8678 46.7916 41.4176 45.0808C40.6072 42.7396 39.7968 40.4885 38.8963 38.3274C38.8963 38.2374 38.8963 38.0573 39.0764 38.0573C39.1664 37.9673 39.2565 38.0573 39.3465 38.1473C40.1569 40.3084 41.0574 42.5595 41.7777 44.9908C42.4081 46.5215 43.2185 48.5925 43.9388 51.1138C44.4791 52.6446 44.9293 54.3554 45.3795 56.2464C45.8298 58.0472 46.1899 60.0282 46.5501 62.1893C47.0904 65.9712 47.4506 70.2033 47.1804 74.6155C49.6116 72.7246 51.9528 70.7436 54.384 68.6725C53.8437 63.9902 53.7537 58.8577 54.2039 53.455C54.7442 47.7821 56.0048 42.4695 57.8057 37.9673C59.6066 33.465 61.4976 29.413 63.8387 26.4415C64.9193 25.0008 66.2699 23.8302 67.6206 23.1999C68.341 22.8397 69.0613 22.6596 69.6916 22.5696C69.8717 22.5696 69.9618 22.5696 70.1419 22.5696ZM28.271 107.392C29.9819 107.392 31.8728 106.491 33.7638 104.6C34.9343 103.34 36.195 101.449 37.5456 99.1077C38.356 97.757 39.1664 96.2262 39.9768 94.5154C40.337 93.705 40.7872 92.8045 41.1474 91.9041C41.3275 91.4539 41.5977 91.0036 41.7777 90.5534C41.9578 90.1032 42.1379 89.5629 42.318 89.1127C43.5786 85.5109 44.4791 81.3689 44.9293 76.9567C42.4981 78.8476 40.0669 80.5585 37.8158 82.2693C27.7308 89.653 20.3471 95.0557 21.5177 100.999C22.0579 104.06 25.0294 107.032 27.8208 107.392C27.9108 107.392 28.0909 107.392 28.271 107.392ZM71.9428 47.7821C77.3454 38.7777 78.8762 31.9343 76.445 27.5221C75.2744 25.361 72.8432 23.0198 70.2319 23.0198C70.0518 23.0198 69.8717 23.0198 69.6916 23.1099C69.1514 23.1999 68.521 23.38 67.9808 23.7402C66.7202 24.4605 65.6396 25.6311 64.6491 27.0718C63.6586 28.5126 62.7582 30.3134 61.8577 32.2044C61.0473 34.1854 60.2369 36.2564 59.4265 38.5976C57.8958 43.0098 56.8152 48.1423 56.275 53.6351C55.8247 58.3174 55.8247 62.9097 56.0949 67.1418C61.8577 61.649 67.4405 55.4359 71.9428 47.7821Z" fill="#141414"/>
<path d="M69.759 21.9951C72.5504 21.9951 75.1617 24.3363 76.4224 26.6775C78.9436 31.2697 77.4129 38.2932 72.0102 47.4778C67.3278 55.2217 61.655 61.6148 55.7121 67.1076C55.7121 67.5578 55.7121 68.0981 55.8021 68.5483C56.0722 73.3207 56.6125 77.6428 57.2428 81.2446C57.603 84.036 58.0532 86.4672 58.4134 88.3582C59.1338 91.2396 59.8541 93.9409 60.6645 96.4622C60.6645 96.5522 60.5745 96.7323 60.4844 96.7323C60.3944 96.7323 60.2143 96.7323 60.2143 96.5522C59.4039 93.8509 58.6835 91.2396 58.0532 88.6283C57.5129 86.7373 56.8826 84.3061 56.1623 81.4247C55.3519 77.8229 54.5415 73.5008 54.0012 68.7284C54.0012 68.6383 54.0012 68.6383 54.0012 68.6383C51.66 70.7994 49.2288 72.7804 46.7976 74.6713C46.7976 74.9415 46.7976 75.2116 46.7076 75.5718C46.5275 78.003 46.1673 80.4342 45.627 82.6853C45.0868 85.0265 44.3664 87.1876 43.556 89.1686C43.3759 89.6188 43.1058 90.1591 42.9257 90.6093C42.6556 91.0595 42.4755 91.5998 42.2053 92.05C41.7551 92.9504 41.3049 93.7608 40.8547 94.6613C39.9542 96.2821 38.9637 97.8129 38.0633 99.1635C36.5325 101.325 35.0918 103.035 33.7411 104.206C31.9402 106.007 29.9592 107.268 27.8882 107.268C27.7081 107.268 27.528 107.268 27.3479 107.268C24.3765 106.907 21.3149 103.756 20.6846 100.514C19.514 94.3011 26.8977 88.8984 37.1628 81.3347C39.594 79.6238 42.0252 77.7329 44.6365 75.7519C44.6365 75.6618 44.6365 75.4817 44.6365 75.3917C45.0868 70.6193 44.8166 66.027 44.3664 61.7949C44.1863 59.7239 43.9162 57.7429 43.556 55.942C43.2859 54.0511 42.9257 52.4303 42.5655 50.8095C42.0252 48.2882 41.485 46.2172 41.0347 44.5063C40.2243 42.1652 39.4139 39.9141 38.5135 37.753C38.5135 37.6629 38.5135 37.4828 38.6936 37.4828C38.7836 37.3928 38.8737 37.4828 38.9637 37.5729C39.7741 39.734 40.6746 41.9851 41.3949 44.4163C42.0252 45.9471 42.8356 48.0181 43.556 50.5393C44.0963 52.0701 44.5465 53.7809 44.9967 55.6719C45.4469 57.4728 45.8071 59.4538 46.1673 61.6148C46.7076 65.3967 47.0678 69.6288 46.7976 74.041C49.2288 72.1501 51.57 70.1691 54.0012 68.0981C53.4609 63.4157 53.3709 58.2832 53.8211 52.8805C54.3614 47.2077 55.622 41.895 57.4229 37.3928C59.2238 32.8906 61.1147 28.8385 63.4559 25.8671C64.5364 24.4263 65.8871 23.2558 67.2378 22.6254C67.9581 22.2653 68.6785 22.0852 69.3088 21.9951C69.4889 21.9951 69.579 21.9951 69.759 21.9951ZM27.8882 106.817C29.5991 106.817 31.49 105.917 33.3809 104.026C34.5515 102.765 35.8122 100.874 37.1628 98.5332C37.9732 97.1825 38.7836 95.6518 39.594 93.9409C39.9542 93.1305 40.4044 92.2301 40.7646 91.3296C40.9447 90.8794 41.2148 90.4292 41.3949 89.979C41.575 89.5287 41.7551 88.9885 41.9352 88.5382C43.1958 84.9365 44.0963 80.7944 44.5465 76.3822C42.1153 78.2731 39.6841 79.984 37.433 81.6948C27.3479 89.0785 19.9643 94.4812 21.1348 100.424C21.6751 103.486 24.6466 106.457 27.438 106.817C27.528 106.817 27.7081 106.817 27.8882 106.817ZM71.5599 47.2077C76.9626 38.2032 78.4934 31.3598 76.0622 26.9476C74.8916 24.7865 72.4604 22.4454 69.8491 22.4454C69.669 22.4454 69.4889 22.4454 69.3088 22.5354C68.7685 22.6254 68.1382 22.8055 67.598 23.1657C66.3373 23.8861 65.2568 25.0567 64.2663 26.4974C63.2758 27.9381 62.3754 29.739 61.4749 31.6299C60.6645 33.6109 59.8541 35.6819 59.0437 38.0231C57.5129 42.4353 56.4324 47.5679 55.8921 53.0606C55.4419 57.7429 55.4419 62.3352 55.7121 66.5673C61.4749 61.0746 67.0577 54.8615 71.5599 47.2077Z" fill="#141414"/>
<path d="M70.5208 24.8672C73.3121 24.8672 75.9234 27.2084 77.1841 29.5495C79.7053 34.1418 78.1746 41.1653 72.7719 50.3499C68.0895 58.0937 62.4167 64.4869 56.4738 69.9797C56.4738 70.4299 56.4738 70.9701 56.5638 71.4204C56.834 76.1927 57.3742 80.5149 58.0045 84.1167C58.3647 86.9081 58.8149 89.3393 59.1751 91.2302C59.8955 94.1117 60.6158 96.813 61.4262 99.3343C61.4262 99.4243 61.3362 99.6044 61.2461 99.6044C61.1561 99.6044 60.976 99.6044 60.976 99.4243C60.1656 96.723 59.4452 94.1117 58.8149 91.5004C58.2747 89.6094 57.6444 87.1782 56.924 84.2968C56.1136 80.695 55.3032 76.3728 54.7629 71.6005C54.7629 71.5104 54.7629 71.5104 54.7629 71.5104C52.4218 73.6715 49.9905 75.6525 47.5593 77.5434C47.5593 77.8135 47.5593 78.0837 47.4693 78.4439C47.2892 80.8751 46.929 83.3063 46.3888 85.5574C45.8485 87.8986 45.1281 90.0596 44.3177 92.0406C44.1376 92.4909 43.8675 93.0311 43.6874 93.4813C43.4173 93.9316 43.2372 94.4718 42.9671 94.9221C42.5168 95.8225 42.0666 96.6329 41.6164 97.5334C40.7159 99.1542 39.7254 100.685 38.825 102.036C37.2942 104.197 35.8535 105.908 34.5028 107.078C32.7019 108.879 30.721 110.14 28.6499 110.14C28.4698 110.14 28.2897 110.14 28.1097 110.14C25.1382 109.779 22.0767 106.628 21.4463 103.386C20.2758 97.1732 27.6594 91.7705 37.9245 84.2067C40.3558 82.4959 42.787 80.6049 45.3983 78.624C45.3983 78.5339 45.3983 78.3538 45.3983 78.2638C45.8485 73.4914 45.5783 68.8991 45.1281 64.667C44.948 62.596 44.6779 60.615 44.3177 58.8141C44.0476 56.9232 43.6874 55.3023 43.3272 53.6815C42.787 51.1603 42.2467 49.0893 41.7965 47.3784C40.9861 45.0372 40.1757 42.7861 39.2752 40.625C39.2752 40.535 39.2752 40.3549 39.4553 40.3549C39.5453 40.2649 39.6354 40.3549 39.7254 40.445C40.5358 42.606 41.4363 44.8571 42.1566 47.2884C42.787 48.8191 43.5974 50.8902 44.3177 53.4114C44.858 54.9422 45.3082 56.653 45.7584 58.544C46.2087 60.3449 46.5688 62.3258 46.929 64.4869C47.4693 68.2688 47.8295 72.5009 47.5593 76.9131C49.9905 75.0222 52.3317 73.0412 54.7629 70.9701C54.2227 66.2878 54.1326 61.1553 54.5828 55.7526C55.1231 50.0798 56.3837 44.7671 58.1846 40.2649C59.9855 35.7626 61.8765 31.7106 64.2176 28.7391C65.2982 27.2984 66.6488 26.1278 67.9995 25.4975C68.7199 25.1373 69.4402 24.9572 70.0705 24.8672C70.2506 24.8672 70.3407 24.8672 70.5208 24.8672ZM28.6499 109.689C30.3608 109.689 32.2517 108.789 34.1427 106.898C35.3132 105.637 36.5739 103.746 37.9245 101.405C38.7349 100.055 39.5453 98.5239 40.3558 96.813C40.7159 96.0026 41.1662 95.1022 41.5263 94.2017C41.7064 93.7515 41.9766 93.3013 42.1566 92.851C42.3367 92.4008 42.5168 91.8605 42.6969 91.4103C43.9575 87.8085 44.858 83.6665 45.3082 79.2543C42.877 81.1452 40.4458 82.8561 38.1947 84.5669C28.1097 91.9506 20.726 97.3533 21.8966 103.296C22.4368 106.358 25.4083 109.329 28.1997 109.689C28.2897 109.689 28.4698 109.689 28.6499 109.689ZM72.3217 50.0798C77.7243 41.0753 79.2551 34.2319 76.8239 29.8197C75.6533 27.6586 73.2221 25.3174 70.6108 25.3174C70.4307 25.3174 70.2506 25.3174 70.0705 25.4075C69.5303 25.4975 68.9 25.6776 68.3597 26.0378C67.0991 26.7581 66.0185 27.9287 65.028 29.3694C64.0375 30.8102 63.1371 32.6111 62.2366 34.502C61.4262 36.483 60.6158 38.554 59.8054 40.8952C58.2747 45.3074 57.1941 50.4399 56.6539 55.9327C56.2036 60.615 56.2036 65.2073 56.4738 69.4394C62.2366 63.9466 67.8194 57.7336 72.3217 50.0798Z" fill="#141414"/>
<path d="M68.9993 23.1439C71.7907 23.1439 74.402 25.4851 75.6626 27.8263C78.1838 32.4186 76.6531 39.442 71.2504 48.6266C66.5681 56.3705 60.8952 62.7637 54.9523 68.2564C54.9523 68.7066 54.9523 69.2469 55.0423 69.6971C55.3125 74.4695 55.8527 78.7916 56.483 82.3934C56.8432 85.1848 57.2935 87.616 57.6536 89.507C58.374 92.3884 59.0943 95.0897 59.9048 97.611C59.9048 97.701 59.8147 97.8811 59.7247 97.8811C59.6346 97.8811 59.4545 97.8811 59.4545 97.701C58.6441 94.9997 57.9238 92.3884 57.2935 89.7771C56.7532 87.8862 56.1229 85.4549 55.4025 82.5735C54.5921 78.9717 53.7817 74.6496 53.2414 69.8772C53.2414 69.7871 53.2414 69.7871 53.2414 69.7871C50.9003 71.9482 48.4691 73.9292 46.0379 75.8201C46.0379 76.0903 46.0379 76.3604 45.9478 76.7206C45.7677 79.1518 45.4075 81.583 44.8673 83.8341C44.327 86.1753 43.6066 88.3364 42.7962 90.3174C42.6161 90.7676 42.346 91.3079 42.1659 91.7581C41.8958 92.2083 41.7157 92.7486 41.4456 93.1988C40.9953 94.0992 40.5451 94.9096 40.0949 95.8101C39.1944 97.4309 38.204 98.9617 37.3035 100.312C35.7727 102.473 34.332 104.184 32.9814 105.355C31.1805 107.156 29.1995 108.416 27.1284 108.416C26.9484 108.416 26.7683 108.416 26.5882 108.416C23.6167 108.056 20.5552 104.905 19.9249 101.663C18.7543 95.4499 26.1379 90.0472 36.4031 82.4835C38.8343 80.7726 41.2655 78.8817 43.8768 76.9007C43.8768 76.8106 43.8768 76.6306 43.8768 76.5405C44.327 71.7681 44.0569 67.1758 43.6066 62.9437C43.4266 60.8727 43.1564 58.8917 42.7962 57.0908C42.5261 55.1999 42.1659 53.5791 41.8057 51.9583C41.2655 49.437 40.7252 47.366 40.275 45.6551C39.4646 43.314 38.6542 41.0629 37.7537 38.9018C37.7537 38.8117 37.7537 38.6316 37.9338 38.6316C38.0239 38.5416 38.1139 38.6316 38.204 38.7217C39.0144 40.8828 39.9148 43.1339 40.6352 45.5651C41.2655 47.0959 42.0759 49.1669 42.7962 51.6881C43.3365 53.2189 43.7867 54.9298 44.237 56.8207C44.6872 58.6216 45.0474 60.6026 45.4075 62.7637C45.9478 66.5455 46.308 70.7776 46.0379 75.1898C48.4691 73.2989 50.8102 71.3179 53.2414 69.2469C52.7012 64.5645 52.6111 59.432 53.0613 54.0293C53.6016 48.3565 54.8622 43.0438 56.6631 38.5416C58.464 34.0394 60.355 29.9873 62.6961 27.0159C63.7767 25.5751 65.1274 24.4046 66.478 23.7743C67.1984 23.4141 67.9187 23.234 68.5491 23.1439C68.7291 23.1439 68.8192 23.1439 68.9993 23.1439ZM27.1284 107.966C28.8393 107.966 30.7302 107.066 32.6212 105.175C33.7918 103.914 35.0524 102.023 36.4031 99.682C37.2135 98.3313 38.0239 96.8006 38.8343 95.0897C39.1944 94.2793 39.6447 93.3789 40.0048 92.4784C40.1849 92.0282 40.4551 91.578 40.6352 91.1278C40.8153 90.6775 40.9953 90.1373 41.1754 89.687C42.4361 86.0853 43.3365 81.9432 43.7867 77.531C41.3555 79.4219 38.9243 81.1328 36.6732 82.8436C26.5882 90.2273 19.2045 95.63 20.3751 101.573C20.9154 104.634 23.8868 107.606 26.6782 107.966C26.7683 107.966 26.9484 107.966 27.1284 107.966ZM70.8002 48.3565C76.2029 39.352 77.7336 32.5086 75.3024 28.0964C74.1318 25.9353 71.7006 23.5942 69.0893 23.5942C68.9092 23.5942 68.7291 23.5942 68.5491 23.6842C68.0088 23.7743 67.3785 23.9543 66.8382 24.3145C65.5776 25.0349 64.497 26.2055 63.5065 27.6462C62.5161 29.0869 61.6156 30.8878 60.7152 32.7787C59.9048 34.7597 59.0943 36.8307 58.2839 39.1719C56.7532 43.5841 55.6726 48.7167 55.1324 54.2094C54.6822 58.8917 54.6822 63.484 54.9523 67.7161C60.7152 62.2234 66.2979 56.0103 70.8002 48.3565Z" fill="#141414"/>
</g>
<defs>
<clipPath id="clip0_609_11">
<rect width="95.6726" height="95.6726" fill="white" transform="translate(0 19)"/>
</clipPath>
</defs>
</svg>
