<svg width="399" height="134" viewBox="0 0 399 134" fill="none" xmlns="http://www.w3.org/2000/svg">
<path d="M97.4531 41.2656H102.628V60.0156H97.4531V41.2656ZM112.203 41.2656H117.403V60.0156H112.203V41.2656ZM100.353 48.1906H114.353V52.7906H100.353V48.1906ZM126.544 60.4156C125.211 60.4156 124.069 60.1406 123.119 59.5906C122.186 59.0406 121.469 58.2656 120.969 57.2656C120.469 56.249 120.219 55.0656 120.219 53.7156V45.7406H125.319V52.9906C125.319 54.0406 125.577 54.849 126.094 55.4156C126.611 55.9823 127.352 56.2656 128.319 56.2656C129.036 56.2656 129.636 56.124 130.119 55.8406C130.602 55.5406 130.977 55.1156 131.244 54.5656C131.511 54.0156 131.644 53.3573 131.644 52.5906L133.219 53.4156C133.036 54.9323 132.619 56.2156 131.969 57.2656C131.336 58.299 130.552 59.0823 129.619 59.6156C128.686 60.149 127.661 60.4156 126.544 60.4156ZM132.569 60.0156L131.644 54.2906V45.7406H136.744V55.0906L137.669 60.0156H132.569ZM145.929 60.4156C144.596 60.4156 143.454 60.1406 142.504 59.5906C141.571 59.0406 140.854 58.2656 140.354 57.2656C139.854 56.249 139.604 55.0656 139.604 53.7156V45.7406H144.704V52.9906C144.704 54.0406 144.962 54.849 145.479 55.4156C145.996 55.9823 146.737 56.2656 147.704 56.2656C148.421 56.2656 149.021 56.124 149.504 55.8406C149.987 55.5406 150.362 55.1156 150.629 54.5656C150.896 54.0156 151.029 53.3573 151.029 52.5906L152.604 53.4156C152.421 54.9323 152.004 56.2156 151.354 57.2656C150.721 58.299 149.937 59.0823 149.004 59.6156C148.071 60.149 147.046 60.4156 145.929 60.4156ZM151.954 60.0156L151.029 54.2906V45.7406H156.129V55.0906L157.054 60.0156H151.954ZM171.614 56.4156V53.9906L171.789 53.3906V49.8906L171.614 49.3656V45.7406H176.714V56.2156C176.714 57.9656 176.306 59.4656 175.489 60.7156C174.673 61.9656 173.531 62.9156 172.064 63.5656C170.614 64.2156 168.898 64.5406 166.914 64.5406C165.598 64.5406 164.373 64.3656 163.239 64.0156C162.123 63.6823 161.006 63.1823 159.889 62.5156V58.6656C160.923 59.4323 162.006 59.9823 163.139 60.3156C164.289 60.6656 165.439 60.8406 166.589 60.8406C168.223 60.8406 169.464 60.4906 170.314 59.7906C171.181 59.0906 171.614 57.9656 171.614 56.4156ZM165.489 58.5156C164.139 58.5156 162.939 58.2406 161.889 57.6906C160.839 57.1406 160.006 56.374 159.389 55.3906C158.789 54.3906 158.489 53.2323 158.489 51.9156C158.489 50.5823 158.789 49.424 159.389 48.4406C160.006 47.4573 160.839 46.6906 161.889 46.1406C162.939 45.5906 164.139 45.3156 165.489 45.3156C166.489 45.3156 167.406 45.474 168.239 45.7906C169.073 46.0906 169.814 46.499 170.464 47.0156C171.114 47.5156 171.656 48.0656 172.089 48.6656C172.539 49.249 172.881 49.8323 173.114 50.4156C173.348 50.999 173.464 51.5156 173.464 51.9656C173.464 52.5823 173.281 53.2656 172.914 54.0156C172.564 54.7656 172.048 55.4823 171.364 56.1656C170.681 56.849 169.839 57.4156 168.839 57.8656C167.856 58.299 166.739 58.5156 165.489 58.5156ZM167.214 55.0406C168.198 55.0406 169.073 54.7823 169.839 54.2656C170.606 53.749 171.256 52.9656 171.789 51.9156C171.239 50.849 170.581 50.0656 169.814 49.5656C169.048 49.049 168.181 48.7906 167.214 48.7906C166.481 48.7906 165.839 48.9156 165.289 49.1656C164.756 49.4156 164.348 49.7823 164.064 50.2656C163.781 50.7323 163.639 51.2823 163.639 51.9156C163.639 52.5323 163.781 53.0823 164.064 53.5656C164.348 54.0323 164.756 54.399 165.289 54.6656C165.823 54.9156 166.464 55.0406 167.214 55.0406ZM187.976 60.4156C186.143 60.4156 184.543 60.1073 183.176 59.4906C181.81 58.8573 180.743 57.974 179.976 56.8406C179.21 55.6906 178.826 54.374 178.826 52.8906C178.826 51.374 179.21 50.049 179.976 48.9156C180.743 47.7823 181.81 46.899 183.176 46.2656C184.543 45.6323 186.143 45.3156 187.976 45.3156C189.793 45.3156 191.385 45.6323 192.751 46.2656C194.135 46.899 195.21 47.7823 195.976 48.9156C196.743 50.049 197.126 51.374 197.126 52.8906C197.126 54.374 196.743 55.6906 195.976 56.8406C195.21 57.974 194.135 58.8573 192.751 59.4906C191.385 60.1073 189.793 60.4156 187.976 60.4156ZM187.976 56.6406C188.81 56.6406 189.518 56.4906 190.101 56.1906C190.701 55.8906 191.16 55.4573 191.476 54.8906C191.793 54.324 191.951 53.6573 191.951 52.8906C191.951 52.0906 191.793 51.4156 191.476 50.8656C191.16 50.299 190.701 49.8656 190.101 49.5656C189.518 49.2656 188.81 49.1156 187.976 49.1156C187.143 49.1156 186.426 49.2656 185.826 49.5656C185.226 49.8656 184.768 50.299 184.451 50.8656C184.135 51.4156 183.976 52.0823 183.976 52.8656C183.976 53.649 184.135 54.324 184.451 54.8906C184.768 55.4573 185.226 55.8906 185.826 56.1906C186.426 56.4906 187.143 56.6406 187.976 56.6406ZM228.692 57.8156H227.067L231.742 41.2656H237.217L231.517 60.0156H224.842L219.417 44.0156H221.542L216.092 60.0156H209.442L203.717 41.2656H209.217L213.892 57.8156L212.292 57.7906L217.742 41.2656H223.217L228.692 57.8156ZM250.311 60.0156L249.661 54.8656L250.336 52.8906L249.661 50.9156L250.311 45.7406H255.611L254.711 52.8656L255.611 60.0156H250.311ZM251.511 52.8906C251.277 54.3906 250.811 55.7073 250.111 56.8406C249.427 57.974 248.552 58.8573 247.486 59.4906C246.436 60.1073 245.236 60.4156 243.886 60.4156C242.486 60.4156 241.252 60.1073 240.186 59.4906C239.136 58.8573 238.311 57.974 237.711 56.8406C237.111 55.6906 236.811 54.374 236.811 52.8906C236.811 51.374 237.111 50.049 237.711 48.9156C238.311 47.7823 239.136 46.899 240.186 46.2656C241.252 45.6323 242.486 45.3156 243.886 45.3156C245.236 45.3156 246.436 45.6323 247.486 46.2656C248.552 46.8823 249.436 47.7573 250.136 48.8906C250.836 50.0073 251.294 51.3406 251.511 52.8906ZM241.986 52.8906C241.986 53.5906 242.127 54.2156 242.411 54.7656C242.711 55.3156 243.119 55.749 243.636 56.0656C244.152 56.3656 244.744 56.5156 245.411 56.5156C246.111 56.5156 246.769 56.3656 247.386 56.0656C248.002 55.749 248.544 55.3156 249.011 54.7656C249.477 54.2156 249.827 53.5906 250.061 52.8906C249.827 52.174 249.477 51.5406 249.011 50.9906C248.544 50.4406 248.002 50.0073 247.386 49.6906C246.769 49.374 246.111 49.2156 245.411 49.2156C244.744 49.2156 244.152 49.374 243.636 49.6906C243.119 50.0073 242.711 50.4406 242.411 50.9906C242.127 51.5406 241.986 52.174 241.986 52.8906ZM258.065 40.7656H263.19V60.0156H258.065V40.7656ZM268.415 45.3156C269.798 45.3156 270.965 45.5906 271.915 46.1406C272.882 46.6906 273.623 47.4656 274.14 48.4656C274.657 49.4656 274.915 50.649 274.915 52.0156V60.0156H269.79V52.7656C269.79 51.699 269.515 50.8823 268.965 50.3156C268.432 49.749 267.657 49.4656 266.64 49.4656C265.94 49.4656 265.323 49.6156 264.79 49.9156C264.273 50.2156 263.873 50.6406 263.59 51.1906C263.323 51.7406 263.19 52.3906 263.19 53.1406L261.59 52.3156C261.79 50.799 262.215 49.524 262.865 48.4906C263.515 47.4406 264.315 46.649 265.265 46.1156C266.232 45.5823 267.282 45.3156 268.415 45.3156ZM290.447 60.0156L289.797 54.8656L290.472 52.8906L289.797 50.9156L290.447 45.7406H295.747L294.847 52.8656L295.747 60.0156H290.447ZM291.647 52.8906C291.414 54.3906 290.947 55.7073 290.247 56.8406C289.564 57.974 288.689 58.8573 287.622 59.4906C286.572 60.1073 285.372 60.4156 284.022 60.4156C282.622 60.4156 281.389 60.1073 280.322 59.4906C279.272 58.8573 278.447 57.974 277.847 56.8406C277.247 55.6906 276.947 54.374 276.947 52.8906C276.947 51.374 277.247 50.049 277.847 48.9156C278.447 47.7823 279.272 46.899 280.322 46.2656C281.389 45.6323 282.622 45.3156 284.022 45.3156C285.372 45.3156 286.572 45.6323 287.622 46.2656C288.689 46.8823 289.572 47.7573 290.272 48.8906C290.972 50.0073 291.431 51.3406 291.647 52.8906ZM282.122 52.8906C282.122 53.5906 282.264 54.2156 282.547 54.7656C282.847 55.3156 283.256 55.749 283.772 56.0656C284.289 56.3656 284.881 56.5156 285.547 56.5156C286.247 56.5156 286.906 56.3656 287.522 56.0656C288.139 55.749 288.681 55.3156 289.147 54.7656C289.614 54.2156 289.964 53.5906 290.197 52.8906C289.964 52.174 289.614 51.5406 289.147 50.9906C288.681 50.4406 288.139 50.0073 287.522 49.6906C286.906 49.374 286.247 49.2156 285.547 49.2156C284.881 49.2156 284.289 49.374 283.772 49.6906C283.256 50.0073 282.847 50.4406 282.547 50.9906C282.264 51.5406 282.122 52.174 282.122 52.8906ZM298.202 40.7656H303.327V60.0156H298.202V40.7656ZM319.036 60.0156L318.386 54.8656L319.061 52.8906L318.386 50.9156L319.036 45.7406H324.336L323.436 52.8656L324.336 60.0156H319.036ZM320.236 52.8906C320.003 54.3906 319.536 55.7073 318.836 56.8406C318.153 57.974 317.278 58.8573 316.211 59.4906C315.161 60.1073 313.961 60.4156 312.611 60.4156C311.211 60.4156 309.978 60.1073 308.911 59.4906C307.861 58.8573 307.036 57.974 306.436 56.8406C305.836 55.6906 305.536 54.374 305.536 52.8906C305.536 51.374 305.836 50.049 306.436 48.9156C307.036 47.7823 307.861 46.899 308.911 46.2656C309.978 45.6323 311.211 45.3156 312.611 45.3156C313.961 45.3156 315.161 45.6323 316.211 46.2656C317.278 46.8823 318.161 47.7573 318.861 48.8906C319.561 50.0073 320.02 51.3406 320.236 52.8906ZM310.711 52.8906C310.711 53.5906 310.853 54.2156 311.136 54.7656C311.436 55.3156 311.845 55.749 312.361 56.0656C312.878 56.3656 313.47 56.5156 314.136 56.5156C314.836 56.5156 315.495 56.3656 316.111 56.0656C316.728 55.749 317.27 55.3156 317.736 54.7656C318.203 54.2156 318.553 53.5906 318.786 52.8906C318.553 52.174 318.203 51.5406 317.736 50.9906C317.27 50.4406 316.728 50.0073 316.111 49.6906C315.495 49.374 314.836 49.2156 314.136 49.2156C313.47 49.2156 312.878 49.374 312.361 49.6906C311.845 50.0073 311.436 50.4406 311.136 50.9906C310.853 51.5406 310.711 52.174 310.711 52.8906ZM326.791 40.7656H331.916V60.0156H326.791V40.7656ZM337.141 45.3156C338.524 45.3156 339.691 45.5906 340.641 46.1406C341.607 46.6906 342.349 47.4656 342.866 48.4656C343.382 49.4656 343.641 50.649 343.641 52.0156V60.0156H338.516V52.7656C338.516 51.699 338.241 50.8823 337.691 50.3156C337.157 49.749 336.382 49.4656 335.366 49.4656C334.666 49.4656 334.049 49.6156 333.516 49.9156C332.999 50.2156 332.599 50.6406 332.316 51.1906C332.049 51.7406 331.916 52.3906 331.916 53.1406L330.316 52.3156C330.516 50.799 330.941 49.524 331.591 48.4906C332.241 47.4406 333.041 46.649 333.991 46.1156C334.957 45.5823 336.007 45.3156 337.141 45.3156ZM344.803 49.5156V47.2906L347.703 46.1156L349.903 41.8906H352.803V45.7406H358.803V49.5156H352.803V53.7156C352.803 54.749 353.012 55.474 353.428 55.8906C353.845 56.3073 354.603 56.5156 355.703 56.5156C356.403 56.5156 357.02 56.4573 357.553 56.3406C358.103 56.2073 358.603 56.0406 359.053 55.8406V59.6906C358.553 59.874 357.895 60.0406 357.078 60.1906C356.262 60.3406 355.42 60.4156 354.553 60.4156C352.97 60.4156 351.67 60.174 350.653 59.6906C349.653 59.2073 348.912 58.5156 348.428 57.6156C347.945 56.699 347.703 55.6323 347.703 54.4156V49.5156H344.803ZM361.117 45.5156L363.692 46.0156L366.242 45.5156V60.0156H361.117V45.5156ZM363.667 44.3406C362.783 44.3406 362.067 44.124 361.517 43.6906C360.967 43.2406 360.692 42.6323 360.692 41.8656C360.692 41.1156 360.967 40.5156 361.517 40.0656C362.067 39.6156 362.783 39.3906 363.667 39.3906C364.583 39.3906 365.308 39.6156 365.842 40.0656C366.392 40.5156 366.667 41.1156 366.667 41.8656C366.667 42.6323 366.392 43.2406 365.842 43.6906C365.308 44.124 364.583 44.3406 363.667 44.3406ZM98.7406 66.4687V76.1859L97.9109 75.3844H105.856V77.0156H96.8844V66.4687H98.7406ZM107.056 69L107.97 69.1687L108.884 69V77.0156H107.056V69ZM107.97 68.0016C107.623 68.0016 107.337 67.9078 107.112 67.7203C106.887 67.5234 106.774 67.2703 106.774 66.9609C106.774 66.6516 106.887 66.4031 107.112 66.2156C107.337 66.0187 107.623 65.9203 107.97 65.9203C108.326 65.9203 108.612 66.0187 108.827 66.2156C109.052 66.4031 109.165 66.6516 109.165 66.9609C109.165 67.2703 109.052 67.5234 108.827 67.7203C108.612 67.9078 108.326 68.0016 107.97 68.0016ZM115.262 76.2H114.559L117.821 69.0562H119.776L115.895 77.0156H113.842L109.961 69.0562H111.971L115.262 76.2ZM124.777 77.2125C123.849 77.2125 123.024 77.0391 122.302 76.6922C121.58 76.3359 121.013 75.8437 120.6 75.2156C120.188 74.5875 119.981 73.8562 119.981 73.0219C119.981 72.1969 120.174 71.475 120.558 70.8562C120.952 70.2281 121.491 69.7406 122.175 69.3937C122.869 69.0375 123.661 68.8594 124.552 68.8594C125.442 68.8594 126.211 69.0609 126.858 69.4641C127.514 69.8578 128.02 70.4156 128.377 71.1375C128.733 71.8594 128.911 72.7078 128.911 73.6828H121.416V72.2906H127.997L127.083 72.8109C127.055 72.2859 126.928 71.8359 126.703 71.4609C126.488 71.0859 126.192 70.8 125.817 70.6031C125.452 70.3969 125.016 70.2937 124.509 70.2937C123.975 70.2937 123.506 70.4016 123.103 70.6172C122.709 70.8328 122.4 71.1375 122.175 71.5312C121.95 71.9156 121.838 72.375 121.838 72.9094C121.838 73.5 121.969 74.0109 122.231 74.4422C122.503 74.8734 122.883 75.2062 123.37 75.4406C123.867 75.6656 124.453 75.7781 125.128 75.7781C125.738 75.7781 126.361 75.6844 126.999 75.4969C127.636 75.3 128.199 75.0281 128.686 74.6812V76.0031C128.199 76.3781 127.603 76.6734 126.9 76.8891C126.206 77.1047 125.499 77.2125 124.777 77.2125ZM129.35 70.4625V69.6328L131.052 69.1969L131.811 66.975H132.88V69.0562H136.579V70.4625H132.88V73.9078C132.88 74.5734 133.021 75.0422 133.302 75.3141C133.593 75.5766 134.061 75.7078 134.708 75.7078C135.121 75.7078 135.486 75.6656 135.805 75.5812C136.124 75.4875 136.429 75.3562 136.719 75.1875V76.6922C136.475 76.8141 136.129 76.9312 135.679 77.0438C135.238 77.1563 134.783 77.2125 134.314 77.2125C133.536 77.2125 132.908 77.0859 132.43 76.8328C131.952 76.5703 131.6 76.2141 131.375 75.7641C131.16 75.3047 131.052 74.7797 131.052 74.1891V70.4625H129.35ZM149.197 77.0156L148.888 74.0625L149.254 73.0359L148.888 72.0234L149.197 69.0562H151.082L150.66 73.0359L151.082 77.0156H149.197ZM149.76 73.0359C149.582 73.8703 149.286 74.6016 148.874 75.2297C148.461 75.8578 147.95 76.3453 147.341 76.6922C146.741 77.0391 146.071 77.2125 145.33 77.2125C144.552 77.2125 143.863 77.0391 143.263 76.6922C142.663 76.3359 142.194 75.8437 141.857 75.2156C141.519 74.5875 141.35 73.8609 141.35 73.0359C141.35 72.2016 141.519 71.475 141.857 70.8562C142.194 70.2281 142.663 69.7406 143.263 69.3937C143.863 69.0375 144.552 68.8594 145.33 68.8594C146.071 68.8594 146.741 69.0328 147.341 69.3797C147.95 69.7266 148.461 70.2141 148.874 70.8422C149.296 71.4609 149.591 72.1922 149.76 73.0359ZM143.207 73.0359C143.207 73.5703 143.315 74.0437 143.53 74.4562C143.755 74.8594 144.06 75.1781 144.444 75.4125C144.829 75.6375 145.269 75.75 145.766 75.75C146.272 75.75 146.741 75.6375 147.172 75.4125C147.604 75.1781 147.983 74.8594 148.311 74.4562C148.649 74.0437 148.916 73.5703 149.113 73.0359C148.916 72.5016 148.649 72.0328 148.311 71.6297C147.983 71.2172 147.604 70.8984 147.172 70.6734C146.741 70.4391 146.272 70.3219 145.766 70.3219C145.269 70.3219 144.829 70.4391 144.444 70.6734C144.06 70.8984 143.755 71.2172 143.53 71.6297C143.315 72.0328 143.207 72.5016 143.207 73.0359ZM144.177 68.0016C143.84 68.0016 143.563 67.9125 143.347 67.7344C143.141 67.5469 143.038 67.2984 143.038 66.9891C143.038 66.6891 143.141 66.45 143.347 66.2719C143.563 66.0844 143.84 65.9906 144.177 65.9906C144.515 65.9906 144.786 66.0844 144.993 66.2719C145.208 66.45 145.316 66.6891 145.316 66.9891C145.316 67.2984 145.208 67.5469 144.993 67.7344C144.786 67.9125 144.515 68.0016 144.177 68.0016ZM148.297 68.0016C147.96 68.0016 147.683 67.9125 147.468 67.7344C147.261 67.5469 147.158 67.2984 147.158 66.9891C147.158 66.6891 147.261 66.45 147.468 66.2719C147.683 66.0844 147.96 65.9906 148.297 65.9906C148.625 65.9906 148.893 66.0844 149.099 66.2719C149.315 66.45 149.422 66.6891 149.422 66.9891C149.422 67.2984 149.315 67.5469 149.099 67.7344C148.893 67.9125 148.625 68.0016 148.297 68.0016ZM152.461 69.0562H154.289L154.768 71.9531V77.0156H152.939V71.6016L152.461 69.0562ZM158.804 69V70.6031C158.597 70.5469 158.372 70.5047 158.129 70.4766C157.885 70.4484 157.655 70.4344 157.439 70.4344C156.924 70.4344 156.464 70.5469 156.061 70.7719C155.658 70.9969 155.339 71.3344 155.105 71.7844C154.88 72.225 154.768 72.7687 154.768 73.4156L154.346 72.8953C154.383 72.3328 154.477 71.8078 154.627 71.3203C154.786 70.8234 155.002 70.3922 155.274 70.0266C155.555 69.6609 155.897 69.375 156.3 69.1687C156.704 68.9625 157.172 68.8594 157.707 68.8594C157.894 68.8594 158.086 68.8734 158.283 68.9016C158.48 68.9203 158.654 68.9531 158.804 69ZM167.61 77.2125C166.682 77.2125 165.857 77.0391 165.135 76.6922C164.413 76.3359 163.846 75.8437 163.433 75.2156C163.021 74.5875 162.814 73.8562 162.814 73.0219C162.814 72.1969 163.007 71.475 163.391 70.8562C163.785 70.2281 164.324 69.7406 165.008 69.3937C165.702 69.0375 166.494 68.8594 167.385 68.8594C168.275 68.8594 169.044 69.0609 169.691 69.4641C170.347 69.8578 170.853 70.4156 171.21 71.1375C171.566 71.8594 171.744 72.7078 171.744 73.6828H164.249V72.2906H170.83L169.916 72.8109C169.888 72.2859 169.761 71.8359 169.536 71.4609C169.321 71.0859 169.025 70.8 168.65 70.6031C168.285 70.3969 167.849 70.2937 167.342 70.2937C166.808 70.2937 166.339 70.4016 165.936 70.6172C165.542 70.8328 165.233 71.1375 165.008 71.5312C164.783 71.9156 164.671 72.375 164.671 72.9094C164.671 73.5 164.802 74.0109 165.064 74.4422C165.336 74.8734 165.716 75.2062 166.203 75.4406C166.7 75.6656 167.286 75.7781 167.961 75.7781C168.571 75.7781 169.194 75.6844 169.832 75.4969C170.469 75.3 171.032 75.0281 171.519 74.6812V76.0031C171.032 76.3781 170.436 76.6734 169.733 76.8891C169.039 77.1047 168.332 77.2125 167.61 77.2125ZM172.183 70.4625V69.6328L173.885 69.1969L174.644 66.975H175.713V69.0562H179.411V70.4625H175.713V73.9078C175.713 74.5828 175.854 75.0516 176.135 75.3141C176.426 75.5766 176.894 75.7078 177.541 75.7078C177.954 75.7078 178.319 75.6656 178.638 75.5812C178.957 75.4875 179.261 75.3562 179.552 75.1875V76.6922C179.299 76.8141 178.952 76.9312 178.511 77.0438C178.071 77.1563 177.611 77.2125 177.133 77.2125C176.365 77.2125 175.741 77.0859 175.263 76.8328C174.785 76.5703 174.433 76.2141 174.208 75.7641C173.993 75.3047 173.885 74.7797 173.885 74.1891V70.4625H172.183ZM178.933 70.4625V69.0562H181.408L180.382 69.9281L181.394 66.975H182.463V69.0562H186.161V70.4625H182.463V73.9078C182.463 74.5828 182.604 75.0516 182.885 75.3141C183.176 75.5766 183.649 75.7078 184.305 75.7078C184.727 75.7078 185.093 75.6609 185.402 75.5672C185.721 75.4734 186.021 75.3469 186.302 75.1875V76.6922C186.04 76.8234 185.688 76.9406 185.247 77.0438C184.807 77.1563 184.352 77.2125 183.883 77.2125C183.115 77.2125 182.491 77.0859 182.013 76.8328C181.535 76.5703 181.183 76.2141 180.958 75.7641C180.743 75.3047 180.635 74.7797 180.635 74.1891V70.4625H178.933ZM198.787 77.0156L198.477 74.0625L198.843 73.0359L198.477 72.0234L198.787 69.0562H200.671L200.249 73.0359L200.671 77.0156H198.787ZM199.349 73.0359C199.171 73.8703 198.876 74.6016 198.463 75.2297C198.051 75.8578 197.54 76.3453 196.931 76.6922C196.331 77.0391 195.66 77.2125 194.92 77.2125C194.142 77.2125 193.452 77.0391 192.852 76.6922C192.252 76.3359 191.784 75.8437 191.446 75.2156C191.109 74.5875 190.94 73.8609 190.94 73.0359C190.94 72.2016 191.109 71.475 191.446 70.8562C191.784 70.2281 192.252 69.7406 192.852 69.3937C193.452 69.0375 194.142 68.8594 194.92 68.8594C195.66 68.8594 196.331 69.0328 196.931 69.3797C197.54 69.7266 198.051 70.2141 198.463 70.8422C198.885 71.4609 199.181 72.1922 199.349 73.0359ZM192.796 73.0359C192.796 73.5703 192.904 74.0437 193.12 74.4562C193.345 74.8594 193.649 75.1781 194.034 75.4125C194.418 75.6375 194.859 75.75 195.356 75.75C195.862 75.75 196.331 75.6375 196.762 75.4125C197.193 75.1781 197.573 74.8594 197.901 74.4562C198.238 74.0437 198.506 73.5703 198.702 73.0359C198.506 72.5016 198.238 72.0328 197.901 71.6297C197.573 71.2172 197.193 70.8984 196.762 70.6734C196.331 70.4391 195.862 70.3219 195.356 70.3219C194.859 70.3219 194.418 70.4391 194.034 70.6734C193.649 70.8984 193.345 71.2172 193.12 71.6297C192.904 72.0328 192.796 72.5016 192.796 73.0359ZM193.767 68.0016C193.429 68.0016 193.152 67.9125 192.937 67.7344C192.731 67.5469 192.627 67.2984 192.627 66.9891C192.627 66.6891 192.731 66.45 192.937 66.2719C193.152 66.0844 193.429 65.9906 193.767 65.9906C194.104 65.9906 194.376 66.0844 194.582 66.2719C194.798 66.45 194.906 66.6891 194.906 66.9891C194.906 67.2984 194.798 67.5469 194.582 67.7344C194.376 67.9125 194.104 68.0016 193.767 68.0016ZM197.887 68.0016C197.549 68.0016 197.273 67.9125 197.057 67.7344C196.851 67.5469 196.748 67.2984 196.748 66.9891C196.748 66.6891 196.851 66.45 197.057 66.2719C197.273 66.0844 197.549 65.9906 197.887 65.9906C198.215 65.9906 198.482 66.0844 198.688 66.2719C198.904 66.45 199.012 66.6891 199.012 66.9891C199.012 67.2984 198.904 67.5469 198.688 67.7344C198.482 67.9125 198.215 68.0016 197.887 68.0016ZM206.874 76.2H206.171L209.434 69.0562H211.388L207.507 77.0156H205.454L201.573 69.0562H203.584L206.874 76.2ZM216.389 77.2125C215.461 77.2125 214.636 77.0391 213.914 76.6922C213.192 76.3359 212.625 75.8437 212.212 75.2156C211.8 74.5875 211.594 73.8562 211.594 73.0219C211.594 72.1969 211.786 71.475 212.17 70.8562C212.564 70.2281 213.103 69.7406 213.787 69.3937C214.481 69.0375 215.273 68.8594 216.164 68.8594C217.055 68.8594 217.823 69.0609 218.47 69.4641C219.126 69.8578 219.633 70.4156 219.989 71.1375C220.345 71.8594 220.523 72.7078 220.523 73.6828H213.028V72.2906H219.609L218.695 72.8109C218.667 72.2859 218.54 71.8359 218.315 71.4609C218.1 71.0859 217.805 70.8 217.43 70.6031C217.064 70.3969 216.628 70.2937 216.122 70.2937C215.587 70.2937 215.119 70.4016 214.715 70.6172C214.322 70.8328 214.012 71.1375 213.787 71.5312C213.562 71.9156 213.45 72.375 213.45 72.9094C213.45 73.5 213.581 74.0109 213.844 74.4422C214.115 74.8734 214.495 75.2062 214.983 75.4406C215.48 75.6656 216.065 75.7781 216.74 75.7781C217.35 75.7781 217.973 75.6844 218.611 75.4969C219.248 75.3 219.811 75.0281 220.298 74.6812V76.0031C219.811 76.3781 219.215 76.6734 218.512 76.8891C217.819 77.1047 217.111 77.2125 216.389 77.2125ZM221.648 69.0562H223.476L223.954 71.925V77.0156H222.126V71.6578L221.648 69.0562ZM227.118 68.8594C227.868 68.8594 228.506 69.0094 229.031 69.3094C229.556 69.6094 229.954 70.0406 230.226 70.6031C230.507 71.1562 230.648 71.8266 230.648 72.6141V77.0156H228.82V72.9094C228.82 72.075 228.623 71.4469 228.229 71.025C227.845 70.5937 227.277 70.3781 226.527 70.3781C226.012 70.3781 225.557 70.4953 225.163 70.7297C224.779 70.9547 224.479 71.2734 224.263 71.6859C224.057 72.0984 223.954 72.5812 223.954 73.1344L223.307 72.7828C223.392 71.9578 223.607 71.2547 223.954 70.6734C224.301 70.0922 224.746 69.6469 225.29 69.3375C225.834 69.0187 226.443 68.8594 227.118 68.8594ZM231.468 70.4625V69.6328L233.17 69.1969L233.929 66.975H234.998V69.0562H238.696V70.4625H234.998V73.9078C234.998 74.5734 235.139 75.0422 235.42 75.3141C235.711 75.5766 236.179 75.7078 236.826 75.7078C237.239 75.7078 237.604 75.6656 237.923 75.5812C238.242 75.4875 238.546 75.3562 238.837 75.1875V76.6922C238.593 76.8141 238.246 76.9312 237.796 77.0438C237.356 77.1563 236.901 77.2125 236.432 77.2125C235.654 77.2125 235.026 77.0859 234.548 76.8328C234.07 76.5703 233.718 76.2141 233.493 75.7641C233.278 75.3047 233.17 74.7797 233.17 74.1891V70.4625H231.468ZM241.999 79.5328C241.53 79.5328 241.103 79.4719 240.719 79.35C240.344 79.2375 239.992 79.0781 239.664 78.8719V77.4797C240.021 77.7047 240.358 77.8688 240.677 77.9719C241.005 78.075 241.371 78.1266 241.774 78.1266C242.158 78.1266 242.5 78.0375 242.8 77.8594C243.1 77.6906 243.349 77.3906 243.546 76.9594L247.132 69.0562H249.072L244.952 77.5781C244.727 78.0469 244.46 78.4219 244.15 78.7031C243.85 78.9938 243.517 79.2047 243.152 79.3359C242.796 79.4672 242.411 79.5328 241.999 79.5328ZM242.913 76.7625L239.257 69.0562H241.267L244.727 76.7625H242.913ZM249.759 69.0562H251.587L252.065 71.9531V77.0156H250.237V71.6016L249.759 69.0562ZM256.101 69V70.6031C255.895 70.5469 255.67 70.5047 255.426 70.4766C255.182 70.4484 254.953 70.4344 254.737 70.4344C254.222 70.4344 253.762 70.5469 253.359 70.7719C252.956 70.9969 252.637 71.3344 252.403 71.7844C252.178 72.225 252.065 72.7687 252.065 73.4156L251.643 72.8953C251.681 72.3328 251.775 71.8078 251.925 71.3203C252.084 70.8234 252.3 70.3922 252.572 70.0266C252.853 69.6609 253.195 69.375 253.598 69.1687C254.001 68.9625 254.47 68.8594 255.004 68.8594C255.192 68.8594 255.384 68.8734 255.581 68.9016C255.778 68.9203 255.951 68.9531 256.101 69ZM256.462 77.1281C256.246 77.1281 256.049 77.0766 255.871 76.9734C255.703 76.8703 255.567 76.7344 255.463 76.5656C255.36 76.3875 255.309 76.1906 255.309 75.975C255.309 75.7594 255.36 75.5672 255.463 75.3984C255.567 75.2203 255.703 75.0797 255.871 74.9766C256.049 74.8734 256.246 74.8219 256.462 74.8219C256.678 74.8219 256.87 74.8734 257.038 74.9766C257.217 75.0797 257.357 75.2203 257.46 75.3984C257.563 75.5672 257.615 75.7594 257.615 75.975C257.615 76.1906 257.563 76.3875 257.46 76.5656C257.357 76.7344 257.217 76.8703 257.038 76.9734C256.87 77.0766 256.678 77.1281 256.462 77.1281ZM98.2906 91.5969V90.0641H105.659V91.5969H98.2906ZM103.184 83.4687L108.247 94.0156H106.264L101.666 84.1719H102.383L97.7844 94.0156H95.8016L100.864 83.4687H103.184ZM109.321 83.1875H111.15V94.0156H109.321V83.1875ZM113.084 83.1875H114.912V94.0156H113.084V83.1875ZM115.947 87.4625V86.6328L117.649 86.1969L118.408 83.975H119.477V86.0562H123.175V87.4625H119.477V90.9078C119.477 91.5734 119.617 92.0422 119.899 92.3141C120.189 92.5766 120.658 92.7078 121.305 92.7078C121.717 92.7078 122.083 92.6656 122.402 92.5812C122.721 92.4875 123.025 92.3562 123.316 92.1875V93.6922C123.072 93.8141 122.725 93.9312 122.275 94.0438C121.835 94.1563 121.38 94.2125 120.911 94.2125C120.133 94.2125 119.505 94.0859 119.027 93.8328C118.549 93.5703 118.197 93.2141 117.972 92.7641C117.756 92.3047 117.649 91.7797 117.649 91.1891V87.4625H115.947ZM132.888 91.5969C132.888 92.1312 132.738 92.5953 132.438 92.9891C132.138 93.3828 131.683 93.6875 131.074 93.9031C130.465 94.1094 129.701 94.2125 128.782 94.2125C127.835 94.2125 127.015 94.0953 126.321 93.8609C125.627 93.6172 125.088 93.2797 124.704 92.8484C124.329 92.4078 124.127 91.9016 124.099 91.3297H125.955C126.011 91.6297 126.161 91.8969 126.405 92.1312C126.658 92.3562 126.986 92.5297 127.39 92.6516C127.802 92.7734 128.271 92.8344 128.796 92.8344C129.555 92.8344 130.127 92.7453 130.511 92.5672C130.896 92.3797 131.088 92.0984 131.088 91.7234C131.088 91.4703 130.957 91.2781 130.694 91.1469C130.441 91.0156 129.958 90.9172 129.246 90.8516L127.685 90.7109C126.841 90.6359 126.176 90.4859 125.688 90.2609C125.201 90.0266 124.854 89.7453 124.647 89.4172C124.441 89.0797 124.338 88.7234 124.338 88.3484C124.338 87.8047 124.507 87.35 124.844 86.9844C125.182 86.6187 125.651 86.3422 126.251 86.1547C126.851 85.9578 127.549 85.8594 128.346 85.8594C129.171 85.8594 129.907 85.9766 130.554 86.2109C131.201 86.4359 131.716 86.7547 132.101 87.1672C132.485 87.5703 132.701 88.0391 132.747 88.5734H130.891C130.854 88.3578 130.741 88.1516 130.554 87.9547C130.376 87.7484 130.099 87.5797 129.724 87.4484C129.358 87.3078 128.866 87.2375 128.247 87.2375C127.591 87.2375 127.076 87.3219 126.701 87.4906C126.335 87.6594 126.152 87.9078 126.152 88.2359C126.152 88.4422 126.265 88.6203 126.49 88.7703C126.715 88.9109 127.132 89.0094 127.741 89.0656L129.752 89.2484C130.558 89.3234 131.186 89.4687 131.636 89.6844C132.096 89.8906 132.419 90.1578 132.607 90.4859C132.794 90.8141 132.888 91.1844 132.888 91.5969ZM141.795 94.0156L141.486 91.0625L141.852 90.0359L141.486 89.0234L141.795 86.0562H143.68L143.258 90.0359L143.68 94.0156H141.795ZM142.358 90.0359C142.18 90.8703 141.884 91.6016 141.472 92.2297C141.059 92.8578 140.548 93.3453 139.939 93.6922C139.339 94.0391 138.669 94.2125 137.928 94.2125C137.15 94.2125 136.461 94.0391 135.861 93.6922C135.261 93.3359 134.792 92.8437 134.455 92.2156C134.117 91.5875 133.948 90.8609 133.948 90.0359C133.948 89.2016 134.117 88.475 134.455 87.8562C134.792 87.2281 135.261 86.7406 135.861 86.3937C136.461 86.0375 137.15 85.8594 137.928 85.8594C138.669 85.8594 139.339 86.0328 139.939 86.3797C140.548 86.7266 141.059 87.2141 141.472 87.8422C141.894 88.4609 142.189 89.1922 142.358 90.0359ZM135.805 90.0359C135.805 90.5703 135.912 91.0437 136.128 91.4562C136.353 91.8594 136.658 92.1781 137.042 92.4125C137.427 92.6375 137.867 92.75 138.364 92.75C138.87 92.75 139.339 92.6375 139.77 92.4125C140.202 92.1781 140.581 91.8594 140.909 91.4562C141.247 91.0437 141.514 90.5703 141.711 90.0359C141.514 89.5016 141.247 89.0328 140.909 88.6297C140.581 88.2172 140.202 87.8984 139.77 87.6734C139.339 87.4391 138.87 87.3219 138.364 87.3219C137.867 87.3219 137.427 87.4391 137.042 87.6734C136.658 87.8984 136.353 88.2172 136.128 88.6297C135.912 89.0328 135.805 89.5016 135.805 90.0359ZM138.828 85.3391C138.144 85.3391 137.6 85.1844 137.197 84.875C136.794 84.5656 136.592 84.1484 136.592 83.6234C136.592 83.0984 136.794 82.6812 137.197 82.3719C137.6 82.0625 138.144 81.9078 138.828 81.9078C139.522 81.9078 140.066 82.0625 140.459 82.3719C140.853 82.6812 141.05 83.0984 141.05 83.6234C141.05 84.1484 140.853 84.5656 140.459 84.875C140.066 85.1844 139.522 85.3391 138.828 85.3391ZM138.828 84.4531C139.184 84.4531 139.456 84.3828 139.644 84.2422C139.841 84.0922 139.939 83.8859 139.939 83.6234C139.939 83.3516 139.841 83.1453 139.644 83.0047C139.456 82.8547 139.184 82.7797 138.828 82.7797C138.481 82.7797 138.209 82.8547 138.012 83.0047C137.816 83.1453 137.717 83.3516 137.717 83.6234C137.717 83.8859 137.816 84.0922 138.012 84.2422C138.209 84.3828 138.481 84.4531 138.828 84.4531ZM156.586 94.0156L156.276 91.0625L156.642 90.0359L156.276 89.0234L156.586 86.0562H158.47L158.048 90.0359L158.47 94.0156H156.586ZM157.148 90.0359C156.97 90.8703 156.675 91.6016 156.262 92.2297C155.85 92.8578 155.339 93.3453 154.729 93.6922C154.129 94.0391 153.459 94.2125 152.718 94.2125C151.94 94.2125 151.251 94.0391 150.651 93.6922C150.051 93.3359 149.582 92.8437 149.245 92.2156C148.907 91.5875 148.739 90.8609 148.739 90.0359C148.739 89.2016 148.907 88.475 149.245 87.8562C149.582 87.2281 150.051 86.7406 150.651 86.3937C151.251 86.0375 151.94 85.8594 152.718 85.8594C153.459 85.8594 154.129 86.0328 154.729 86.3797C155.339 86.7266 155.85 87.2141 156.262 87.8422C156.684 88.4609 156.979 89.1922 157.148 90.0359ZM150.595 90.0359C150.595 90.5703 150.703 91.0437 150.918 91.4562C151.143 91.8594 151.448 92.1781 151.832 92.4125C152.217 92.6375 152.657 92.75 153.154 92.75C153.661 92.75 154.129 92.6375 154.561 92.4125C154.992 92.1781 155.372 91.8594 155.7 91.4562C156.037 91.0437 156.304 90.5703 156.501 90.0359C156.304 89.5016 156.037 89.0328 155.7 88.6297C155.372 88.2172 154.992 87.8984 154.561 87.6734C154.129 87.4391 153.661 87.3219 153.154 87.3219C152.657 87.3219 152.217 87.4391 151.832 87.6734C151.448 87.8984 151.143 88.2172 150.918 88.6297C150.703 89.0328 150.595 89.5016 150.595 90.0359ZM151.565 85.0016C151.228 85.0016 150.951 84.9125 150.736 84.7344C150.529 84.5469 150.426 84.2984 150.426 83.9891C150.426 83.6891 150.529 83.45 150.736 83.2719C150.951 83.0844 151.228 82.9906 151.565 82.9906C151.903 82.9906 152.175 83.0844 152.381 83.2719C152.597 83.45 152.704 83.6891 152.704 83.9891C152.704 84.2984 152.597 84.5469 152.381 84.7344C152.175 84.9125 151.903 85.0016 151.565 85.0016ZM155.686 85.0016C155.348 85.0016 155.072 84.9125 154.856 84.7344C154.65 84.5469 154.547 84.2984 154.547 83.9891C154.547 83.6891 154.65 83.45 154.856 83.2719C155.072 83.0844 155.348 82.9906 155.686 82.9906C156.014 82.9906 156.281 83.0844 156.487 83.2719C156.703 83.45 156.811 83.6891 156.811 83.9891C156.811 84.2984 156.703 84.5469 156.487 84.7344C156.281 84.9125 156.014 85.0016 155.686 85.0016ZM164.673 93.2H163.97L167.232 86.0562H169.187L165.306 94.0156H163.253L159.372 86.0562H161.382L164.673 93.2ZM174.188 94.2125C173.26 94.2125 172.435 94.0391 171.713 93.6922C170.991 93.3359 170.424 92.8437 170.011 92.2156C169.599 91.5875 169.392 90.8562 169.392 90.0219C169.392 89.1969 169.585 88.475 169.969 87.8562C170.363 87.2281 170.902 86.7406 171.586 86.3937C172.28 86.0375 173.072 85.8594 173.963 85.8594C174.853 85.8594 175.622 86.0609 176.269 86.4641C176.925 86.8578 177.431 87.4156 177.788 88.1375C178.144 88.8594 178.322 89.7078 178.322 90.6828H170.827V89.2906H177.408L176.494 89.8109C176.466 89.2859 176.339 88.8359 176.114 88.4609C175.899 88.0859 175.603 87.8 175.228 87.6031C174.863 87.3969 174.427 87.2937 173.921 87.2937C173.386 87.2937 172.917 87.4016 172.514 87.6172C172.121 87.8328 171.811 88.1375 171.586 88.5312C171.361 88.9156 171.249 89.375 171.249 89.9094C171.249 90.5 171.38 91.0109 171.642 91.4422C171.914 91.8734 172.294 92.2062 172.781 92.4406C173.278 92.6656 173.864 92.7781 174.539 92.7781C175.149 92.7781 175.772 92.6844 176.41 92.4969C177.047 92.3 177.61 92.0281 178.097 91.6812V93.0031C177.61 93.3781 177.014 93.6734 176.311 93.8891C175.617 94.1047 174.91 94.2125 174.188 94.2125ZM179.447 86.0562H181.275L181.753 88.925V94.0156H179.925V88.6578L179.447 86.0562ZM184.917 85.8594C185.667 85.8594 186.304 86.0094 186.829 86.3094C187.354 86.6094 187.753 87.0406 188.025 87.6031C188.306 88.1562 188.447 88.8266 188.447 89.6141V94.0156H186.618V89.9094C186.618 89.075 186.422 88.4469 186.028 88.025C185.643 87.5937 185.076 87.3781 184.326 87.3781C183.811 87.3781 183.356 87.4953 182.962 87.7297C182.578 87.9547 182.278 88.2734 182.062 88.6859C181.856 89.0984 181.753 89.5812 181.753 90.1344L181.106 89.7828C181.19 88.9578 181.406 88.2547 181.753 87.6734C182.1 87.0922 182.545 86.6469 183.089 86.3375C183.632 86.0187 184.242 85.8594 184.917 85.8594ZM189.267 87.4625V86.6328L190.969 86.1969L191.728 83.975H192.797V86.0562H196.495V87.4625H192.797V90.9078C192.797 91.5734 192.937 92.0422 193.219 92.3141C193.509 92.5766 193.978 92.7078 194.625 92.7078C195.037 92.7078 195.403 92.6656 195.722 92.5812C196.041 92.4875 196.345 92.3562 196.636 92.1875V93.6922C196.392 93.8141 196.045 93.9312 195.595 94.0438C195.155 94.1563 194.7 94.2125 194.231 94.2125C193.453 94.2125 192.825 94.0859 192.347 93.8328C191.869 93.5703 191.517 93.2141 191.292 92.7641C191.076 92.3047 190.969 91.7797 190.969 91.1891V87.4625H189.267ZM199.797 96.5328C199.329 96.5328 198.902 96.4719 198.518 96.35C198.143 96.2375 197.791 96.0781 197.463 95.8719V94.4797C197.819 94.7047 198.157 94.8688 198.476 94.9719C198.804 95.075 199.169 95.1266 199.572 95.1266C199.957 95.1266 200.299 95.0375 200.599 94.8594C200.899 94.6906 201.147 94.3906 201.344 93.9594L204.93 86.0562H206.871L202.751 94.5781C202.526 95.0469 202.258 95.4219 201.949 95.7031C201.649 95.9938 201.316 96.2047 200.951 96.3359C200.594 96.4672 200.21 96.5328 199.797 96.5328ZM200.712 93.7625L197.055 86.0562H199.066L202.526 93.7625H200.712ZM207.558 86.0562H209.386L209.864 88.9531V94.0156H208.036V88.6016L207.558 86.0562ZM213.9 86V87.6031C213.694 87.5469 213.469 87.5047 213.225 87.4766C212.981 87.4484 212.752 87.4344 212.536 87.4344C212.02 87.4344 211.561 87.5469 211.158 87.7719C210.755 87.9969 210.436 88.3344 210.202 88.7844C209.977 89.225 209.864 89.7687 209.864 90.4156L209.442 89.8953C209.48 89.3328 209.573 88.8078 209.723 88.3203C209.883 87.8234 210.098 87.3922 210.37 87.0266C210.652 86.6609 210.994 86.375 211.397 86.1687C211.8 85.9625 212.269 85.8594 212.803 85.8594C212.991 85.8594 213.183 85.8734 213.38 85.9016C213.577 85.9203 213.75 85.9531 213.9 86ZM214.261 94.1281C214.045 94.1281 213.848 94.0766 213.67 93.9734C213.501 93.8703 213.365 93.7344 213.262 93.5656C213.159 93.3875 213.108 93.1906 213.108 92.975C213.108 92.7594 213.159 92.5672 213.262 92.3984C213.365 92.2203 213.501 92.0797 213.67 91.9766C213.848 91.8734 214.045 91.8219 214.261 91.8219C214.476 91.8219 214.668 91.8734 214.837 91.9766C215.015 92.0797 215.156 92.2203 215.259 92.3984C215.362 92.5672 215.414 92.7594 215.414 92.975C215.414 93.1906 215.362 93.3875 215.259 93.5656C215.156 93.7344 215.015 93.8703 214.837 93.9734C214.668 94.0766 214.476 94.1281 214.261 94.1281Z" fill="#141414"/>
<g clip-path="url(#clip0_609_20)">
<path d="M70.1419 22.5696C72.9332 22.5696 75.5445 24.9108 76.8052 27.2519C79.3264 31.8442 77.7957 38.8677 72.393 48.0523C67.7106 55.7961 62.0378 62.1893 56.0949 67.682C56.0949 68.1323 56.0949 68.6725 56.1849 69.1228C56.455 73.8951 56.9953 78.2173 57.6256 81.8191C57.9858 84.6105 58.436 87.0417 58.7962 88.9326C59.5166 91.8141 60.2369 94.5154 61.0473 97.0366C61.0473 97.1267 60.9573 97.3068 60.8672 97.3068C60.7772 97.3068 60.5971 97.3068 60.5971 97.1267C59.7867 94.4254 59.0663 91.8141 58.436 89.2028C57.8958 87.3118 57.2654 84.8806 56.5451 81.9992C55.7347 78.3974 54.9243 74.0752 54.384 69.3028C54.384 69.2128 54.384 69.2128 54.384 69.2128C52.0428 71.3739 49.6116 73.3549 47.1804 75.2458C47.1804 75.5159 47.1804 75.7861 47.0904 76.1463C46.9103 78.5775 46.5501 81.0087 46.0098 83.2598C45.4696 85.601 44.7492 87.762 43.9388 89.743C43.7587 90.1932 43.4886 90.7335 43.3085 91.1837C43.0384 91.634 42.8583 92.1742 42.5881 92.6245C42.1379 93.5249 41.6877 94.3353 41.2375 95.2358C40.337 96.8566 39.3465 98.3873 38.4461 99.738C36.9153 101.899 35.4746 103.61 34.1239 104.781C32.323 106.581 30.3421 107.842 28.271 107.842C28.0909 107.842 27.9108 107.842 27.7308 107.842C24.7593 107.482 21.6977 104.33 21.0674 101.089C19.8969 94.8756 27.2805 89.4729 37.5456 81.9091C39.9768 80.1983 42.4081 78.3073 45.0194 76.3263C45.0194 76.2363 45.0194 76.0562 45.0194 75.9662C45.4696 71.1938 45.1994 66.6015 44.7492 62.3694C44.5691 60.2984 44.299 58.3174 43.9388 56.5165C43.6687 54.6255 43.3085 53.0047 42.9483 51.3839C42.4081 48.8627 41.8678 46.7916 41.4176 45.0808C40.6072 42.7396 39.7968 40.4885 38.8963 38.3274C38.8963 38.2374 38.8963 38.0573 39.0764 38.0573C39.1664 37.9673 39.2565 38.0573 39.3465 38.1473C40.1569 40.3084 41.0574 42.5595 41.7777 44.9908C42.4081 46.5215 43.2185 48.5925 43.9388 51.1138C44.4791 52.6446 44.9293 54.3554 45.3795 56.2464C45.8298 58.0472 46.1899 60.0282 46.5501 62.1893C47.0904 65.9712 47.4506 70.2033 47.1804 74.6155C49.6116 72.7246 51.9528 70.7436 54.384 68.6725C53.8437 63.9902 53.7537 58.8577 54.2039 53.455C54.7442 47.7821 56.0048 42.4695 57.8057 37.9673C59.6066 33.465 61.4976 29.413 63.8387 26.4415C64.9193 25.0008 66.2699 23.8302 67.6206 23.1999C68.341 22.8397 69.0613 22.6596 69.6916 22.5696C69.8717 22.5696 69.9618 22.5696 70.1419 22.5696ZM28.271 107.392C29.9819 107.392 31.8728 106.491 33.7638 104.6C34.9343 103.34 36.195 101.449 37.5456 99.1077C38.356 97.757 39.1664 96.2262 39.9768 94.5154C40.337 93.705 40.7872 92.8045 41.1474 91.9041C41.3275 91.4539 41.5977 91.0036 41.7777 90.5534C41.9578 90.1032 42.1379 89.5629 42.318 89.1127C43.5786 85.5109 44.4791 81.3689 44.9293 76.9567C42.4981 78.8476 40.0669 80.5585 37.8158 82.2693C27.7308 89.653 20.3471 95.0557 21.5177 100.999C22.0579 104.06 25.0294 107.032 27.8208 107.392C27.9108 107.392 28.0909 107.392 28.271 107.392ZM71.9428 47.7821C77.3454 38.7777 78.8762 31.9343 76.445 27.5221C75.2744 25.361 72.8432 23.0198 70.2319 23.0198C70.0518 23.0198 69.8717 23.0198 69.6916 23.1099C69.1514 23.1999 68.521 23.38 67.9808 23.7402C66.7202 24.4605 65.6396 25.6311 64.6491 27.0718C63.6586 28.5126 62.7582 30.3134 61.8577 32.2044C61.0473 34.1854 60.2369 36.2564 59.4265 38.5976C57.8958 43.0098 56.8152 48.1423 56.275 53.6351C55.8247 58.3174 55.8247 62.9097 56.0949 67.1418C61.8577 61.649 67.4405 55.4359 71.9428 47.7821Z" fill="#141414"/>
<path d="M69.759 21.9951C72.5504 21.9951 75.1617 24.3363 76.4224 26.6775C78.9436 31.2697 77.4129 38.2932 72.0102 47.4778C67.3278 55.2217 61.655 61.6148 55.7121 67.1076C55.7121 67.5578 55.7121 68.0981 55.8021 68.5483C56.0722 73.3207 56.6125 77.6428 57.2428 81.2446C57.603 84.036 58.0532 86.4672 58.4134 88.3582C59.1338 91.2396 59.8541 93.9409 60.6645 96.4622C60.6645 96.5522 60.5745 96.7323 60.4844 96.7323C60.3944 96.7323 60.2143 96.7323 60.2143 96.5522C59.4039 93.8509 58.6835 91.2396 58.0532 88.6283C57.5129 86.7373 56.8826 84.3061 56.1623 81.4247C55.3519 77.8229 54.5415 73.5008 54.0012 68.7284C54.0012 68.6383 54.0012 68.6383 54.0012 68.6383C51.66 70.7994 49.2288 72.7804 46.7976 74.6713C46.7976 74.9415 46.7976 75.2116 46.7076 75.5718C46.5275 78.003 46.1673 80.4342 45.627 82.6853C45.0868 85.0265 44.3664 87.1876 43.556 89.1686C43.3759 89.6188 43.1058 90.1591 42.9257 90.6093C42.6556 91.0595 42.4755 91.5998 42.2053 92.05C41.7551 92.9504 41.3049 93.7608 40.8547 94.6613C39.9542 96.2821 38.9637 97.8129 38.0633 99.1635C36.5325 101.325 35.0918 103.035 33.7411 104.206C31.9402 106.007 29.9592 107.268 27.8882 107.268C27.7081 107.268 27.528 107.268 27.3479 107.268C24.3765 106.907 21.3149 103.756 20.6846 100.514C19.514 94.3011 26.8977 88.8984 37.1628 81.3347C39.594 79.6238 42.0252 77.7329 44.6365 75.7519C44.6365 75.6618 44.6365 75.4817 44.6365 75.3917C45.0868 70.6193 44.8166 66.027 44.3664 61.7949C44.1863 59.7239 43.9162 57.7429 43.556 55.942C43.2859 54.0511 42.9257 52.4303 42.5655 50.8095C42.0252 48.2882 41.485 46.2172 41.0347 44.5063C40.2243 42.1652 39.4139 39.9141 38.5135 37.753C38.5135 37.6629 38.5135 37.4828 38.6936 37.4828C38.7836 37.3928 38.8737 37.4828 38.9637 37.5729C39.7741 39.734 40.6746 41.9851 41.3949 44.4163C42.0252 45.9471 42.8356 48.0181 43.556 50.5393C44.0963 52.0701 44.5465 53.7809 44.9967 55.6719C45.4469 57.4728 45.8071 59.4538 46.1673 61.6148C46.7076 65.3967 47.0678 69.6288 46.7976 74.041C49.2288 72.1501 51.57 70.1691 54.0012 68.0981C53.4609 63.4157 53.3709 58.2832 53.8211 52.8805C54.3614 47.2077 55.622 41.895 57.4229 37.3928C59.2238 32.8906 61.1147 28.8385 63.4559 25.8671C64.5364 24.4263 65.8871 23.2558 67.2378 22.6254C67.9581 22.2653 68.6785 22.0852 69.3088 21.9951C69.4889 21.9951 69.579 21.9951 69.759 21.9951ZM27.8882 106.817C29.5991 106.817 31.49 105.917 33.3809 104.026C34.5515 102.765 35.8122 100.874 37.1628 98.5332C37.9732 97.1825 38.7836 95.6518 39.594 93.9409C39.9542 93.1305 40.4044 92.2301 40.7646 91.3296C40.9447 90.8794 41.2148 90.4292 41.3949 89.979C41.575 89.5287 41.7551 88.9885 41.9352 88.5382C43.1958 84.9365 44.0963 80.7944 44.5465 76.3822C42.1153 78.2731 39.6841 79.984 37.433 81.6948C27.3479 89.0785 19.9643 94.4812 21.1348 100.424C21.6751 103.486 24.6466 106.457 27.438 106.817C27.528 106.817 27.7081 106.817 27.8882 106.817ZM71.5599 47.2077C76.9626 38.2032 78.4934 31.3598 76.0622 26.9476C74.8916 24.7865 72.4604 22.4454 69.8491 22.4454C69.669 22.4454 69.4889 22.4454 69.3088 22.5354C68.7685 22.6254 68.1382 22.8055 67.598 23.1657C66.3373 23.8861 65.2568 25.0567 64.2663 26.4974C63.2758 27.9381 62.3754 29.739 61.4749 31.6299C60.6645 33.6109 59.8541 35.6819 59.0437 38.0231C57.5129 42.4353 56.4324 47.5679 55.8921 53.0606C55.4419 57.7429 55.4419 62.3352 55.7121 66.5673C61.4749 61.0746 67.0577 54.8615 71.5599 47.2077Z" fill="#141414"/>
<path d="M70.5208 24.8672C73.3121 24.8672 75.9234 27.2084 77.1841 29.5495C79.7053 34.1418 78.1746 41.1653 72.7719 50.3499C68.0895 58.0937 62.4167 64.4869 56.4738 69.9797C56.4738 70.4299 56.4738 70.9701 56.5638 71.4204C56.834 76.1927 57.3742 80.5149 58.0045 84.1167C58.3647 86.9081 58.8149 89.3393 59.1751 91.2302C59.8955 94.1117 60.6158 96.813 61.4262 99.3343C61.4262 99.4243 61.3362 99.6044 61.2461 99.6044C61.1561 99.6044 60.976 99.6044 60.976 99.4243C60.1656 96.723 59.4452 94.1117 58.8149 91.5004C58.2747 89.6094 57.6444 87.1782 56.924 84.2968C56.1136 80.695 55.3032 76.3728 54.7629 71.6005C54.7629 71.5104 54.7629 71.5104 54.7629 71.5104C52.4218 73.6715 49.9905 75.6525 47.5593 77.5434C47.5593 77.8135 47.5593 78.0837 47.4693 78.4439C47.2892 80.8751 46.929 83.3063 46.3888 85.5574C45.8485 87.8986 45.1281 90.0596 44.3177 92.0406C44.1376 92.4909 43.8675 93.0311 43.6874 93.4813C43.4173 93.9316 43.2372 94.4718 42.9671 94.9221C42.5168 95.8225 42.0666 96.6329 41.6164 97.5334C40.7159 99.1542 39.7254 100.685 38.825 102.036C37.2942 104.197 35.8535 105.908 34.5028 107.078C32.7019 108.879 30.721 110.14 28.6499 110.14C28.4698 110.14 28.2897 110.14 28.1097 110.14C25.1382 109.779 22.0767 106.628 21.4463 103.386C20.2758 97.1732 27.6594 91.7705 37.9245 84.2067C40.3558 82.4959 42.787 80.6049 45.3983 78.624C45.3983 78.5339 45.3983 78.3538 45.3983 78.2638C45.8485 73.4914 45.5783 68.8991 45.1281 64.667C44.948 62.596 44.6779 60.615 44.3177 58.8141C44.0476 56.9232 43.6874 55.3023 43.3272 53.6815C42.787 51.1603 42.2467 49.0893 41.7965 47.3784C40.9861 45.0372 40.1757 42.7861 39.2752 40.625C39.2752 40.535 39.2752 40.3549 39.4553 40.3549C39.5453 40.2649 39.6354 40.3549 39.7254 40.445C40.5358 42.606 41.4363 44.8571 42.1566 47.2884C42.787 48.8191 43.5974 50.8902 44.3177 53.4114C44.858 54.9422 45.3082 56.653 45.7584 58.544C46.2087 60.3449 46.5688 62.3258 46.929 64.4869C47.4693 68.2688 47.8295 72.5009 47.5593 76.9131C49.9905 75.0222 52.3317 73.0412 54.7629 70.9701C54.2227 66.2878 54.1326 61.1553 54.5828 55.7526C55.1231 50.0798 56.3837 44.7671 58.1846 40.2649C59.9855 35.7626 61.8765 31.7106 64.2176 28.7391C65.2982 27.2984 66.6488 26.1278 67.9995 25.4975C68.7199 25.1373 69.4402 24.9572 70.0705 24.8672C70.2506 24.8672 70.3407 24.8672 70.5208 24.8672ZM28.6499 109.689C30.3608 109.689 32.2517 108.789 34.1427 106.898C35.3132 105.637 36.5739 103.746 37.9245 101.405C38.7349 100.055 39.5453 98.5239 40.3558 96.813C40.7159 96.0026 41.1662 95.1022 41.5263 94.2017C41.7064 93.7515 41.9766 93.3013 42.1566 92.851C42.3367 92.4008 42.5168 91.8605 42.6969 91.4103C43.9575 87.8085 44.858 83.6665 45.3082 79.2543C42.877 81.1452 40.4458 82.8561 38.1947 84.5669C28.1097 91.9506 20.726 97.3533 21.8966 103.296C22.4368 106.358 25.4083 109.329 28.1997 109.689C28.2897 109.689 28.4698 109.689 28.6499 109.689ZM72.3217 50.0798C77.7243 41.0753 79.2551 34.2319 76.8239 29.8197C75.6533 27.6586 73.2221 25.3174 70.6108 25.3174C70.4307 25.3174 70.2506 25.3174 70.0705 25.4075C69.5303 25.4975 68.9 25.6776 68.3597 26.0378C67.0991 26.7581 66.0185 27.9287 65.028 29.3694C64.0375 30.8102 63.1371 32.6111 62.2366 34.502C61.4262 36.483 60.6158 38.554 59.8054 40.8952C58.2747 45.3074 57.1941 50.4399 56.6539 55.9327C56.2036 60.615 56.2036 65.2073 56.4738 69.4394C62.2366 63.9466 67.8194 57.7336 72.3217 50.0798Z" fill="#141414"/>
<path d="M68.9993 23.1439C71.7907 23.1439 74.402 25.4851 75.6626 27.8263C78.1838 32.4186 76.6531 39.442 71.2504 48.6266C66.5681 56.3705 60.8952 62.7637 54.9523 68.2564C54.9523 68.7066 54.9523 69.2469 55.0423 69.6971C55.3125 74.4695 55.8527 78.7916 56.483 82.3934C56.8432 85.1848 57.2935 87.616 57.6536 89.507C58.374 92.3884 59.0943 95.0897 59.9048 97.611C59.9048 97.701 59.8147 97.8811 59.7247 97.8811C59.6346 97.8811 59.4545 97.8811 59.4545 97.701C58.6441 94.9997 57.9238 92.3884 57.2935 89.7771C56.7532 87.8862 56.1229 85.4549 55.4025 82.5735C54.5921 78.9717 53.7817 74.6496 53.2414 69.8772C53.2414 69.7871 53.2414 69.7871 53.2414 69.7871C50.9003 71.9482 48.4691 73.9292 46.0379 75.8201C46.0379 76.0903 46.0379 76.3604 45.9478 76.7206C45.7677 79.1518 45.4075 81.583 44.8673 83.8341C44.327 86.1753 43.6066 88.3364 42.7962 90.3174C42.6161 90.7676 42.346 91.3079 42.1659 91.7581C41.8958 92.2083 41.7157 92.7486 41.4456 93.1988C40.9953 94.0992 40.5451 94.9096 40.0949 95.8101C39.1944 97.4309 38.204 98.9617 37.3035 100.312C35.7727 102.473 34.332 104.184 32.9814 105.355C31.1805 107.156 29.1995 108.416 27.1284 108.416C26.9484 108.416 26.7683 108.416 26.5882 108.416C23.6167 108.056 20.5552 104.905 19.9249 101.663C18.7543 95.4499 26.1379 90.0472 36.4031 82.4835C38.8343 80.7726 41.2655 78.8817 43.8768 76.9007C43.8768 76.8106 43.8768 76.6306 43.8768 76.5405C44.327 71.7681 44.0569 67.1758 43.6066 62.9437C43.4266 60.8727 43.1564 58.8917 42.7962 57.0908C42.5261 55.1999 42.1659 53.5791 41.8057 51.9583C41.2655 49.437 40.7252 47.366 40.275 45.6551C39.4646 43.314 38.6542 41.0629 37.7537 38.9018C37.7537 38.8117 37.7537 38.6316 37.9338 38.6316C38.0239 38.5416 38.1139 38.6316 38.204 38.7217C39.0144 40.8828 39.9148 43.1339 40.6352 45.5651C41.2655 47.0959 42.0759 49.1669 42.7962 51.6881C43.3365 53.2189 43.7867 54.9298 44.237 56.8207C44.6872 58.6216 45.0474 60.6026 45.4075 62.7637C45.9478 66.5455 46.308 70.7776 46.0379 75.1898C48.4691 73.2989 50.8102 71.3179 53.2414 69.2469C52.7012 64.5645 52.6111 59.432 53.0613 54.0293C53.6016 48.3565 54.8622 43.0438 56.6631 38.5416C58.464 34.0394 60.355 29.9873 62.6961 27.0159C63.7767 25.5751 65.1274 24.4046 66.478 23.7743C67.1984 23.4141 67.9187 23.234 68.5491 23.1439C68.7291 23.1439 68.8192 23.1439 68.9993 23.1439ZM27.1284 107.966C28.8393 107.966 30.7302 107.066 32.6212 105.175C33.7918 103.914 35.0524 102.023 36.4031 99.682C37.2135 98.3313 38.0239 96.8006 38.8343 95.0897C39.1944 94.2793 39.6447 93.3789 40.0048 92.4784C40.1849 92.0282 40.4551 91.578 40.6352 91.1278C40.8153 90.6775 40.9953 90.1373 41.1754 89.687C42.4361 86.0853 43.3365 81.9432 43.7867 77.531C41.3555 79.4219 38.9243 81.1328 36.6732 82.8436C26.5882 90.2273 19.2045 95.63 20.3751 101.573C20.9154 104.634 23.8868 107.606 26.6782 107.966C26.7683 107.966 26.9484 107.966 27.1284 107.966ZM70.8002 48.3565C76.2029 39.352 77.7336 32.5086 75.3024 28.0964C74.1318 25.9353 71.7006 23.5942 69.0893 23.5942C68.9092 23.5942 68.7291 23.5942 68.5491 23.6842C68.0088 23.7743 67.3785 23.9543 66.8382 24.3145C65.5776 25.0349 64.497 26.2055 63.5065 27.6462C62.5161 29.0869 61.6156 30.8878 60.7152 32.7787C59.9048 34.7597 59.0943 36.8307 58.2839 39.1719C56.7532 43.5841 55.6726 48.7167 55.1324 54.2094C54.6822 58.8917 54.6822 63.484 54.9523 67.7161C60.7152 62.2234 66.2979 56.0103 70.8002 48.3565Z" fill="#141414"/>
</g>
<defs>
<clipPath id="clip0_609_20">
<rect width="95.6726" height="95.6726" fill="white" transform="translate(0 19)"/>
</clipPath>
</defs>
</svg>
