<svg width="399" height="134" viewBox="0 0 399 134" fill="none" xmlns="http://www.w3.org/2000/svg">
<path d="M97.4531 41.2656H102.628V60.0156H97.4531V41.2656ZM112.203 41.2656H117.403V60.0156H112.203V41.2656ZM100.353 48.1906H114.353V52.7906H100.353V48.1906ZM126.544 60.4156C125.211 60.4156 124.069 60.1406 123.119 59.5906C122.186 59.0406 121.469 58.2656 120.969 57.2656C120.469 56.249 120.219 55.0656 120.219 53.7156V45.7406H125.319V52.9906C125.319 54.0406 125.577 54.849 126.094 55.4156C126.611 55.9823 127.352 56.2656 128.319 56.2656C129.036 56.2656 129.636 56.124 130.119 55.8406C130.602 55.5406 130.977 55.1156 131.244 54.5656C131.511 54.0156 131.644 53.3573 131.644 52.5906L133.219 53.4156C133.036 54.9323 132.619 56.2156 131.969 57.2656C131.336 58.299 130.552 59.0823 129.619 59.6156C128.686 60.149 127.661 60.4156 126.544 60.4156ZM132.569 60.0156L131.644 54.2906V45.7406H136.744V55.0906L137.669 60.0156H132.569ZM145.929 60.4156C144.596 60.4156 143.454 60.1406 142.504 59.5906C141.571 59.0406 140.854 58.2656 140.354 57.2656C139.854 56.249 139.604 55.0656 139.604 53.7156V45.7406H144.704V52.9906C144.704 54.0406 144.962 54.849 145.479 55.4156C145.996 55.9823 146.737 56.2656 147.704 56.2656C148.421 56.2656 149.021 56.124 149.504 55.8406C149.987 55.5406 150.362 55.1156 150.629 54.5656C150.896 54.0156 151.029 53.3573 151.029 52.5906L152.604 53.4156C152.421 54.9323 152.004 56.2156 151.354 57.2656C150.721 58.299 149.937 59.0823 149.004 59.6156C148.071 60.149 147.046 60.4156 145.929 60.4156ZM151.954 60.0156L151.029 54.2906V45.7406H156.129V55.0906L157.054 60.0156H151.954ZM171.614 56.4156V53.9906L171.789 53.3906V49.8906L171.614 49.3656V45.7406H176.714V56.2156C176.714 57.9656 176.306 59.4656 175.489 60.7156C174.673 61.9656 173.531 62.9156 172.064 63.5656C170.614 64.2156 168.898 64.5406 166.914 64.5406C165.598 64.5406 164.373 64.3656 163.239 64.0156C162.123 63.6823 161.006 63.1823 159.889 62.5156V58.6656C160.923 59.4323 162.006 59.9823 163.139 60.3156C164.289 60.6656 165.439 60.8406 166.589 60.8406C168.223 60.8406 169.464 60.4906 170.314 59.7906C171.181 59.0906 171.614 57.9656 171.614 56.4156ZM165.489 58.5156C164.139 58.5156 162.939 58.2406 161.889 57.6906C160.839 57.1406 160.006 56.374 159.389 55.3906C158.789 54.3906 158.489 53.2323 158.489 51.9156C158.489 50.5823 158.789 49.424 159.389 48.4406C160.006 47.4573 160.839 46.6906 161.889 46.1406C162.939 45.5906 164.139 45.3156 165.489 45.3156C166.489 45.3156 167.406 45.474 168.239 45.7906C169.073 46.0906 169.814 46.499 170.464 47.0156C171.114 47.5156 171.656 48.0656 172.089 48.6656C172.539 49.249 172.881 49.8323 173.114 50.4156C173.348 50.999 173.464 51.5156 173.464 51.9656C173.464 52.5823 173.281 53.2656 172.914 54.0156C172.564 54.7656 172.048 55.4823 171.364 56.1656C170.681 56.849 169.839 57.4156 168.839 57.8656C167.856 58.299 166.739 58.5156 165.489 58.5156ZM167.214 55.0406C168.198 55.0406 169.073 54.7823 169.839 54.2656C170.606 53.749 171.256 52.9656 171.789 51.9156C171.239 50.849 170.581 50.0656 169.814 49.5656C169.048 49.049 168.181 48.7906 167.214 48.7906C166.481 48.7906 165.839 48.9156 165.289 49.1656C164.756 49.4156 164.348 49.7823 164.064 50.2656C163.781 50.7323 163.639 51.2823 163.639 51.9156C163.639 52.5323 163.781 53.0823 164.064 53.5656C164.348 54.0323 164.756 54.399 165.289 54.6656C165.823 54.9156 166.464 55.0406 167.214 55.0406ZM187.976 60.4156C186.143 60.4156 184.543 60.1073 183.176 59.4906C181.81 58.8573 180.743 57.974 179.976 56.8406C179.21 55.6906 178.826 54.374 178.826 52.8906C178.826 51.374 179.21 50.049 179.976 48.9156C180.743 47.7823 181.81 46.899 183.176 46.2656C184.543 45.6323 186.143 45.3156 187.976 45.3156C189.793 45.3156 191.385 45.6323 192.751 46.2656C194.135 46.899 195.21 47.7823 195.976 48.9156C196.743 50.049 197.126 51.374 197.126 52.8906C197.126 54.374 196.743 55.6906 195.976 56.8406C195.21 57.974 194.135 58.8573 192.751 59.4906C191.385 60.1073 189.793 60.4156 187.976 60.4156ZM187.976 56.6406C188.81 56.6406 189.518 56.4906 190.101 56.1906C190.701 55.8906 191.16 55.4573 191.476 54.8906C191.793 54.324 191.951 53.6573 191.951 52.8906C191.951 52.0906 191.793 51.4156 191.476 50.8656C191.16 50.299 190.701 49.8656 190.101 49.5656C189.518 49.2656 188.81 49.1156 187.976 49.1156C187.143 49.1156 186.426 49.2656 185.826 49.5656C185.226 49.8656 184.768 50.299 184.451 50.8656C184.135 51.4156 183.976 52.0823 183.976 52.8656C183.976 53.649 184.135 54.324 184.451 54.8906C184.768 55.4573 185.226 55.8906 185.826 56.1906C186.426 56.4906 187.143 56.6406 187.976 56.6406ZM228.692 57.8156H227.067L231.742 41.2656H237.217L231.517 60.0156H224.842L219.417 44.0156H221.542L216.092 60.0156H209.442L203.717 41.2656H209.217L213.892 57.8156L212.292 57.7906L217.742 41.2656H223.217L228.692 57.8156ZM250.311 60.0156L249.661 54.8656L250.336 52.8906L249.661 50.9156L250.311 45.7406H255.611L254.711 52.8656L255.611 60.0156H250.311ZM251.511 52.8906C251.277 54.3906 250.811 55.7073 250.111 56.8406C249.427 57.974 248.552 58.8573 247.486 59.4906C246.436 60.1073 245.236 60.4156 243.886 60.4156C242.486 60.4156 241.252 60.1073 240.186 59.4906C239.136 58.8573 238.311 57.974 237.711 56.8406C237.111 55.6906 236.811 54.374 236.811 52.8906C236.811 51.374 237.111 50.049 237.711 48.9156C238.311 47.7823 239.136 46.899 240.186 46.2656C241.252 45.6323 242.486 45.3156 243.886 45.3156C245.236 45.3156 246.436 45.6323 247.486 46.2656C248.552 46.8823 249.436 47.7573 250.136 48.8906C250.836 50.0073 251.294 51.3406 251.511 52.8906ZM241.986 52.8906C241.986 53.5906 242.127 54.2156 242.411 54.7656C242.711 55.3156 243.119 55.749 243.636 56.0656C244.152 56.3656 244.744 56.5156 245.411 56.5156C246.111 56.5156 246.769 56.3656 247.386 56.0656C248.002 55.749 248.544 55.3156 249.011 54.7656C249.477 54.2156 249.827 53.5906 250.061 52.8906C249.827 52.174 249.477 51.5406 249.011 50.9906C248.544 50.4406 248.002 50.0073 247.386 49.6906C246.769 49.374 246.111 49.2156 245.411 49.2156C244.744 49.2156 244.152 49.374 243.636 49.6906C243.119 50.0073 242.711 50.4406 242.411 50.9906C242.127 51.5406 241.986 52.174 241.986 52.8906ZM258.065 40.7656H263.19V60.0156H258.065V40.7656ZM268.415 45.3156C269.798 45.3156 270.965 45.5906 271.915 46.1406C272.882 46.6906 273.623 47.4656 274.14 48.4656C274.657 49.4656 274.915 50.649 274.915 52.0156V60.0156H269.79V52.7656C269.79 51.699 269.515 50.8823 268.965 50.3156C268.432 49.749 267.657 49.4656 266.64 49.4656C265.94 49.4656 265.323 49.6156 264.79 49.9156C264.273 50.2156 263.873 50.6406 263.59 51.1906C263.323 51.7406 263.19 52.3906 263.19 53.1406L261.59 52.3156C261.79 50.799 262.215 49.524 262.865 48.4906C263.515 47.4406 264.315 46.649 265.265 46.1156C266.232 45.5823 267.282 45.3156 268.415 45.3156ZM290.447 60.0156L289.797 54.8656L290.472 52.8906L289.797 50.9156L290.447 45.7406H295.747L294.847 52.8656L295.747 60.0156H290.447ZM291.647 52.8906C291.414 54.3906 290.947 55.7073 290.247 56.8406C289.564 57.974 288.689 58.8573 287.622 59.4906C286.572 60.1073 285.372 60.4156 284.022 60.4156C282.622 60.4156 281.389 60.1073 280.322 59.4906C279.272 58.8573 278.447 57.974 277.847 56.8406C277.247 55.6906 276.947 54.374 276.947 52.8906C276.947 51.374 277.247 50.049 277.847 48.9156C278.447 47.7823 279.272 46.899 280.322 46.2656C281.389 45.6323 282.622 45.3156 284.022 45.3156C285.372 45.3156 286.572 45.6323 287.622 46.2656C288.689 46.8823 289.572 47.7573 290.272 48.8906C290.972 50.0073 291.431 51.3406 291.647 52.8906ZM282.122 52.8906C282.122 53.5906 282.264 54.2156 282.547 54.7656C282.847 55.3156 283.256 55.749 283.772 56.0656C284.289 56.3656 284.881 56.5156 285.547 56.5156C286.247 56.5156 286.906 56.3656 287.522 56.0656C288.139 55.749 288.681 55.3156 289.147 54.7656C289.614 54.2156 289.964 53.5906 290.197 52.8906C289.964 52.174 289.614 51.5406 289.147 50.9906C288.681 50.4406 288.139 50.0073 287.522 49.6906C286.906 49.374 286.247 49.2156 285.547 49.2156C284.881 49.2156 284.289 49.374 283.772 49.6906C283.256 50.0073 282.847 50.4406 282.547 50.9906C282.264 51.5406 282.122 52.174 282.122 52.8906ZM298.202 40.7656H303.327V60.0156H298.202V40.7656ZM319.036 60.0156L318.386 54.8656L319.061 52.8906L318.386 50.9156L319.036 45.7406H324.336L323.436 52.8656L324.336 60.0156H319.036ZM320.236 52.8906C320.003 54.3906 319.536 55.7073 318.836 56.8406C318.153 57.974 317.278 58.8573 316.211 59.4906C315.161 60.1073 313.961 60.4156 312.611 60.4156C311.211 60.4156 309.978 60.1073 308.911 59.4906C307.861 58.8573 307.036 57.974 306.436 56.8406C305.836 55.6906 305.536 54.374 305.536 52.8906C305.536 51.374 305.836 50.049 306.436 48.9156C307.036 47.7823 307.861 46.899 308.911 46.2656C309.978 45.6323 311.211 45.3156 312.611 45.3156C313.961 45.3156 315.161 45.6323 316.211 46.2656C317.278 46.8823 318.161 47.7573 318.861 48.8906C319.561 50.0073 320.02 51.3406 320.236 52.8906ZM310.711 52.8906C310.711 53.5906 310.853 54.2156 311.136 54.7656C311.436 55.3156 311.845 55.749 312.361 56.0656C312.878 56.3656 313.47 56.5156 314.136 56.5156C314.836 56.5156 315.495 56.3656 316.111 56.0656C316.728 55.749 317.27 55.3156 317.736 54.7656C318.203 54.2156 318.553 53.5906 318.786 52.8906C318.553 52.174 318.203 51.5406 317.736 50.9906C317.27 50.4406 316.728 50.0073 316.111 49.6906C315.495 49.374 314.836 49.2156 314.136 49.2156C313.47 49.2156 312.878 49.374 312.361 49.6906C311.845 50.0073 311.436 50.4406 311.136 50.9906C310.853 51.5406 310.711 52.174 310.711 52.8906ZM326.791 40.7656H331.916V60.0156H326.791V40.7656ZM337.141 45.3156C338.524 45.3156 339.691 45.5906 340.641 46.1406C341.607 46.6906 342.349 47.4656 342.866 48.4656C343.382 49.4656 343.641 50.649 343.641 52.0156V60.0156H338.516V52.7656C338.516 51.699 338.241 50.8823 337.691 50.3156C337.157 49.749 336.382 49.4656 335.366 49.4656C334.666 49.4656 334.049 49.6156 333.516 49.9156C332.999 50.2156 332.599 50.6406 332.316 51.1906C332.049 51.7406 331.916 52.3906 331.916 53.1406L330.316 52.3156C330.516 50.799 330.941 49.524 331.591 48.4906C332.241 47.4406 333.041 46.649 333.991 46.1156C334.957 45.5823 336.007 45.3156 337.141 45.3156ZM344.803 49.5156V47.2906L347.703 46.1156L349.903 41.8906H352.803V45.7406H358.803V49.5156H352.803V53.7156C352.803 54.749 353.012 55.474 353.428 55.8906C353.845 56.3073 354.603 56.5156 355.703 56.5156C356.403 56.5156 357.02 56.4573 357.553 56.3406C358.103 56.2073 358.603 56.0406 359.053 55.8406V59.6906C358.553 59.874 357.895 60.0406 357.078 60.1906C356.262 60.3406 355.42 60.4156 354.553 60.4156C352.97 60.4156 351.67 60.174 350.653 59.6906C349.653 59.2073 348.912 58.5156 348.428 57.6156C347.945 56.699 347.703 55.6323 347.703 54.4156V49.5156H344.803ZM361.117 45.5156L363.692 46.0156L366.242 45.5156V60.0156H361.117V45.5156ZM363.667 44.3406C362.783 44.3406 362.067 44.124 361.517 43.6906C360.967 43.2406 360.692 42.6323 360.692 41.8656C360.692 41.1156 360.967 40.5156 361.517 40.0656C362.067 39.6156 362.783 39.3906 363.667 39.3906C364.583 39.3906 365.308 39.6156 365.842 40.0656C366.392 40.5156 366.667 41.1156 366.667 41.8656C366.667 42.6323 366.392 43.2406 365.842 43.6906C365.308 44.124 364.583 44.3406 363.667 44.3406ZM105.308 70.9687V72.5156H97.9391V70.9687H105.308ZM99.1625 71.7422L98.4172 76.4531L97.5313 75.4125H105.716V77.0156H96.5188L97.3625 71.7422L96.5188 66.4687H105.645V68.0719H97.5313L98.4172 67.0312L99.1625 71.7422ZM107.44 66.1875H109.268V77.0156H107.44V66.1875ZM118.628 77.0156L118.318 74.0625L118.684 73.0359L118.318 72.0234L118.628 69.0562H120.512L120.09 73.0359L120.512 77.0156H118.628ZM119.19 73.0359C119.012 73.8703 118.717 74.6016 118.304 75.2297C117.892 75.8578 117.381 76.3453 116.772 76.6922C116.172 77.0391 115.501 77.2125 114.761 77.2125C113.983 77.2125 113.293 77.0391 112.693 76.6922C112.093 76.3359 111.625 75.8437 111.287 75.2156C110.95 74.5875 110.781 73.8609 110.781 73.0359C110.781 72.2016 110.95 71.475 111.287 70.8562C111.625 70.2281 112.093 69.7406 112.693 69.3937C113.293 69.0375 113.983 68.8594 114.761 68.8594C115.501 68.8594 116.172 69.0328 116.772 69.3797C117.381 69.7266 117.892 70.2141 118.304 70.8422C118.726 71.4609 119.022 72.1922 119.19 73.0359ZM112.637 73.0359C112.637 73.5703 112.745 74.0437 112.961 74.4562C113.186 74.8594 113.49 75.1781 113.875 75.4125C114.259 75.6375 114.7 75.75 115.197 75.75C115.703 75.75 116.172 75.6375 116.603 75.4125C117.034 75.1781 117.414 74.8594 117.742 74.4562C118.079 74.0437 118.347 73.5703 118.543 73.0359C118.347 72.5016 118.079 72.0328 117.742 71.6297C117.414 71.2172 117.034 70.8984 116.603 70.6734C116.172 70.4391 115.703 70.3219 115.197 70.3219C114.7 70.3219 114.259 70.4391 113.875 70.6734C113.49 70.8984 113.186 71.2172 112.961 71.6297C112.745 72.0328 112.637 72.5016 112.637 73.0359ZM113.608 68.0016C113.27 68.0016 112.993 67.9125 112.778 67.7344C112.572 67.5469 112.468 67.2984 112.468 66.9891C112.468 66.6891 112.572 66.45 112.778 66.2719C112.993 66.0844 113.27 65.9906 113.608 65.9906C113.945 65.9906 114.217 66.0844 114.423 66.2719C114.639 66.45 114.747 66.6891 114.747 66.9891C114.747 67.2984 114.639 67.5469 114.423 67.7344C114.217 67.9125 113.945 68.0016 113.608 68.0016ZM117.728 68.0016C117.39 68.0016 117.114 67.9125 116.898 67.7344C116.692 67.5469 116.589 67.2984 116.589 66.9891C116.589 66.6891 116.692 66.45 116.898 66.2719C117.114 66.0844 117.39 65.9906 117.728 65.9906C118.056 65.9906 118.323 66.0844 118.529 66.2719C118.745 66.45 118.853 66.6891 118.853 66.9891C118.853 67.2984 118.745 67.5469 118.529 67.7344C118.323 67.9125 118.056 68.0016 117.728 68.0016ZM121.892 69.0562H123.72L124.198 71.925V77.0156H122.37V71.6578L121.892 69.0562ZM127.137 68.8594C127.84 68.8594 128.436 69.0094 128.923 69.3094C129.42 69.6094 129.795 70.0406 130.048 70.6031C130.311 71.1562 130.442 71.8266 130.442 72.6141V77.0156H128.614V72.9094C128.614 72.075 128.436 71.4469 128.079 71.025C127.733 70.5937 127.222 70.3781 126.547 70.3781C126.068 70.3781 125.651 70.4953 125.295 70.7297C124.948 70.9547 124.676 71.2734 124.479 71.6859C124.292 72.0984 124.198 72.5812 124.198 73.1344L123.551 72.7828C123.636 71.9578 123.837 71.2547 124.156 70.6734C124.484 70.0922 124.901 69.6469 125.408 69.3375C125.923 69.0187 126.5 68.8594 127.137 68.8594ZM133.367 68.8594C134.07 68.8594 134.67 69.0094 135.167 69.3094C135.664 69.6094 136.039 70.0406 136.292 70.6031C136.554 71.1562 136.686 71.8266 136.686 72.6141V77.0156H134.858V72.9094C134.858 72.075 134.679 71.4469 134.323 71.025C133.976 70.5937 133.465 70.3781 132.79 70.3781C132.312 70.3781 131.895 70.4953 131.539 70.7297C131.192 70.9547 130.92 71.2734 130.723 71.6859C130.536 72.0984 130.442 72.5812 130.442 73.1344L129.795 72.7828C129.879 71.9578 130.081 71.2547 130.4 70.6734C130.728 70.0922 131.145 69.6469 131.651 69.3375C132.167 69.0187 132.739 68.8594 133.367 68.8594ZM145.943 77.0156L145.633 74.0625L145.999 73.0359L145.633 72.0234L145.943 69.0562H147.827L147.405 73.0359L147.827 77.0156H145.943ZM146.505 73.0359C146.327 73.8703 146.032 74.6016 145.619 75.2297C145.207 75.8578 144.696 76.3453 144.086 76.6922C143.486 77.0391 142.816 77.2125 142.075 77.2125C141.297 77.2125 140.608 77.0391 140.008 76.6922C139.408 76.3359 138.939 75.8437 138.602 75.2156C138.264 74.5875 138.096 73.8609 138.096 73.0359C138.096 72.2016 138.264 71.475 138.602 70.8562C138.939 70.2281 139.408 69.7406 140.008 69.3937C140.608 69.0375 141.297 68.8594 142.075 68.8594C142.816 68.8594 143.486 69.0328 144.086 69.3797C144.696 69.7266 145.207 70.2141 145.619 70.8422C146.041 71.4609 146.336 72.1922 146.505 73.0359ZM139.952 73.0359C139.952 73.5703 140.06 74.0437 140.275 74.4562C140.5 74.8594 140.805 75.1781 141.189 75.4125C141.574 75.6375 142.014 75.75 142.511 75.75C143.018 75.75 143.486 75.6375 143.918 75.4125C144.349 75.1781 144.729 74.8594 145.057 74.4562C145.394 74.0437 145.661 73.5703 145.858 73.0359C145.661 72.5016 145.394 72.0328 145.057 71.6297C144.729 71.2172 144.349 70.8984 143.918 70.6734C143.486 70.4391 143.018 70.3219 142.511 70.3219C142.014 70.3219 141.574 70.4391 141.189 70.6734C140.805 70.8984 140.5 71.2172 140.275 71.6297C140.06 72.0328 139.952 72.5016 139.952 73.0359ZM140.922 68.0016C140.585 68.0016 140.308 67.9125 140.093 67.7344C139.886 67.5469 139.783 67.2984 139.783 66.9891C139.783 66.6891 139.886 66.45 140.093 66.2719C140.308 66.0844 140.585 65.9906 140.922 65.9906C141.26 65.9906 141.532 66.0844 141.738 66.2719C141.954 66.45 142.061 66.6891 142.061 66.9891C142.061 67.2984 141.954 67.5469 141.738 67.7344C141.532 67.9125 141.26 68.0016 140.922 68.0016ZM145.043 68.0016C144.705 68.0016 144.429 67.9125 144.213 67.7344C144.007 67.5469 143.904 67.2984 143.904 66.9891C143.904 66.6891 144.007 66.45 144.213 66.2719C144.429 66.0844 144.705 65.9906 145.043 65.9906C145.371 65.9906 145.638 66.0844 145.844 66.2719C146.06 66.45 146.168 66.6891 146.168 66.9891C146.168 67.2984 146.06 67.5469 145.844 67.7344C145.638 67.9125 145.371 68.0016 145.043 68.0016ZM157.71 77.2125C156.744 77.2125 155.895 77.0391 155.164 76.6922C154.442 76.3359 153.875 75.8437 153.463 75.2156C153.06 74.5875 152.858 73.8609 152.858 73.0359C152.858 72.2016 153.06 71.475 153.463 70.8562C153.875 70.2281 154.442 69.7406 155.164 69.3937C155.895 69.0375 156.744 68.8594 157.71 68.8594C158.675 68.8594 159.519 69.0375 160.241 69.3937C160.972 69.7406 161.539 70.2281 161.942 70.8562C162.355 71.475 162.561 72.2016 162.561 73.0359C162.561 73.8609 162.355 74.5875 161.942 75.2156C161.539 75.8437 160.972 76.3359 160.241 76.6922C159.519 77.0391 158.675 77.2125 157.71 77.2125ZM157.71 75.7781C158.328 75.7781 158.858 75.6656 159.299 75.4406C159.749 75.2156 160.095 74.9016 160.339 74.4984C160.583 74.0859 160.705 73.5984 160.705 73.0359C160.705 72.4734 160.583 71.9906 160.339 71.5875C160.095 71.175 159.749 70.8562 159.299 70.6312C158.858 70.4062 158.328 70.2937 157.71 70.2937C157.1 70.2937 156.57 70.4062 156.12 70.6312C155.67 70.8562 155.324 71.175 155.08 71.5875C154.836 71.9906 154.714 72.4734 154.714 73.0359C154.714 73.5984 154.836 74.0859 155.08 74.4984C155.324 74.9016 155.67 75.2156 156.12 75.4406C156.57 75.6656 157.1 75.7781 157.71 75.7781ZM163.667 69.0562H165.496L165.974 71.925V77.0156H164.146V71.6578L163.667 69.0562ZM169.138 68.8594C169.888 68.8594 170.525 69.0094 171.05 69.3094C171.575 69.6094 171.974 70.0406 172.246 70.6031C172.527 71.1562 172.667 71.8266 172.667 72.6141V77.0156H170.839V72.9094C170.839 72.075 170.642 71.4469 170.249 71.025C169.864 70.5937 169.297 70.3781 168.547 70.3781C168.031 70.3781 167.577 70.4953 167.183 70.7297C166.799 70.9547 166.499 71.2734 166.283 71.6859C166.077 72.0984 165.974 72.5812 165.974 73.1344L165.327 72.7828C165.411 71.9578 165.627 71.2547 165.974 70.6734C166.321 70.0922 166.766 69.6469 167.31 69.3375C167.853 69.0187 168.463 68.8594 169.138 68.8594ZM186.46 74.5969C186.46 75.1312 186.31 75.5953 186.01 75.9891C185.71 76.3828 185.255 76.6875 184.646 76.9031C184.037 77.1094 183.273 77.2125 182.354 77.2125C181.407 77.2125 180.587 77.0953 179.893 76.8609C179.199 76.6172 178.66 76.2797 178.276 75.8484C177.901 75.4078 177.699 74.9016 177.671 74.3297H179.527C179.584 74.6297 179.734 74.8969 179.977 75.1312C180.23 75.3562 180.559 75.5297 180.962 75.6516C181.374 75.7734 181.843 75.8344 182.368 75.8344C183.127 75.8344 183.699 75.7453 184.084 75.5672C184.468 75.3797 184.66 75.0984 184.66 74.7234C184.66 74.4703 184.529 74.2781 184.266 74.1469C184.013 74.0156 183.53 73.9172 182.818 73.8516L181.257 73.7109C180.413 73.6359 179.748 73.4859 179.26 73.2609C178.773 73.0266 178.426 72.7453 178.219 72.4172C178.013 72.0797 177.91 71.7234 177.91 71.3484C177.91 70.8047 178.079 70.35 178.416 69.9844C178.754 69.6187 179.223 69.3422 179.823 69.1547C180.423 68.9578 181.121 68.8594 181.918 68.8594C182.743 68.8594 183.479 68.9766 184.126 69.2109C184.773 69.4359 185.288 69.7547 185.673 70.1672C186.057 70.5703 186.273 71.0391 186.319 71.5734H184.463C184.426 71.3578 184.313 71.1516 184.126 70.9547C183.948 70.7484 183.671 70.5797 183.296 70.4484C182.93 70.3078 182.438 70.2375 181.819 70.2375C181.163 70.2375 180.648 70.3219 180.273 70.4906C179.907 70.6594 179.724 70.9078 179.724 71.2359C179.724 71.4422 179.837 71.6203 180.062 71.7703C180.287 71.9109 180.704 72.0094 181.313 72.0656L183.324 72.2484C184.13 72.3234 184.759 72.4687 185.209 72.6844C185.668 72.8906 185.991 73.1578 186.179 73.4859C186.366 73.8141 186.46 74.1844 186.46 74.5969ZM192.288 77.2125C191.36 77.2125 190.535 77.0391 189.813 76.6922C189.091 76.3359 188.524 75.8437 188.111 75.2156C187.699 74.5875 187.492 73.8562 187.492 73.0219C187.492 72.1969 187.685 71.475 188.069 70.8562C188.463 70.2281 189.002 69.7406 189.686 69.3937C190.38 69.0375 191.172 68.8594 192.063 68.8594C192.953 68.8594 193.722 69.0609 194.369 69.4641C195.025 69.8578 195.531 70.4156 195.888 71.1375C196.244 71.8594 196.422 72.7078 196.422 73.6828H188.927V72.2906H195.508L194.594 72.8109C194.566 72.2859 194.439 71.8359 194.214 71.4609C193.999 71.0859 193.703 70.8 193.328 70.6031C192.963 70.3969 192.527 70.2937 192.02 70.2937C191.486 70.2937 191.017 70.4016 190.614 70.6172C190.22 70.8328 189.911 71.1375 189.686 71.5312C189.461 71.9156 189.349 72.375 189.349 72.9094C189.349 73.5 189.48 74.0109 189.742 74.4422C190.014 74.8734 190.394 75.2062 190.881 75.4406C191.378 75.6656 191.964 75.7781 192.639 75.7781C193.249 75.7781 193.872 75.6844 194.51 75.4969C195.147 75.3 195.71 75.0281 196.197 74.6812V76.0031C195.71 76.3781 195.114 76.6734 194.411 76.8891C193.717 77.1047 193.01 77.2125 192.288 77.2125ZM197.926 69L198.84 69.1687L199.754 69V77.0156H197.926V69ZM198.84 68.0016C198.493 68.0016 198.207 67.9078 197.982 67.7203C197.757 67.5234 197.645 67.2703 197.645 66.9609C197.645 66.6516 197.757 66.4031 197.982 66.2156C198.207 66.0187 198.493 65.9203 198.84 65.9203C199.196 65.9203 199.482 66.0187 199.698 66.2156C199.923 66.4031 200.036 66.6516 200.036 66.9609C200.036 67.2703 199.923 67.5234 199.698 67.7203C199.482 67.9078 199.196 68.0016 198.84 68.0016ZM203.517 75.4266L202.983 75.2297L208.045 69.0562H210.155L203.391 77.0156H201.689V66.1875H203.517V75.4266ZM205.781 73.0781L207.061 71.925L210.394 77.0156H208.242L205.781 73.0781ZM213.144 75.4266L212.61 75.2297L217.672 69.0562H219.781L213.017 77.0156H211.316V66.1875H213.144V75.4266ZM215.408 73.0781L216.688 71.925L220.02 77.0156H217.869L215.408 73.0781ZM228.024 77.0156L227.715 74.0625L228.08 73.0359L227.715 72.0234L228.024 69.0562H229.909L229.487 73.0359L229.909 77.0156H228.024ZM228.587 73.0359C228.409 73.8703 228.113 74.6016 227.701 75.2297C227.288 75.8578 226.777 76.3453 226.168 76.6922C225.568 77.0391 224.898 77.2125 224.157 77.2125C223.379 77.2125 222.69 77.0391 222.09 76.6922C221.49 76.3359 221.021 75.8437 220.684 75.2156C220.346 74.5875 220.177 73.8609 220.177 73.0359C220.177 72.2016 220.346 71.475 220.684 70.8562C221.021 70.2281 221.49 69.7406 222.09 69.3937C222.69 69.0375 223.379 68.8594 224.157 68.8594C224.898 68.8594 225.568 69.0328 226.168 69.3797C226.777 69.7266 227.288 70.2141 227.701 70.8422C228.123 71.4609 228.418 72.1922 228.587 73.0359ZM222.034 73.0359C222.034 73.5703 222.141 74.0437 222.357 74.4562C222.582 74.8594 222.887 75.1781 223.271 75.4125C223.655 75.6375 224.096 75.75 224.593 75.75C225.099 75.75 225.568 75.6375 225.999 75.4125C226.43 75.1781 226.81 74.8594 227.138 74.4562C227.476 74.0437 227.743 73.5703 227.94 73.0359C227.743 72.5016 227.476 72.0328 227.138 71.6297C226.81 71.2172 226.43 70.8984 225.999 70.6734C225.568 70.4391 225.099 70.3219 224.593 70.3219C224.096 70.3219 223.655 70.4391 223.271 70.6734C222.887 70.8984 222.582 71.2172 222.357 71.6297C222.141 72.0328 222.034 72.5016 222.034 73.0359ZM231.668 69L232.582 69.1687L233.496 69V77.0156H231.668V69ZM232.582 68.0016C232.235 68.0016 231.949 67.9078 231.724 67.7203C231.499 67.5234 231.387 67.2703 231.387 66.9609C231.387 66.6516 231.499 66.4031 231.724 66.2156C231.949 66.0187 232.235 65.9203 232.582 65.9203C232.938 65.9203 233.224 66.0187 233.44 66.2156C233.665 66.4031 233.777 66.6516 233.777 66.9609C233.777 67.2703 233.665 67.5234 233.44 67.7203C233.224 67.9078 232.938 68.0016 232.582 68.0016ZM235.431 66.1875H237.259V77.0156H235.431V66.1875ZM242.526 77.2125C241.795 77.2125 241.172 77.0625 240.656 76.7625C240.15 76.4625 239.761 76.0312 239.489 75.4687C239.217 74.9062 239.081 74.2359 239.081 73.4578V69.0562H240.909V73.1766C240.909 74.0016 241.097 74.6297 241.472 75.0609C241.856 75.4828 242.405 75.6937 243.117 75.6937C243.633 75.6937 244.073 75.5812 244.439 75.3562C244.814 75.1312 245.105 74.8125 245.311 74.4C245.517 73.9781 245.62 73.4906 245.62 72.9375L246.253 73.2891C246.178 74.1047 245.972 74.8078 245.634 75.3984C245.297 75.9797 244.861 76.4297 244.326 76.7484C243.792 77.0578 243.192 77.2125 242.526 77.2125ZM246.084 77.0156L245.62 74.1469V69.0562H247.448V74.4281L247.912 77.0156H246.084ZM250.337 77.1281C250.121 77.1281 249.925 77.0766 249.746 76.9734C249.578 76.8703 249.442 76.7344 249.339 76.5656C249.235 76.3875 249.184 76.1906 249.184 75.975C249.184 75.7594 249.235 75.5672 249.339 75.3984C249.442 75.2203 249.578 75.0797 249.746 74.9766C249.925 74.8734 250.121 74.8219 250.337 74.8219C250.553 74.8219 250.745 74.8734 250.914 74.9766C251.092 75.0797 251.232 75.2203 251.335 75.3984C251.439 75.5672 251.49 75.7594 251.49 75.975C251.49 76.1906 251.439 76.3875 251.335 76.5656C251.232 76.7344 251.092 76.8703 250.914 76.9734C250.745 77.0766 250.553 77.1281 250.337 77.1281ZM96.2375 90.5844H98.1219C98.1781 91.0062 98.3516 91.3766 98.6422 91.6953C98.9422 92.0141 99.3359 92.2625 99.8234 92.4406C100.311 92.6094 100.873 92.6937 101.511 92.6937C102.458 92.6937 103.208 92.5484 103.761 92.2578C104.314 91.9578 104.591 91.5547 104.591 91.0484C104.591 90.6359 104.431 90.3266 104.113 90.1203C103.794 89.9141 103.217 89.7594 102.383 89.6562L100.105 89.3609C98.8297 89.1922 97.9016 88.8781 97.3203 88.4187C96.7484 87.95 96.4625 87.2891 96.4625 86.4359C96.4625 85.7891 96.6547 85.2312 97.0391 84.7625C97.4328 84.2844 97.9859 83.9187 98.6984 83.6656C99.4109 83.4031 100.245 83.2719 101.202 83.2719C102.148 83.2719 102.988 83.4125 103.719 83.6937C104.45 83.975 105.031 84.3687 105.463 84.875C105.903 85.3719 106.142 85.9578 106.18 86.6328H104.295C104.248 86.2578 104.089 85.9344 103.817 85.6625C103.555 85.3906 103.198 85.1797 102.748 85.0297C102.298 84.8703 101.769 84.7906 101.159 84.7906C100.297 84.7906 99.6078 84.9312 99.0922 85.2125C98.5766 85.4937 98.3188 85.8781 98.3188 86.3656C98.3188 86.7406 98.4688 87.0312 98.7688 87.2375C99.0781 87.4344 99.6125 87.5844 100.372 87.6875L102.678 88.0109C103.625 88.1422 104.37 88.3203 104.914 88.5453C105.467 88.7609 105.861 89.0562 106.095 89.4312C106.33 89.7969 106.447 90.2703 106.447 90.8516C106.447 91.5266 106.241 92.1172 105.828 92.6234C105.416 93.1297 104.834 93.5234 104.084 93.8047C103.344 94.0766 102.477 94.2125 101.483 94.2125C100.47 94.2125 99.575 94.0625 98.7969 93.7625C98.0281 93.4531 97.4188 93.0266 96.9688 92.4828C96.5188 91.9391 96.275 91.3062 96.2375 90.5844ZM112.307 94.2125C111.379 94.2125 110.554 94.0391 109.832 93.6922C109.11 93.3359 108.543 92.8437 108.131 92.2156C107.718 91.5875 107.512 90.8562 107.512 90.0219C107.512 89.1969 107.704 88.475 108.088 87.8562C108.482 87.2281 109.021 86.7406 109.706 86.3937C110.399 86.0375 111.192 85.8594 112.082 85.8594C112.973 85.8594 113.742 86.0609 114.388 86.4641C115.045 86.8578 115.551 87.4156 115.907 88.1375C116.263 88.8594 116.442 89.7078 116.442 90.6828H108.946V89.2906H115.528L114.613 89.8109C114.585 89.2859 114.459 88.8359 114.234 88.4609C114.018 88.0859 113.723 87.8 113.348 87.6031C112.982 87.3969 112.546 87.2937 112.04 87.2937C111.506 87.2937 111.037 87.4016 110.634 87.6172C110.24 87.8328 109.931 88.1375 109.706 88.5312C109.481 88.9156 109.368 89.375 109.368 89.9094C109.368 90.5 109.499 91.0109 109.762 91.4422C110.034 91.8734 110.413 92.2062 110.901 92.4406C111.398 92.6656 111.984 92.7781 112.659 92.7781C113.268 92.7781 113.892 92.6844 114.529 92.4969C115.167 92.3 115.729 92.0281 116.217 91.6812V93.0031C115.729 93.3781 115.134 93.6734 114.431 93.8891C113.737 94.1047 113.029 94.2125 112.307 94.2125ZM117.946 86L118.86 86.1687L119.774 86V94.0156H117.946V86ZM118.86 85.0016C118.513 85.0016 118.227 84.9078 118.002 84.7203C117.777 84.5234 117.664 84.2703 117.664 83.9609C117.664 83.6516 117.777 83.4031 118.002 83.2156C118.227 83.0187 118.513 82.9203 118.86 82.9203C119.216 82.9203 119.502 83.0187 119.718 83.2156C119.943 83.4031 120.055 83.6516 120.055 83.9609C120.055 84.2703 119.943 84.5234 119.718 84.7203C119.502 84.9078 119.216 85.0016 118.86 85.0016ZM123.537 92.4266L123.002 92.2297L128.065 86.0562H130.174L123.41 94.0156H121.709V83.1875H123.537V92.4266ZM125.801 90.0781L127.08 88.925L130.413 94.0156H128.262L125.801 90.0781ZM133.163 92.4266L132.629 92.2297L137.692 86.0562H139.801L133.037 94.0156H131.335V83.1875H133.163V92.4266ZM135.427 90.0781L136.707 88.925L140.04 94.0156H137.888L135.427 90.0781ZM148.044 94.0156L147.734 91.0625L148.1 90.0359L147.734 89.0234L148.044 86.0562H149.928L149.506 90.0359L149.928 94.0156H148.044ZM148.606 90.0359C148.428 90.8703 148.133 91.6016 147.72 92.2297C147.308 92.8578 146.797 93.3453 146.188 93.6922C145.588 94.0391 144.917 94.2125 144.177 94.2125C143.398 94.2125 142.709 94.0391 142.109 93.6922C141.509 93.3359 141.041 92.8437 140.703 92.2156C140.366 91.5875 140.197 90.8609 140.197 90.0359C140.197 89.2016 140.366 88.475 140.703 87.8562C141.041 87.2281 141.509 86.7406 142.109 86.3937C142.709 86.0375 143.398 85.8594 144.177 85.8594C144.917 85.8594 145.588 86.0328 146.188 86.3797C146.797 86.7266 147.308 87.2141 147.72 87.8422C148.142 88.4609 148.438 89.1922 148.606 90.0359ZM142.053 90.0359C142.053 90.5703 142.161 91.0437 142.377 91.4562C142.602 91.8594 142.906 92.1781 143.291 92.4125C143.675 92.6375 144.116 92.75 144.613 92.75C145.119 92.75 145.588 92.6375 146.019 92.4125C146.45 92.1781 146.83 91.8594 147.158 91.4562C147.495 91.0437 147.763 90.5703 147.959 90.0359C147.763 89.5016 147.495 89.0328 147.158 88.6297C146.83 88.2172 146.45 87.8984 146.019 87.6734C145.588 87.4391 145.119 87.3219 144.613 87.3219C144.116 87.3219 143.675 87.4391 143.291 87.6734C142.906 87.8984 142.602 88.2172 142.377 88.6297C142.161 89.0328 142.053 89.5016 142.053 90.0359ZM151.687 86L152.602 86.1687L153.516 86V94.0156H151.687V86ZM152.602 85.0016C152.255 85.0016 151.969 84.9078 151.744 84.7203C151.519 84.5234 151.406 84.2703 151.406 83.9609C151.406 83.6516 151.519 83.4031 151.744 83.2156C151.969 83.0187 152.255 82.9203 152.602 82.9203C152.958 82.9203 153.244 83.0187 153.459 83.2156C153.684 83.4031 153.797 83.6516 153.797 83.9609C153.797 84.2703 153.684 84.5234 153.459 84.7203C153.244 84.9078 152.958 85.0016 152.602 85.0016ZM155.45 83.1875H157.278V94.0156H155.45V83.1875ZM163.558 94.2125C162.63 94.2125 161.805 94.0391 161.083 93.6922C160.362 93.3359 159.794 92.8437 159.382 92.2156C158.969 91.5875 158.763 90.8562 158.763 90.0219C158.763 89.1969 158.955 88.475 159.34 87.8562C159.733 87.2281 160.272 86.7406 160.957 86.3937C161.651 86.0375 162.443 85.8594 163.333 85.8594C164.224 85.8594 164.993 86.0609 165.64 86.4641C166.296 86.8578 166.802 87.4156 167.158 88.1375C167.515 88.8594 167.693 89.7078 167.693 90.6828H160.197V89.2906H166.779L165.865 89.8109C165.837 89.2859 165.71 88.8359 165.485 88.4609C165.269 88.0859 164.974 87.8 164.599 87.6031C164.233 87.3969 163.797 87.2937 163.291 87.2937C162.757 87.2937 162.288 87.4016 161.885 87.6172C161.491 87.8328 161.182 88.1375 160.957 88.5312C160.732 88.9156 160.619 89.375 160.619 89.9094C160.619 90.5 160.751 91.0109 161.013 91.4422C161.285 91.8734 161.665 92.2062 162.152 92.4406C162.649 92.6656 163.235 92.7781 163.91 92.7781C164.519 92.7781 165.143 92.6844 165.78 92.4969C166.418 92.3 166.98 92.0281 167.468 91.6812V93.0031C166.98 93.3781 166.385 93.6734 165.682 93.8891C164.988 94.1047 164.28 94.2125 163.558 94.2125ZM181.159 91.5969C181.159 92.1312 181.009 92.5953 180.709 92.9891C180.409 93.3828 179.954 93.6875 179.345 93.9031C178.736 94.1094 177.972 94.2125 177.053 94.2125C176.106 94.2125 175.286 94.0953 174.592 93.8609C173.898 93.6172 173.359 93.2797 172.975 92.8484C172.6 92.4078 172.398 91.9016 172.37 91.3297H174.226C174.283 91.6297 174.433 91.8969 174.676 92.1312C174.929 92.3562 175.258 92.5297 175.661 92.6516C176.073 92.7734 176.542 92.8344 177.067 92.8344C177.826 92.8344 178.398 92.7453 178.783 92.5672C179.167 92.3797 179.359 92.0984 179.359 91.7234C179.359 91.4703 179.228 91.2781 178.965 91.1469C178.712 91.0156 178.229 90.9172 177.517 90.8516L175.956 90.7109C175.112 90.6359 174.447 90.4859 173.959 90.2609C173.472 90.0266 173.125 89.7453 172.919 89.4172C172.712 89.0797 172.609 88.7234 172.609 88.3484C172.609 87.8047 172.778 87.35 173.115 86.9844C173.453 86.6187 173.922 86.3422 174.522 86.1547C175.122 85.9578 175.82 85.8594 176.617 85.8594C177.442 85.8594 178.178 85.9766 178.825 86.2109C179.472 86.4359 179.987 86.7547 180.372 87.1672C180.756 87.5703 180.972 88.0391 181.019 88.5734H179.162C179.125 88.3578 179.012 88.1516 178.825 87.9547C178.647 87.7484 178.37 87.5797 177.995 87.4484C177.629 87.3078 177.137 87.2375 176.519 87.2375C175.862 87.2375 175.347 87.3219 174.972 87.4906C174.606 87.6594 174.423 87.9078 174.423 88.2359C174.423 88.4422 174.536 88.6203 174.761 88.7703C174.986 88.9109 175.403 89.0094 176.012 89.0656L178.023 89.2484C178.829 89.3234 179.458 89.4687 179.908 89.6844C180.367 89.8906 180.69 90.1578 180.878 90.4859C181.065 90.8141 181.159 91.1844 181.159 91.5969ZM182.641 86L183.556 86.1687L184.47 86V94.0156H182.641V86ZM183.556 85.0016C183.209 85.0016 182.923 84.9078 182.698 84.7203C182.473 84.5234 182.36 84.2703 182.36 83.9609C182.36 83.6516 182.473 83.4031 182.698 83.2156C182.923 83.0187 183.209 82.9203 183.556 82.9203C183.912 82.9203 184.198 83.0187 184.413 83.2156C184.638 83.4031 184.751 83.6516 184.751 83.9609C184.751 84.2703 184.638 84.5234 184.413 84.7203C184.198 84.9078 183.912 85.0016 183.556 85.0016ZM186.025 86.0562H187.853L188.331 88.925V94.0156H186.503V88.6578L186.025 86.0562ZM191.495 85.8594C192.245 85.8594 192.882 86.0094 193.407 86.3094C193.932 86.6094 194.331 87.0406 194.603 87.6031C194.884 88.1562 195.025 88.8266 195.025 89.6141V94.0156H193.196V89.9094C193.196 89.075 193 88.4469 192.606 88.025C192.221 87.5937 191.654 87.3781 190.904 87.3781C190.389 87.3781 189.934 87.4953 189.54 87.7297C189.156 87.9547 188.856 88.2734 188.64 88.6859C188.434 89.0984 188.331 89.5812 188.331 90.1344L187.684 89.7828C187.768 88.9578 187.984 88.2547 188.331 87.6734C188.678 87.0922 189.123 86.6469 189.667 86.3375C190.211 86.0187 190.82 85.8594 191.495 85.8594ZM204.28 94.0156L203.971 91.0625L204.336 90.0359L203.971 89.0234L204.28 86.0562H206.164L205.743 90.0359L206.164 94.0156H204.28ZM204.843 90.0359C204.664 90.8703 204.369 91.6016 203.957 92.2297C203.544 92.8578 203.033 93.3453 202.424 93.6922C201.824 94.0391 201.153 94.2125 200.413 94.2125C199.635 94.2125 198.946 94.0391 198.346 93.6922C197.746 93.3359 197.277 92.8437 196.939 92.2156C196.602 91.5875 196.433 90.8609 196.433 90.0359C196.433 89.2016 196.602 88.475 196.939 87.8562C197.277 87.2281 197.746 86.7406 198.346 86.3937C198.946 86.0375 199.635 85.8594 200.413 85.8594C201.153 85.8594 201.824 86.0328 202.424 86.3797C203.033 86.7266 203.544 87.2141 203.957 87.8422C204.378 88.4609 204.674 89.1922 204.843 90.0359ZM198.289 90.0359C198.289 90.5703 198.397 91.0437 198.613 91.4562C198.838 91.8594 199.143 92.1781 199.527 92.4125C199.911 92.6375 200.352 92.75 200.849 92.75C201.355 92.75 201.824 92.6375 202.255 92.4125C202.686 92.1781 203.066 91.8594 203.394 91.4562C203.732 91.0437 203.999 90.5703 204.196 90.0359C203.999 89.5016 203.732 89.0328 203.394 88.6297C203.066 88.2172 202.686 87.8984 202.255 87.6734C201.824 87.4391 201.355 87.3219 200.849 87.3219C200.352 87.3219 199.911 87.4391 199.527 87.6734C199.143 87.8984 198.838 88.2172 198.613 88.6297C198.397 89.0328 198.289 89.5016 198.289 90.0359ZM199.26 85.0016C198.922 85.0016 198.646 84.9125 198.43 84.7344C198.224 84.5469 198.121 84.2984 198.121 83.9891C198.121 83.6891 198.224 83.45 198.43 83.2719C198.646 83.0844 198.922 82.9906 199.26 82.9906C199.597 82.9906 199.869 83.0844 200.075 83.2719C200.291 83.45 200.399 83.6891 200.399 83.9891C200.399 84.2984 200.291 84.5469 200.075 84.7344C199.869 84.9125 199.597 85.0016 199.26 85.0016ZM203.38 85.0016C203.043 85.0016 202.766 84.9125 202.55 84.7344C202.344 84.5469 202.241 84.2984 202.241 83.9891C202.241 83.6891 202.344 83.45 202.55 83.2719C202.766 83.0844 203.043 82.9906 203.38 82.9906C203.708 82.9906 203.975 83.0844 204.182 83.2719C204.397 83.45 204.505 83.6891 204.505 83.9891C204.505 84.2984 204.397 84.5469 204.182 84.7344C203.975 84.9125 203.708 85.0016 203.38 85.0016ZM209.752 92.4266L209.217 92.2297L214.28 86.0562H216.389L209.625 94.0156H207.924V83.1875H209.752V92.4266ZM212.016 90.0781L213.296 88.925L216.628 94.0156H214.477L212.016 90.0781ZM217.551 86L218.465 86.1687L219.379 86V94.0156H217.551V86ZM218.465 85.0016C218.118 85.0016 217.832 84.9078 217.607 84.7203C217.382 84.5234 217.269 84.2703 217.269 83.9609C217.269 83.6516 217.382 83.4031 217.607 83.2156C217.832 83.0187 218.118 82.9203 218.465 82.9203C218.821 82.9203 219.107 83.0187 219.322 83.2156C219.547 83.4031 219.66 83.6516 219.66 83.9609C219.66 84.2703 219.547 84.5234 219.322 84.7203C219.107 84.9078 218.821 85.0016 218.465 85.0016ZM220.934 86.0562H222.762L223.24 88.925V94.0156H221.412V88.6578L220.934 86.0562ZM226.404 85.8594C227.154 85.8594 227.791 86.0094 228.316 86.3094C228.841 86.6094 229.24 87.0406 229.512 87.6031C229.793 88.1562 229.934 88.8266 229.934 89.6141V94.0156H228.106V89.9094C228.106 89.075 227.909 88.4469 227.515 88.025C227.131 87.5937 226.563 87.3781 225.813 87.3781C225.298 87.3781 224.843 87.4953 224.449 87.7297C224.065 87.9547 223.765 88.2734 223.549 88.6859C223.343 89.0984 223.24 89.5812 223.24 90.1344L222.593 89.7828C222.677 88.9578 222.893 88.2547 223.24 87.6734C223.587 87.0922 224.032 86.6469 224.576 86.3375C225.12 86.0187 225.729 85.8594 226.404 85.8594ZM232.608 94.1281C232.392 94.1281 232.195 94.0766 232.017 93.9734C231.848 93.8703 231.713 93.7344 231.609 93.5656C231.506 93.3875 231.455 93.1906 231.455 92.975C231.455 92.7594 231.506 92.5672 231.609 92.3984C231.713 92.2203 231.848 92.0797 232.017 91.9766C232.195 91.8734 232.392 91.8219 232.608 91.8219C232.823 91.8219 233.016 91.8734 233.184 91.9766C233.363 92.0797 233.503 92.2203 233.606 92.3984C233.709 92.5672 233.761 92.7594 233.761 92.975C233.761 93.1906 233.709 93.3875 233.606 93.5656C233.503 93.7344 233.363 93.8703 233.184 93.9734C233.016 94.0766 232.823 94.1281 232.608 94.1281Z" fill="#141414"/>
<g clip-path="url(#clip0_609_10)">
<path d="M70.1419 22.5696C72.9332 22.5696 75.5445 24.9108 76.8052 27.2519C79.3264 31.8442 77.7957 38.8677 72.393 48.0523C67.7106 55.7961 62.0378 62.1893 56.0949 67.682C56.0949 68.1323 56.0949 68.6725 56.1849 69.1228C56.455 73.8951 56.9953 78.2173 57.6256 81.8191C57.9858 84.6105 58.436 87.0417 58.7962 88.9326C59.5166 91.8141 60.2369 94.5154 61.0473 97.0366C61.0473 97.1267 60.9573 97.3068 60.8672 97.3068C60.7772 97.3068 60.5971 97.3068 60.5971 97.1267C59.7867 94.4254 59.0663 91.8141 58.436 89.2028C57.8958 87.3118 57.2654 84.8806 56.5451 81.9992C55.7347 78.3974 54.9243 74.0752 54.384 69.3028C54.384 69.2128 54.384 69.2128 54.384 69.2128C52.0428 71.3739 49.6116 73.3549 47.1804 75.2458C47.1804 75.5159 47.1804 75.7861 47.0904 76.1463C46.9103 78.5775 46.5501 81.0087 46.0098 83.2598C45.4696 85.601 44.7492 87.762 43.9388 89.743C43.7587 90.1932 43.4886 90.7335 43.3085 91.1837C43.0384 91.634 42.8583 92.1742 42.5881 92.6245C42.1379 93.5249 41.6877 94.3353 41.2375 95.2358C40.337 96.8566 39.3465 98.3873 38.4461 99.738C36.9153 101.899 35.4746 103.61 34.1239 104.781C32.323 106.581 30.3421 107.842 28.271 107.842C28.0909 107.842 27.9108 107.842 27.7308 107.842C24.7593 107.482 21.6977 104.33 21.0674 101.089C19.8969 94.8756 27.2805 89.4729 37.5456 81.9091C39.9768 80.1983 42.4081 78.3073 45.0194 76.3263C45.0194 76.2363 45.0194 76.0562 45.0194 75.9662C45.4696 71.1938 45.1994 66.6015 44.7492 62.3694C44.5691 60.2984 44.299 58.3174 43.9388 56.5165C43.6687 54.6255 43.3085 53.0047 42.9483 51.3839C42.4081 48.8627 41.8678 46.7916 41.4176 45.0808C40.6072 42.7396 39.7968 40.4885 38.8963 38.3274C38.8963 38.2374 38.8963 38.0573 39.0764 38.0573C39.1664 37.9673 39.2565 38.0573 39.3465 38.1473C40.1569 40.3084 41.0574 42.5595 41.7777 44.9908C42.4081 46.5215 43.2185 48.5925 43.9388 51.1138C44.4791 52.6446 44.9293 54.3554 45.3795 56.2464C45.8298 58.0472 46.1899 60.0282 46.5501 62.1893C47.0904 65.9712 47.4506 70.2033 47.1804 74.6155C49.6116 72.7246 51.9528 70.7436 54.384 68.6725C53.8437 63.9902 53.7537 58.8577 54.2039 53.455C54.7442 47.7821 56.0048 42.4695 57.8057 37.9673C59.6066 33.465 61.4976 29.413 63.8387 26.4415C64.9193 25.0008 66.2699 23.8302 67.6206 23.1999C68.341 22.8397 69.0613 22.6596 69.6916 22.5696C69.8717 22.5696 69.9618 22.5696 70.1419 22.5696ZM28.271 107.392C29.9819 107.392 31.8728 106.491 33.7638 104.6C34.9343 103.34 36.195 101.449 37.5456 99.1077C38.356 97.757 39.1664 96.2262 39.9768 94.5154C40.337 93.705 40.7872 92.8045 41.1474 91.9041C41.3275 91.4539 41.5977 91.0036 41.7777 90.5534C41.9578 90.1032 42.1379 89.5629 42.318 89.1127C43.5786 85.5109 44.4791 81.3689 44.9293 76.9567C42.4981 78.8476 40.0669 80.5585 37.8158 82.2693C27.7308 89.653 20.3471 95.0557 21.5177 100.999C22.0579 104.06 25.0294 107.032 27.8208 107.392C27.9108 107.392 28.0909 107.392 28.271 107.392ZM71.9428 47.7821C77.3454 38.7777 78.8762 31.9343 76.445 27.5221C75.2744 25.361 72.8432 23.0198 70.2319 23.0198C70.0518 23.0198 69.8717 23.0198 69.6916 23.1099C69.1514 23.1999 68.521 23.38 67.9808 23.7402C66.7202 24.4605 65.6396 25.6311 64.6491 27.0718C63.6586 28.5126 62.7582 30.3134 61.8577 32.2044C61.0473 34.1854 60.2369 36.2564 59.4265 38.5976C57.8958 43.0098 56.8152 48.1423 56.275 53.6351C55.8247 58.3174 55.8247 62.9097 56.0949 67.1418C61.8577 61.649 67.4405 55.4359 71.9428 47.7821Z" fill="#141414"/>
<path d="M69.759 21.9951C72.5504 21.9951 75.1617 24.3363 76.4224 26.6775C78.9436 31.2697 77.4129 38.2932 72.0102 47.4778C67.3278 55.2217 61.655 61.6148 55.7121 67.1076C55.7121 67.5578 55.7121 68.0981 55.8021 68.5483C56.0722 73.3207 56.6125 77.6428 57.2428 81.2446C57.603 84.036 58.0532 86.4672 58.4134 88.3582C59.1338 91.2396 59.8541 93.9409 60.6645 96.4622C60.6645 96.5522 60.5745 96.7323 60.4844 96.7323C60.3944 96.7323 60.2143 96.7323 60.2143 96.5522C59.4039 93.8509 58.6835 91.2396 58.0532 88.6283C57.5129 86.7373 56.8826 84.3061 56.1623 81.4247C55.3519 77.8229 54.5415 73.5008 54.0012 68.7284C54.0012 68.6383 54.0012 68.6383 54.0012 68.6383C51.66 70.7994 49.2288 72.7804 46.7976 74.6713C46.7976 74.9415 46.7976 75.2116 46.7076 75.5718C46.5275 78.003 46.1673 80.4342 45.627 82.6853C45.0868 85.0265 44.3664 87.1876 43.556 89.1686C43.3759 89.6188 43.1058 90.1591 42.9257 90.6093C42.6556 91.0595 42.4755 91.5998 42.2053 92.05C41.7551 92.9504 41.3049 93.7608 40.8547 94.6613C39.9542 96.2821 38.9637 97.8129 38.0633 99.1635C36.5325 101.325 35.0918 103.035 33.7411 104.206C31.9402 106.007 29.9592 107.268 27.8882 107.268C27.7081 107.268 27.528 107.268 27.3479 107.268C24.3765 106.907 21.3149 103.756 20.6846 100.514C19.514 94.3011 26.8977 88.8984 37.1628 81.3347C39.594 79.6238 42.0252 77.7329 44.6365 75.7519C44.6365 75.6618 44.6365 75.4817 44.6365 75.3917C45.0868 70.6193 44.8166 66.027 44.3664 61.7949C44.1863 59.7239 43.9162 57.7429 43.556 55.942C43.2859 54.0511 42.9257 52.4303 42.5655 50.8095C42.0252 48.2882 41.485 46.2172 41.0347 44.5063C40.2243 42.1652 39.4139 39.9141 38.5135 37.753C38.5135 37.6629 38.5135 37.4828 38.6936 37.4828C38.7836 37.3928 38.8737 37.4828 38.9637 37.5729C39.7741 39.734 40.6746 41.9851 41.3949 44.4163C42.0252 45.9471 42.8356 48.0181 43.556 50.5393C44.0963 52.0701 44.5465 53.7809 44.9967 55.6719C45.4469 57.4728 45.8071 59.4538 46.1673 61.6148C46.7076 65.3967 47.0678 69.6288 46.7976 74.041C49.2288 72.1501 51.57 70.1691 54.0012 68.0981C53.4609 63.4157 53.3709 58.2832 53.8211 52.8805C54.3614 47.2077 55.622 41.895 57.4229 37.3928C59.2238 32.8906 61.1147 28.8385 63.4559 25.8671C64.5364 24.4263 65.8871 23.2558 67.2378 22.6254C67.9581 22.2653 68.6785 22.0852 69.3088 21.9951C69.4889 21.9951 69.579 21.9951 69.759 21.9951ZM27.8882 106.817C29.5991 106.817 31.49 105.917 33.3809 104.026C34.5515 102.765 35.8122 100.874 37.1628 98.5332C37.9732 97.1825 38.7836 95.6518 39.594 93.9409C39.9542 93.1305 40.4044 92.2301 40.7646 91.3296C40.9447 90.8794 41.2148 90.4292 41.3949 89.979C41.575 89.5287 41.7551 88.9885 41.9352 88.5382C43.1958 84.9365 44.0963 80.7944 44.5465 76.3822C42.1153 78.2731 39.6841 79.984 37.433 81.6948C27.3479 89.0785 19.9643 94.4812 21.1348 100.424C21.6751 103.486 24.6466 106.457 27.438 106.817C27.528 106.817 27.7081 106.817 27.8882 106.817ZM71.5599 47.2077C76.9626 38.2032 78.4934 31.3598 76.0622 26.9476C74.8916 24.7865 72.4604 22.4454 69.8491 22.4454C69.669 22.4454 69.4889 22.4454 69.3088 22.5354C68.7685 22.6254 68.1382 22.8055 67.598 23.1657C66.3373 23.8861 65.2568 25.0567 64.2663 26.4974C63.2758 27.9381 62.3754 29.739 61.4749 31.6299C60.6645 33.6109 59.8541 35.6819 59.0437 38.0231C57.5129 42.4353 56.4324 47.5679 55.8921 53.0606C55.4419 57.7429 55.4419 62.3352 55.7121 66.5673C61.4749 61.0746 67.0577 54.8615 71.5599 47.2077Z" fill="#141414"/>
<path d="M70.5208 24.8672C73.3121 24.8672 75.9234 27.2084 77.1841 29.5495C79.7053 34.1418 78.1746 41.1653 72.7719 50.3499C68.0895 58.0937 62.4167 64.4869 56.4738 69.9797C56.4738 70.4299 56.4738 70.9701 56.5638 71.4204C56.834 76.1927 57.3742 80.5149 58.0045 84.1167C58.3647 86.9081 58.8149 89.3393 59.1751 91.2302C59.8955 94.1117 60.6158 96.813 61.4262 99.3343C61.4262 99.4243 61.3362 99.6044 61.2461 99.6044C61.1561 99.6044 60.976 99.6044 60.976 99.4243C60.1656 96.723 59.4452 94.1117 58.8149 91.5004C58.2747 89.6094 57.6444 87.1782 56.924 84.2968C56.1136 80.695 55.3032 76.3728 54.7629 71.6005C54.7629 71.5104 54.7629 71.5104 54.7629 71.5104C52.4218 73.6715 49.9905 75.6525 47.5593 77.5434C47.5593 77.8135 47.5593 78.0837 47.4693 78.4439C47.2892 80.8751 46.929 83.3063 46.3888 85.5574C45.8485 87.8986 45.1281 90.0596 44.3177 92.0406C44.1376 92.4909 43.8675 93.0311 43.6874 93.4813C43.4173 93.9316 43.2372 94.4718 42.9671 94.9221C42.5168 95.8225 42.0666 96.6329 41.6164 97.5334C40.7159 99.1542 39.7254 100.685 38.825 102.036C37.2942 104.197 35.8535 105.908 34.5028 107.078C32.7019 108.879 30.721 110.14 28.6499 110.14C28.4698 110.14 28.2897 110.14 28.1097 110.14C25.1382 109.779 22.0767 106.628 21.4463 103.386C20.2758 97.1732 27.6594 91.7705 37.9245 84.2067C40.3558 82.4959 42.787 80.6049 45.3983 78.624C45.3983 78.5339 45.3983 78.3538 45.3983 78.2638C45.8485 73.4914 45.5783 68.8991 45.1281 64.667C44.948 62.596 44.6779 60.615 44.3177 58.8141C44.0476 56.9232 43.6874 55.3023 43.3272 53.6815C42.787 51.1603 42.2467 49.0893 41.7965 47.3784C40.9861 45.0372 40.1757 42.7861 39.2752 40.625C39.2752 40.535 39.2752 40.3549 39.4553 40.3549C39.5453 40.2649 39.6354 40.3549 39.7254 40.445C40.5358 42.606 41.4363 44.8571 42.1566 47.2884C42.787 48.8191 43.5974 50.8902 44.3177 53.4114C44.858 54.9422 45.3082 56.653 45.7584 58.544C46.2087 60.3449 46.5688 62.3258 46.929 64.4869C47.4693 68.2688 47.8295 72.5009 47.5593 76.9131C49.9905 75.0222 52.3317 73.0412 54.7629 70.9701C54.2227 66.2878 54.1326 61.1553 54.5828 55.7526C55.1231 50.0798 56.3837 44.7671 58.1846 40.2649C59.9855 35.7626 61.8765 31.7106 64.2176 28.7391C65.2982 27.2984 66.6488 26.1278 67.9995 25.4975C68.7199 25.1373 69.4402 24.9572 70.0705 24.8672C70.2506 24.8672 70.3407 24.8672 70.5208 24.8672ZM28.6499 109.689C30.3608 109.689 32.2517 108.789 34.1427 106.898C35.3132 105.637 36.5739 103.746 37.9245 101.405C38.7349 100.055 39.5453 98.5239 40.3558 96.813C40.7159 96.0026 41.1662 95.1022 41.5263 94.2017C41.7064 93.7515 41.9766 93.3013 42.1566 92.851C42.3367 92.4008 42.5168 91.8605 42.6969 91.4103C43.9575 87.8085 44.858 83.6665 45.3082 79.2543C42.877 81.1452 40.4458 82.8561 38.1947 84.5669C28.1097 91.9506 20.726 97.3533 21.8966 103.296C22.4368 106.358 25.4083 109.329 28.1997 109.689C28.2897 109.689 28.4698 109.689 28.6499 109.689ZM72.3217 50.0798C77.7243 41.0753 79.2551 34.2319 76.8239 29.8197C75.6533 27.6586 73.2221 25.3174 70.6108 25.3174C70.4307 25.3174 70.2506 25.3174 70.0705 25.4075C69.5303 25.4975 68.9 25.6776 68.3597 26.0378C67.0991 26.7581 66.0185 27.9287 65.028 29.3694C64.0375 30.8102 63.1371 32.6111 62.2366 34.502C61.4262 36.483 60.6158 38.554 59.8054 40.8952C58.2747 45.3074 57.1941 50.4399 56.6539 55.9327C56.2036 60.615 56.2036 65.2073 56.4738 69.4394C62.2366 63.9466 67.8194 57.7336 72.3217 50.0798Z" fill="#141414"/>
<path d="M68.9993 23.1439C71.7907 23.1439 74.402 25.4851 75.6626 27.8263C78.1838 32.4186 76.6531 39.442 71.2504 48.6266C66.5681 56.3705 60.8952 62.7637 54.9523 68.2564C54.9523 68.7066 54.9523 69.2469 55.0423 69.6971C55.3125 74.4695 55.8527 78.7916 56.483 82.3934C56.8432 85.1848 57.2935 87.616 57.6536 89.507C58.374 92.3884 59.0943 95.0897 59.9048 97.611C59.9048 97.701 59.8147 97.8811 59.7247 97.8811C59.6346 97.8811 59.4545 97.8811 59.4545 97.701C58.6441 94.9997 57.9238 92.3884 57.2935 89.7771C56.7532 87.8862 56.1229 85.4549 55.4025 82.5735C54.5921 78.9717 53.7817 74.6496 53.2414 69.8772C53.2414 69.7871 53.2414 69.7871 53.2414 69.7871C50.9003 71.9482 48.4691 73.9292 46.0379 75.8201C46.0379 76.0903 46.0379 76.3604 45.9478 76.7206C45.7677 79.1518 45.4075 81.583 44.8673 83.8341C44.327 86.1753 43.6066 88.3364 42.7962 90.3174C42.6161 90.7676 42.346 91.3079 42.1659 91.7581C41.8958 92.2083 41.7157 92.7486 41.4456 93.1988C40.9953 94.0992 40.5451 94.9096 40.0949 95.8101C39.1944 97.4309 38.204 98.9617 37.3035 100.312C35.7727 102.473 34.332 104.184 32.9814 105.355C31.1805 107.156 29.1995 108.416 27.1284 108.416C26.9484 108.416 26.7683 108.416 26.5882 108.416C23.6167 108.056 20.5552 104.905 19.9249 101.663C18.7543 95.4499 26.1379 90.0472 36.4031 82.4835C38.8343 80.7726 41.2655 78.8817 43.8768 76.9007C43.8768 76.8106 43.8768 76.6306 43.8768 76.5405C44.327 71.7681 44.0569 67.1758 43.6066 62.9437C43.4266 60.8727 43.1564 58.8917 42.7962 57.0908C42.5261 55.1999 42.1659 53.5791 41.8057 51.9583C41.2655 49.437 40.7252 47.366 40.275 45.6551C39.4646 43.314 38.6542 41.0629 37.7537 38.9018C37.7537 38.8117 37.7537 38.6316 37.9338 38.6316C38.0239 38.5416 38.1139 38.6316 38.204 38.7217C39.0144 40.8828 39.9148 43.1339 40.6352 45.5651C41.2655 47.0959 42.0759 49.1669 42.7962 51.6881C43.3365 53.2189 43.7867 54.9298 44.237 56.8207C44.6872 58.6216 45.0474 60.6026 45.4075 62.7637C45.9478 66.5455 46.308 70.7776 46.0379 75.1898C48.4691 73.2989 50.8102 71.3179 53.2414 69.2469C52.7012 64.5645 52.6111 59.432 53.0613 54.0293C53.6016 48.3565 54.8622 43.0438 56.6631 38.5416C58.464 34.0394 60.355 29.9873 62.6961 27.0159C63.7767 25.5751 65.1274 24.4046 66.478 23.7743C67.1984 23.4141 67.9187 23.234 68.5491 23.1439C68.7291 23.1439 68.8192 23.1439 68.9993 23.1439ZM27.1284 107.966C28.8393 107.966 30.7302 107.066 32.6212 105.175C33.7918 103.914 35.0524 102.023 36.4031 99.682C37.2135 98.3313 38.0239 96.8006 38.8343 95.0897C39.1944 94.2793 39.6447 93.3789 40.0048 92.4784C40.1849 92.0282 40.4551 91.578 40.6352 91.1278C40.8153 90.6775 40.9953 90.1373 41.1754 89.687C42.4361 86.0853 43.3365 81.9432 43.7867 77.531C41.3555 79.4219 38.9243 81.1328 36.6732 82.8436C26.5882 90.2273 19.2045 95.63 20.3751 101.573C20.9154 104.634 23.8868 107.606 26.6782 107.966C26.7683 107.966 26.9484 107.966 27.1284 107.966ZM70.8002 48.3565C76.2029 39.352 77.7336 32.5086 75.3024 28.0964C74.1318 25.9353 71.7006 23.5942 69.0893 23.5942C68.9092 23.5942 68.7291 23.5942 68.5491 23.6842C68.0088 23.7743 67.3785 23.9543 66.8382 24.3145C65.5776 25.0349 64.497 26.2055 63.5065 27.6462C62.5161 29.0869 61.6156 30.8878 60.7152 32.7787C59.9048 34.7597 59.0943 36.8307 58.2839 39.1719C56.7532 43.5841 55.6726 48.7167 55.1324 54.2094C54.6822 58.8917 54.6822 63.484 54.9523 67.7161C60.7152 62.2234 66.2979 56.0103 70.8002 48.3565Z" fill="#141414"/>
</g>
<defs>
<clipPath id="clip0_609_10">
<rect width="95.6726" height="95.6726" fill="white" transform="translate(0 19)"/>
</clipPath>
</defs>
</svg>
